%TF.GenerationSoftware,Altium Limited,Altium Designer,23.8.1 (32)*%
G04 Layer_Color=16711935*
%FSLAX26Y26*%
%MOIN*%
%TF.SameCoordinates,3698AD17-5E89-47BC-9667-67594BD3CA53*%
%TF.FilePolarity,Negative*%
%TF.FileFunction,Soldermask,Bot*%
%TF.Part,Single*%
G01*
G75*
%TA.AperFunction,Conductor*%
%ADD10C,0.196850*%
%TA.AperFunction,SMDPad,CuDef*%
%ADD11C,0.050000*%
%ADD37R,0.046000X0.063000*%
%ADD45R,0.063000X0.046000*%
G04:AMPARAMS|DCode=53|XSize=46mil|YSize=63mil|CornerRadius=0mil|HoleSize=0mil|Usage=FLASHONLY|Rotation=315.000|XOffset=0mil|YOffset=0mil|HoleType=Round|Shape=Rectangle|*
%AMROTATEDRECTD53*
4,1,4,-0.038537,-0.006010,0.006010,0.038537,0.038537,0.006010,-0.006010,-0.038537,-0.038537,-0.006010,0.0*
%
%ADD53ROTATEDRECTD53*%

%ADD65R,0.025000X0.008000*%
%TA.AperFunction,ComponentPad*%
G04:AMPARAMS|DCode=96|XSize=43.307mil|YSize=102.362mil|CornerRadius=21.654mil|HoleSize=0mil|Usage=FLASHONLY|Rotation=180.000|XOffset=0mil|YOffset=0mil|HoleType=Round|Shape=RoundedRectangle|*
%AMROUNDEDRECTD96*
21,1,0.043307,0.059055,0,0,180.0*
21,1,0.000000,0.102362,0,0,180.0*
1,1,0.043307,0.000000,0.029528*
1,1,0.043307,0.000000,0.029528*
1,1,0.043307,0.000000,-0.029528*
1,1,0.043307,0.000000,-0.029528*
%
%ADD96ROUNDEDRECTD96*%
G04:AMPARAMS|DCode=97|XSize=43.307mil|YSize=82.677mil|CornerRadius=21.654mil|HoleSize=0mil|Usage=FLASHONLY|Rotation=180.000|XOffset=0mil|YOffset=0mil|HoleType=Round|Shape=RoundedRectangle|*
%AMROUNDEDRECTD97*
21,1,0.043307,0.039370,0,0,180.0*
21,1,0.000000,0.082677,0,0,180.0*
1,1,0.043307,0.000000,0.019685*
1,1,0.043307,0.000000,0.019685*
1,1,0.043307,0.000000,-0.019685*
1,1,0.043307,0.000000,-0.019685*
%
%ADD97ROUNDEDRECTD97*%
%TA.AperFunction,ViaPad*%
%ADD104C,0.023622*%
%ADD107C,0.024803*%
%TA.AperFunction,SMDPad,CuDef*%
%ADD114R,0.015748X0.019685*%
G04:AMPARAMS|DCode=118|XSize=25.591mil|YSize=27.559mil|CornerRadius=0mil|HoleSize=0mil|Usage=FLASHONLY|Rotation=135.000|XOffset=0mil|YOffset=0mil|HoleType=Round|Shape=Rectangle|*
%AMROTATEDRECTD118*
4,1,4,0.018791,0.000696,-0.000696,-0.018791,-0.018791,-0.000696,0.000696,0.018791,0.018791,0.000696,0.0*
%
%ADD118ROTATEDRECTD118*%

%ADD120R,0.070866X0.047244*%
%ADD121R,0.061024X0.023622*%
%ADD130R,0.086614X0.043307*%
G04:AMPARAMS|DCode=133|XSize=31.496mil|YSize=11.811mil|CornerRadius=5.906mil|HoleSize=0mil|Usage=FLASHONLY|Rotation=135.000|XOffset=0mil|YOffset=0mil|HoleType=Round|Shape=RoundedRectangle|*
%AMROUNDEDRECTD133*
21,1,0.031496,0.000000,0,0,135.0*
21,1,0.019685,0.011811,0,0,135.0*
1,1,0.011811,-0.006960,0.006960*
1,1,0.011811,0.006960,-0.006960*
1,1,0.011811,0.006960,-0.006960*
1,1,0.011811,-0.006960,0.006960*
%
%ADD133ROUNDEDRECTD133*%
%ADD134P,0.066813X4X180.0*%
G04:AMPARAMS|DCode=135|XSize=11.811mil|YSize=31.496mil|CornerRadius=5.906mil|HoleSize=0mil|Usage=FLASHONLY|Rotation=135.000|XOffset=0mil|YOffset=0mil|HoleType=Round|Shape=RoundedRectangle|*
%AMROUNDEDRECTD135*
21,1,0.011811,0.019685,0,0,135.0*
21,1,0.000000,0.031496,0,0,135.0*
1,1,0.011811,0.006960,0.006960*
1,1,0.011811,0.006960,0.006960*
1,1,0.011811,-0.006960,-0.006960*
1,1,0.011811,-0.006960,-0.006960*
%
%ADD135ROUNDEDRECTD135*%
G04:AMPARAMS|DCode=136|XSize=23.622mil|YSize=49.213mil|CornerRadius=0mil|HoleSize=0mil|Usage=FLASHONLY|Rotation=135.000|XOffset=0mil|YOffset=0mil|HoleType=Round|Shape=Rectangle|*
%AMROTATEDRECTD136*
4,1,4,0.025751,0.009048,-0.009048,-0.025751,-0.025751,-0.009048,0.009048,0.025751,0.025751,0.009048,0.0*
%
%ADD136ROTATEDRECTD136*%

G04:AMPARAMS|DCode=137|XSize=46mil|YSize=63mil|CornerRadius=0mil|HoleSize=0mil|Usage=FLASHONLY|Rotation=225.000|XOffset=0mil|YOffset=0mil|HoleType=Round|Shape=Rectangle|*
%AMROTATEDRECTD137*
4,1,4,-0.006010,0.038537,0.038537,-0.006010,0.006010,-0.038537,-0.038537,0.006010,-0.006010,0.038537,0.0*
%
%ADD137ROTATEDRECTD137*%

G04:AMPARAMS|DCode=138|XSize=25mil|YSize=8mil|CornerRadius=0mil|HoleSize=0mil|Usage=FLASHONLY|Rotation=45.000|XOffset=0mil|YOffset=0mil|HoleType=Round|Shape=Rectangle|*
%AMROTATEDRECTD138*
4,1,4,-0.006010,-0.011667,-0.011667,-0.006010,0.006010,0.011667,0.011667,0.006010,-0.006010,-0.011667,0.0*
%
%ADD138ROTATEDRECTD138*%

%ADD150R,0.029622X0.033559*%
%ADD151R,0.043402X0.045370*%
G04:AMPARAMS|DCode=152|XSize=45.37mil|YSize=43.402mil|CornerRadius=0mil|HoleSize=0mil|Usage=FLASHONLY|Rotation=225.000|XOffset=0mil|YOffset=0mil|HoleType=Round|Shape=Rectangle|*
%AMROTATEDRECTD152*
4,1,4,0.000696,0.031386,0.031386,0.000696,-0.000696,-0.031386,-0.031386,-0.000696,0.000696,0.031386,0.0*
%
%ADD152ROTATEDRECTD152*%

G04:AMPARAMS|DCode=153|XSize=45.37mil|YSize=43.402mil|CornerRadius=0mil|HoleSize=0mil|Usage=FLASHONLY|Rotation=135.000|XOffset=0mil|YOffset=0mil|HoleType=Round|Shape=Rectangle|*
%AMROTATEDRECTD153*
4,1,4,0.031386,-0.000696,0.000696,-0.031386,-0.031386,0.000696,-0.000696,0.031386,0.031386,-0.000696,0.0*
%
%ADD153ROTATEDRECTD153*%

%ADD154R,0.045370X0.043402*%
%ADD155R,0.033559X0.029622*%
G04:AMPARAMS|DCode=156|XSize=33.559mil|YSize=29.622mil|CornerRadius=0mil|HoleSize=0mil|Usage=FLASHONLY|Rotation=135.000|XOffset=0mil|YOffset=0mil|HoleType=Round|Shape=Rectangle|*
%AMROTATEDRECTD156*
4,1,4,0.022338,-0.001392,0.001392,-0.022338,-0.022338,0.001392,-0.001392,0.022338,0.022338,-0.001392,0.0*
%
%ADD156ROTATEDRECTD156*%

G04:AMPARAMS|DCode=164|XSize=16.811mil|YSize=50.276mil|CornerRadius=0mil|HoleSize=0mil|Usage=FLASHONLY|Rotation=315.000|XOffset=0mil|YOffset=0mil|HoleType=Round|Shape=Round|*
%AMOVALD164*
21,1,0.033465,0.016811,0.000000,0.000000,45.0*
1,1,0.016811,-0.011832,-0.011832*
1,1,0.016811,0.011832,0.011832*
%
%ADD164OVALD164*%

G04:AMPARAMS|DCode=165|XSize=16.811mil|YSize=50.276mil|CornerRadius=0mil|HoleSize=0mil|Usage=FLASHONLY|Rotation=45.000|XOffset=0mil|YOffset=0mil|HoleType=Round|Shape=Round|*
%AMOVALD165*
21,1,0.033465,0.016811,0.000000,0.000000,135.0*
1,1,0.016811,0.011832,-0.011832*
1,1,0.016811,-0.011832,0.011832*
%
%ADD165OVALD165*%

G04:AMPARAMS|DCode=173|XSize=28.622mil|YSize=36.496mil|CornerRadius=0mil|HoleSize=0mil|Usage=FLASHONLY|Rotation=45.000|XOffset=0mil|YOffset=0mil|HoleType=Round|Shape=Rectangle|*
%AMROTATEDRECTD173*
4,1,4,0.002784,-0.023023,-0.023023,0.002784,-0.002784,0.023023,0.023023,-0.002784,0.002784,-0.023023,0.0*
%
%ADD173ROTATEDRECTD173*%

%ADD174R,0.045370X0.029000*%
%ADD175R,0.029000X0.045370*%
%ADD176R,0.054210X0.024690*%
%ADD177R,0.024690X0.054210*%
G04:AMPARAMS|DCode=179|XSize=45.37mil|YSize=29mil|CornerRadius=0mil|HoleSize=0mil|Usage=FLASHONLY|Rotation=135.000|XOffset=0mil|YOffset=0mil|HoleType=Round|Shape=Rectangle|*
%AMROTATEDRECTD179*
4,1,4,0.026294,-0.005788,0.005788,-0.026294,-0.026294,0.005788,-0.005788,0.026294,0.026294,-0.005788,0.0*
%
%ADD179ROTATEDRECTD179*%

%ADD181R,0.048307X0.069961*%
%ADD182R,0.063087X0.043402*%
%ADD183R,0.063087X0.045370*%
%ADD184R,0.055000X0.071142*%
%ADD187R,0.028622X0.036496*%
%ADD188R,0.045370X0.063087*%
%ADD189R,0.043402X0.063087*%
%TA.AperFunction,ViaPad*%
%ADD190C,0.241220*%
%TA.AperFunction,ComponentPad*%
%ADD191C,0.040430*%
%ADD192C,0.044370*%
%ADD193C,0.105000*%
%TA.AperFunction,ViaPad*%
%ADD194C,0.044370*%
%TA.AperFunction,SMDPad,CuDef*%
%ADD195R,0.032560X0.064060*%
%ADD196R,0.075870X0.060120*%
%ADD197R,0.060120X0.079800*%
G04:AMPARAMS|DCode=198|XSize=55.18mil|YSize=19.75mil|CornerRadius=0mil|HoleSize=0mil|Usage=FLASHONLY|Rotation=135.000|XOffset=0mil|YOffset=0mil|HoleType=Round|Shape=Rectangle|*
%AMROTATEDRECTD198*
4,1,4,0.026492,-0.012526,0.012526,-0.026492,-0.026492,0.012526,-0.012526,0.026492,0.026492,-0.012526,0.0*
%
%ADD198ROTATEDRECTD198*%

G04:AMPARAMS|DCode=199|XSize=33.559mil|YSize=29.622mil|CornerRadius=0mil|HoleSize=0mil|Usage=FLASHONLY|Rotation=45.000|XOffset=0mil|YOffset=0mil|HoleType=Round|Shape=Rectangle|*
%AMROTATEDRECTD199*
4,1,4,-0.001392,-0.022338,-0.022338,-0.001392,0.001392,0.022338,0.022338,0.001392,-0.001392,-0.022338,0.0*
%
%ADD199ROTATEDRECTD199*%

%ADD200R,0.123110X0.087677*%
%ADD201R,0.067992X0.036496*%
%ADD202R,0.064055X0.138858*%
%ADD203R,0.044370X0.142795*%
%ADD204R,0.069961X0.048307*%
%ADD205P,0.240917X4X90.0*%
%ADD206C,0.024685*%
%ADD207R,0.089000X0.089000*%
G04:AMPARAMS|DCode=208|XSize=19mil|YSize=37.465mil|CornerRadius=5.75mil|HoleSize=0mil|Usage=FLASHONLY|Rotation=90.000|XOffset=0mil|YOffset=0mil|HoleType=Round|Shape=RoundedRectangle|*
%AMROUNDEDRECTD208*
21,1,0.019000,0.025965,0,0,90.0*
21,1,0.007500,0.037465,0,0,90.0*
1,1,0.011500,0.012982,0.003750*
1,1,0.011500,0.012982,-0.003750*
1,1,0.011500,-0.012982,-0.003750*
1,1,0.011500,-0.012982,0.003750*
%
%ADD208ROUNDEDRECTD208*%
G04:AMPARAMS|DCode=209|XSize=19mil|YSize=37.465mil|CornerRadius=5.75mil|HoleSize=0mil|Usage=FLASHONLY|Rotation=0.000|XOffset=0mil|YOffset=0mil|HoleType=Round|Shape=RoundedRectangle|*
%AMROUNDEDRECTD209*
21,1,0.019000,0.025965,0,0,0.0*
21,1,0.007500,0.037465,0,0,0.0*
1,1,0.011500,0.003750,-0.012982*
1,1,0.011500,-0.003750,-0.012982*
1,1,0.011500,-0.003750,0.012982*
1,1,0.011500,0.003750,0.012982*
%
%ADD209ROUNDEDRECTD209*%
%ADD210R,0.040433X0.036496*%
%ADD211R,0.036496X0.028622*%
G36*
X-694490Y1224918D02*
X-694107Y1224826D01*
X-693743Y1224676D01*
X-693408Y1224470D01*
X-693109Y1224214D01*
X-692853Y1223915D01*
X-692647Y1223580D01*
X-692497Y1223216D01*
X-692405Y1222833D01*
X-692374Y1222441D01*
Y942913D01*
X-692405Y942521D01*
X-692497Y942138D01*
X-692647Y941775D01*
X-692853Y941439D01*
X-693109Y941140D01*
X-693408Y940885D01*
X-693743Y940679D01*
X-694107Y940528D01*
X-694490Y940437D01*
X-694882Y940406D01*
X-793307D01*
X-793699Y940437D01*
X-794082Y940528D01*
X-794446Y940679D01*
X-794781Y940885D01*
X-795080Y941140D01*
X-795336Y941439D01*
X-795541Y941775D01*
X-795692Y942138D01*
X-795784Y942521D01*
X-795815Y942913D01*
X-795815Y979527D01*
X-795810Y979590D01*
X-795812Y979654D01*
X-795794Y979788D01*
X-795784Y979920D01*
X-795769Y979981D01*
X-795761Y980044D01*
X-795723Y980172D01*
X-795692Y980302D01*
X-795668Y980361D01*
X-795650Y980421D01*
X-795593Y980541D01*
X-795542Y980666D01*
X-795509Y980720D01*
X-795481Y980777D01*
X-795406Y980888D01*
X-795336Y981001D01*
X-795295Y981049D01*
X-795259Y981102D01*
X-795167Y981199D01*
X-795080Y981301D01*
X-795032Y981342D01*
X-794989Y981388D01*
X-794884Y981469D01*
X-794781Y981556D01*
X-794726Y981590D01*
X-794677Y981628D01*
X-794561Y981691D01*
X-794446Y981762D01*
X-794387Y981786D01*
X-794332Y981816D01*
X-786930Y985130D01*
X-773003Y993331D01*
X-760479Y1003471D01*
X-749590Y1015352D01*
X-740578Y1028711D01*
X-733640Y1043257D01*
X-728929Y1058667D01*
X-726548Y1074606D01*
X-726549Y1090721D01*
X-728932Y1106659D01*
X-733646Y1122069D01*
X-740586Y1136613D01*
X-749600Y1149972D01*
X-760490Y1161851D01*
X-773016Y1171989D01*
X-786944Y1180188D01*
X-794346Y1183501D01*
X-794411Y1183536D01*
X-794477Y1183564D01*
X-794547Y1183608D01*
X-794614Y1183641D01*
X-794649Y1183666D01*
X-794692Y1183689D01*
X-794749Y1183734D01*
X-794811Y1183772D01*
X-794873Y1183826D01*
X-794934Y1183870D01*
X-794966Y1183900D01*
X-795003Y1183929D01*
X-795053Y1183982D01*
X-795109Y1184030D01*
X-795161Y1184093D01*
X-795215Y1184146D01*
X-795241Y1184181D01*
X-795274Y1184215D01*
X-795315Y1184275D01*
X-795362Y1184331D01*
X-795404Y1184400D01*
X-795449Y1184462D01*
X-795469Y1184501D01*
X-795496Y1184540D01*
X-795528Y1184606D01*
X-795565Y1184668D01*
X-795595Y1184743D01*
X-795630Y1184811D01*
X-795644Y1184852D01*
X-795665Y1184896D01*
X-795685Y1184965D01*
X-795713Y1185033D01*
X-795731Y1185112D01*
X-795755Y1185184D01*
X-795763Y1185228D01*
X-795776Y1185273D01*
X-795785Y1185345D01*
X-795802Y1185416D01*
X-795807Y1185496D01*
X-795820Y1185572D01*
X-795821Y1185618D01*
X-795826Y1185663D01*
X-795824Y1185735D01*
X-795830Y1185809D01*
X-795823Y1185888D01*
X-795823Y1185966D01*
X-795817Y1186011D01*
X-795815Y1186057D01*
X-795815Y1186060D01*
Y1222441D01*
X-795784Y1222833D01*
X-795692Y1223216D01*
X-795541Y1223580D01*
X-795336Y1223915D01*
X-795080Y1224214D01*
X-794781Y1224470D01*
X-794446Y1224675D01*
X-794082Y1224826D01*
X-793699Y1224918D01*
X-793307Y1224949D01*
X-694882Y1224949D01*
X-694490Y1224918D01*
D02*
G37*
G36*
X-875592Y1224918D02*
X-875209Y1224826D01*
X-874846Y1224675D01*
X-874510Y1224470D01*
X-874211Y1224214D01*
X-873955Y1223915D01*
X-873750Y1223580D01*
X-873599Y1223216D01*
X-873507Y1222833D01*
X-873476Y1222441D01*
Y1186059D01*
X-873476Y1186057D01*
X-873475Y1186014D01*
X-873468Y1185968D01*
X-873469Y1185889D01*
X-873462Y1185809D01*
X-873467Y1185735D01*
X-873465Y1185663D01*
X-873471Y1185620D01*
X-873471Y1185575D01*
X-873484Y1185495D01*
X-873490Y1185417D01*
X-873506Y1185345D01*
X-873516Y1185273D01*
X-873528Y1185231D01*
X-873535Y1185187D01*
X-873561Y1185110D01*
X-873579Y1185033D01*
X-873606Y1184966D01*
X-873627Y1184896D01*
X-873646Y1184856D01*
X-873660Y1184813D01*
X-873697Y1184742D01*
X-873726Y1184669D01*
Y1184668D01*
X-873764Y1184606D01*
X-873795Y1184540D01*
X-873821Y1184503D01*
X-873841Y1184464D01*
X-873888Y1184400D01*
X-873930Y1184331D01*
X-873976Y1184276D01*
X-874018Y1184215D01*
X-874048Y1184183D01*
X-874075Y1184147D01*
X-874131Y1184092D01*
X-874183Y1184030D01*
X-874238Y1183982D01*
X-874288Y1183929D01*
X-874324Y1183902D01*
X-874355Y1183871D01*
X-874418Y1183826D01*
X-874480Y1183772D01*
X-874543Y1183733D01*
X-874600Y1183689D01*
X-874640Y1183667D01*
X-874675Y1183642D01*
X-874745Y1183607D01*
X-874814Y1183564D01*
X-874881Y1183536D01*
X-874945Y1183501D01*
X-882348Y1180188D01*
X-896275Y1171989D01*
X-908802Y1161851D01*
X-919692Y1149972D01*
X-928706Y1136613D01*
X-935646Y1122069D01*
X-940359Y1106659D01*
X-942743Y1090721D01*
X-942744Y1074606D01*
X-940362Y1058667D01*
X-935651Y1043257D01*
X-928713Y1028711D01*
X-919701Y1015352D01*
X-908813Y1003471D01*
X-896289Y993331D01*
X-882361Y985130D01*
X-874960Y981816D01*
X-874905Y981786D01*
X-874846Y981762D01*
X-874730Y981691D01*
X-874614Y981628D01*
X-874565Y981590D01*
X-874510Y981556D01*
X-874408Y981469D01*
X-874303Y981388D01*
X-874259Y981342D01*
X-874211Y981301D01*
X-874125Y981199D01*
X-874032Y981102D01*
X-873996Y981049D01*
X-873956Y981001D01*
X-873886Y980888D01*
X-873810Y980777D01*
X-873783Y980720D01*
X-873750Y980666D01*
X-873698Y980541D01*
X-873641Y980421D01*
X-873624Y980361D01*
X-873599Y980302D01*
X-873568Y980172D01*
X-873530Y980044D01*
X-873522Y979981D01*
X-873508Y979920D01*
X-873497Y979788D01*
X-873480Y979654D01*
X-873481Y979590D01*
X-873477Y979527D01*
Y942913D01*
X-873508Y942521D01*
X-873599Y942138D01*
X-873750Y941775D01*
X-873956Y941439D01*
X-874211Y941140D01*
X-874510Y940884D01*
X-874846Y940679D01*
X-875209Y940528D01*
X-875592Y940436D01*
X-875984Y940405D01*
X-974409Y940406D01*
X-974802Y940437D01*
X-975184Y940528D01*
X-975548Y940679D01*
X-975884Y940885D01*
X-976183Y941140D01*
X-976438Y941439D01*
X-976644Y941775D01*
X-976794Y942138D01*
X-976886Y942521D01*
X-976917Y942913D01*
Y1222441D01*
X-976886Y1222833D01*
X-976794Y1223216D01*
X-976644Y1223580D01*
X-976438Y1223915D01*
X-976183Y1224214D01*
X-975884Y1224470D01*
X-975548Y1224675D01*
X-975184Y1224826D01*
X-974802Y1224918D01*
X-974409Y1224949D01*
X-875984D01*
X-875592Y1224918D01*
D02*
G37*
G36*
X-181245Y375858D02*
X-230743Y326360D01*
X-308525Y404142D01*
X-259027Y453640D01*
X-181245Y375858D01*
D02*
G37*
G36*
X-256360Y305858D02*
X-305858Y256360D01*
X-383640Y334142D01*
X-334142Y383640D01*
X-256360Y305858D01*
D02*
G37*
G36*
X336568Y274142D02*
X265858Y203431D01*
X223431Y245858D01*
X294142Y316568D01*
X336568Y274142D01*
D02*
G37*
G36*
X-322538Y236551D02*
X-372035Y187053D01*
X-449817Y264835D01*
X-400320Y314332D01*
X-322538Y236551D01*
D02*
G37*
G36*
X-1005192Y102871D02*
X-1004809Y102779D01*
X-1004445Y102628D01*
X-1004110Y102422D01*
X-1003811Y102167D01*
X-1003555Y101868D01*
X-1003350Y101532D01*
X-1003199Y101169D01*
X-1003107Y100786D01*
X-1003076Y100394D01*
X-1003076Y-179134D01*
X-1003107Y-179526D01*
X-1003199Y-179909D01*
X-1003349Y-180273D01*
X-1003555Y-180608D01*
X-1003811Y-180907D01*
X-1004110Y-181163D01*
X-1004445Y-181369D01*
X-1004809Y-181519D01*
X-1005192Y-181611D01*
X-1005584Y-181642D01*
X-1104009D01*
X-1104401Y-181611D01*
X-1104784Y-181519D01*
X-1105148Y-181369D01*
X-1105483Y-181163D01*
X-1105782Y-180907D01*
X-1106038Y-180608D01*
X-1106244Y-180273D01*
X-1106394Y-179909D01*
X-1106486Y-179526D01*
X-1106517Y-179134D01*
X-1106517Y-142752D01*
X-1106517Y-142750D01*
X-1106519Y-142705D01*
X-1106526Y-142659D01*
X-1106525Y-142570D01*
X-1106532Y-142483D01*
Y-142483D01*
X-1106527Y-142420D01*
X-1106528Y-142356D01*
X-1106523Y-142312D01*
X-1106522Y-142265D01*
X-1106508Y-142178D01*
X-1106501Y-142091D01*
X-1106486Y-142029D01*
X-1106478Y-141966D01*
X-1106465Y-141922D01*
X-1106457Y-141877D01*
X-1106430Y-141794D01*
X-1106409Y-141708D01*
X-1106385Y-141649D01*
X-1106367Y-141589D01*
X-1106347Y-141547D01*
X-1106333Y-141504D01*
X-1106293Y-141427D01*
X-1106258Y-141345D01*
X-1106225Y-141290D01*
X-1106198Y-141233D01*
X-1106172Y-141195D01*
X-1106151Y-141155D01*
X-1106099Y-141084D01*
X-1106053Y-141009D01*
X-1106012Y-140961D01*
X-1105976Y-140909D01*
X-1105944Y-140875D01*
X-1105917Y-140839D01*
X-1105855Y-140777D01*
X-1105797Y-140710D01*
X-1105749Y-140669D01*
X-1105705Y-140623D01*
X-1105669Y-140594D01*
X-1105637Y-140562D01*
X-1105565Y-140512D01*
X-1105498Y-140454D01*
X-1105444Y-140421D01*
X-1105394Y-140382D01*
X-1105353Y-140360D01*
X-1105316Y-140334D01*
X-1105239Y-140296D01*
X-1105162Y-140249D01*
X-1105104Y-140224D01*
X-1105048Y-140194D01*
X-1097646Y-136882D01*
X-1083718Y-128683D01*
X-1071192Y-118544D01*
X-1060302Y-106665D01*
X-1051288Y-93306D01*
X-1044348Y-78762D01*
X-1039634Y-63352D01*
X-1037251Y-47414D01*
X-1037250Y-31299D01*
X-1039631Y-15360D01*
X-1044342Y50D01*
X-1051280Y14595D01*
X-1060292Y27955D01*
X-1071181Y39836D01*
X-1083705Y49976D01*
X-1097632Y58177D01*
X-1105034Y61491D01*
X-1105089Y61521D01*
X-1105148Y61545D01*
X-1105263Y61616D01*
X-1105379Y61679D01*
X-1105428Y61717D01*
X-1105483Y61751D01*
X-1105586Y61838D01*
X-1105691Y61919D01*
X-1105734Y61965D01*
X-1105782Y62006D01*
X-1105869Y62108D01*
X-1105961Y62205D01*
X-1105997Y62258D01*
X-1106038Y62306D01*
X-1106108Y62419D01*
X-1106184Y62530D01*
X-1106211Y62587D01*
X-1106244Y62641D01*
X-1106295Y62766D01*
X-1106352Y62886D01*
X-1106370Y62946D01*
X-1106394Y63005D01*
X-1106425Y63135D01*
X-1106463Y63263D01*
X-1106471Y63326D01*
X-1106486Y63387D01*
X-1106496Y63519D01*
X-1106514Y63653D01*
X-1106512Y63717D01*
X-1106517Y63779D01*
Y100394D01*
X-1106486Y100786D01*
X-1106394Y101169D01*
X-1106244Y101532D01*
X-1106038Y101868D01*
X-1105782Y102167D01*
X-1105483Y102422D01*
X-1105148Y102628D01*
X-1104784Y102779D01*
X-1104401Y102871D01*
X-1104009Y102901D01*
X-1005584D01*
X-1005192Y102871D01*
D02*
G37*
G36*
X-1186294D02*
X-1185911Y102779D01*
X-1185548Y102628D01*
X-1185212Y102422D01*
X-1184913Y102167D01*
X-1184658Y101868D01*
X-1184452Y101532D01*
X-1184301Y101169D01*
X-1184210Y100786D01*
X-1184179Y100394D01*
Y63779D01*
X-1184184Y63717D01*
X-1184182Y63653D01*
X-1184199Y63519D01*
X-1184210Y63387D01*
X-1184224Y63326D01*
X-1184232Y63263D01*
X-1184270Y63135D01*
X-1184301Y63005D01*
X-1184326Y62946D01*
X-1184343Y62886D01*
X-1184400Y62766D01*
X-1184452Y62641D01*
X-1184485Y62587D01*
X-1184512Y62530D01*
X-1184588Y62419D01*
X-1184658Y62306D01*
X-1184698Y62258D01*
X-1184734Y62205D01*
X-1184827Y62108D01*
X-1184913Y62006D01*
X-1184961Y61965D01*
X-1185005Y61919D01*
X-1185110Y61838D01*
X-1185212Y61751D01*
X-1185267Y61717D01*
X-1185316Y61679D01*
X-1185432Y61616D01*
X-1185548Y61545D01*
X-1185607Y61521D01*
X-1185662Y61491D01*
X-1193063Y58177D01*
X-1206991Y49976D01*
X-1219515Y39836D01*
X-1230403Y27955D01*
X-1239415Y14595D01*
X-1246353Y50D01*
X-1251064Y-15360D01*
X-1253446Y-31299D01*
X-1253445Y-47414D01*
X-1251061Y-63352D01*
X-1246348Y-78762D01*
X-1239408Y-93306D01*
X-1230394Y-106665D01*
X-1219504Y-118544D01*
X-1206977Y-128683D01*
X-1193050Y-136882D01*
X-1185647Y-140194D01*
X-1185592Y-140224D01*
X-1185533Y-140249D01*
X-1185452Y-140298D01*
X-1185369Y-140340D01*
X-1185337Y-140363D01*
X-1185302Y-140382D01*
X-1185252Y-140421D01*
X-1185198Y-140454D01*
X-1185126Y-140515D01*
X-1185050Y-140570D01*
X-1185022Y-140598D01*
X-1184990Y-140623D01*
X-1184947Y-140669D01*
X-1184898Y-140710D01*
X-1184898Y-140710D01*
X-1184838Y-140781D01*
X-1184771Y-140847D01*
X-1184747Y-140880D01*
X-1184720Y-140909D01*
X-1184684Y-140960D01*
X-1184643Y-141009D01*
X-1184594Y-141089D01*
X-1184538Y-141165D01*
X-1184520Y-141201D01*
X-1184497Y-141233D01*
X-1184471Y-141290D01*
X-1184437Y-141345D01*
X-1184401Y-141432D01*
X-1184358Y-141515D01*
X-1184345Y-141554D01*
X-1184329Y-141589D01*
X-1184311Y-141648D01*
X-1184286Y-141708D01*
X-1184264Y-141800D01*
X-1184235Y-141889D01*
X-1184229Y-141929D01*
X-1184218Y-141966D01*
X-1184210Y-142027D01*
X-1184195Y-142091D01*
X-1184187Y-142185D01*
X-1184172Y-142277D01*
X-1184172Y-142318D01*
X-1184167Y-142356D01*
X-1184169Y-142418D01*
X-1184164Y-142483D01*
X-1184171Y-142577D01*
X-1184171Y-142671D01*
X-1184177Y-142712D01*
X-1184178Y-142750D01*
X-1184179Y-142752D01*
X-1184179Y-179134D01*
X-1184209Y-179526D01*
X-1184301Y-179909D01*
X-1184452Y-180273D01*
X-1184658Y-180608D01*
X-1184913Y-180907D01*
X-1185212Y-181163D01*
X-1185548Y-181369D01*
X-1185911Y-181519D01*
X-1186294Y-181611D01*
X-1186686Y-181642D01*
X-1285112D01*
X-1285504Y-181611D01*
X-1285887Y-181519D01*
X-1286250Y-181369D01*
X-1286586Y-181163D01*
X-1286885Y-180907D01*
X-1287140Y-180608D01*
X-1287346Y-180273D01*
X-1287497Y-179909D01*
X-1287588Y-179526D01*
X-1287619Y-179134D01*
Y100394D01*
X-1287588Y100786D01*
X-1287497Y101169D01*
X-1287346Y101532D01*
X-1287140Y101868D01*
X-1286885Y102167D01*
X-1286586Y102422D01*
X-1286250Y102628D01*
X-1285887Y102779D01*
X-1285504Y102871D01*
X-1285112Y102901D01*
X-1186686D01*
X-1186294Y102871D01*
D02*
G37*
G36*
X-655319Y-704606D02*
X-725319D01*
Y-594606D01*
X-655319D01*
Y-704606D01*
D02*
G37*
G36*
X-609449Y-1180282D02*
X-709449D01*
Y-1120282D01*
X-609449D01*
Y-1180282D01*
D02*
G37*
D10*
X-1675000Y-1388780D02*
G03*
X-1388780Y-1675000I286221J0D01*
G01*
Y1675000D02*
G03*
X-1675000Y1388780I0J-286221D01*
G01*
X1388780Y-1675000D02*
G03*
X1675000Y-1388780I0J286221D01*
G01*
Y1388780D02*
G03*
X1388780Y1675000I-286221J0D01*
G01*
X-1389022Y1676379D02*
X-424455D01*
X424455Y1673621D02*
X1389022D01*
X-1675000Y-1388780D02*
Y1388780D01*
X-1388780Y-1675000D02*
X1388780D01*
X1675000Y-1388780D02*
Y1388780D01*
D11*
X-696949Y-1053331D02*
D03*
X-1200787Y-679134D02*
D03*
X-921212Y-1148890D02*
D03*
X-742985Y-975702D02*
D03*
X-1200787Y-866142D02*
D03*
X-963671Y1308934D02*
D03*
X778942Y773490D02*
D03*
X653543Y767716D02*
D03*
X715950Y704438D02*
D03*
X-578740Y-192913D02*
D03*
X-264641Y739455D02*
D03*
X148104Y741321D02*
D03*
X-41735Y1185200D02*
D03*
X96457Y1051657D02*
D03*
X525000Y-1092520D02*
D03*
X-906393Y-295276D02*
D03*
X-870010Y-191499D02*
D03*
X-946718Y-191129D02*
D03*
X-1248032Y224409D02*
D03*
X-920290Y381143D02*
D03*
X-672058Y269837D02*
D03*
X-1448819Y893701D02*
D03*
X-807087Y629921D02*
D03*
X-1338583Y1021193D02*
D03*
X-1106711Y669291D02*
D03*
X228699Y-120000D02*
D03*
X-260000Y-96022D02*
D03*
X0Y260000D02*
D03*
X201079Y187589D02*
D03*
D37*
X-689449Y-1150282D02*
D03*
X-629449D02*
D03*
D45*
X-690319Y-619606D02*
D03*
Y-679606D02*
D03*
D53*
X-364964Y229480D02*
D03*
X-407391Y271906D02*
D03*
X-298787Y298787D02*
D03*
X-341213Y341213D02*
D03*
X-223672Y368787D02*
D03*
X-266098Y411213D02*
D03*
D65*
X-659449Y-1150282D02*
D03*
D96*
X-170079Y1614173D02*
D03*
X170079D02*
D03*
D97*
X-170079Y1403150D02*
D03*
X170079D02*
D03*
D104*
X121450Y-765776D02*
D03*
D107*
X-155554Y977496D02*
D03*
D114*
X-1237470Y-756299D02*
D03*
X-1205974D02*
D03*
X-1236220Y-802165D02*
D03*
X-1204724D02*
D03*
D118*
X-1075711Y-1034765D02*
D03*
X-1038129Y-1072347D02*
D03*
D120*
X-1460630Y-503937D02*
D03*
Y-283465D02*
D03*
X1460630Y-503937D02*
D03*
Y-283464D02*
D03*
D121*
X-1308071Y-452756D02*
D03*
Y-334646D02*
D03*
X-1308071Y-413386D02*
D03*
X-1308071Y-374016D02*
D03*
X1308071Y-452756D02*
D03*
X1308071Y-413386D02*
D03*
Y-374016D02*
D03*
X1308071Y-334646D02*
D03*
D130*
X-1189388Y751819D02*
D03*
Y881740D02*
D03*
Y942764D02*
D03*
Y1072685D02*
D03*
X-763779Y206693D02*
D03*
X-763779Y336614D02*
D03*
Y13779D02*
D03*
Y143701D02*
D03*
D133*
X-188961Y1024822D02*
D03*
X-175042Y1038742D02*
D03*
X-202880Y1010903D02*
D03*
X-216800Y996983D02*
D03*
X-136067Y916251D02*
D03*
X-122148Y930170D02*
D03*
X-108229Y944090D02*
D03*
X-94309Y958009D02*
D03*
D134*
X-155554Y977496D02*
D03*
D135*
X-94309Y996984D02*
D03*
X-108228Y1010903D02*
D03*
X-122148Y1024822D02*
D03*
X-136067Y1038742D02*
D03*
X-216800Y958009D02*
D03*
X-202881Y944090D02*
D03*
X-188961Y930170D02*
D03*
X-175042Y916251D02*
D03*
D136*
X-19491Y828167D02*
D03*
X30619Y778057D02*
D03*
D137*
X301213Y281213D02*
D03*
X258787Y238787D02*
D03*
D138*
X280000Y260000D02*
D03*
D150*
X1261535Y1147720D02*
D03*
X1300905D02*
D03*
X-1269095Y-1139767D02*
D03*
X-1308465D02*
D03*
X1270314Y-1104094D02*
D03*
X1309684D02*
D03*
X-1311715Y1100000D02*
D03*
X-1272345D02*
D03*
D151*
X-311496Y1590000D02*
D03*
X-248504D02*
D03*
X302949D02*
D03*
X239957D02*
D03*
X431496Y-1180000D02*
D03*
X368504D02*
D03*
X-883285Y688976D02*
D03*
X-946278D02*
D03*
X-1090551Y421260D02*
D03*
X-1027559D02*
D03*
Y362205D02*
D03*
X-1090551D02*
D03*
X778942Y860000D02*
D03*
X715950D02*
D03*
D152*
X-137729Y287729D02*
D03*
X-182271Y332271D02*
D03*
X-217729Y212132D02*
D03*
X-262271Y256674D02*
D03*
X-287729Y137729D02*
D03*
X-332271Y182271D02*
D03*
X-104396Y234403D02*
D03*
X-59853Y189861D02*
D03*
X41977Y1190963D02*
D03*
X-2565Y1235505D02*
D03*
X110572Y1122368D02*
D03*
X155114Y1077825D02*
D03*
D153*
X122271Y282271D02*
D03*
X77729Y237729D02*
D03*
X162271Y242271D02*
D03*
X117729Y197729D02*
D03*
X-220099Y859680D02*
D03*
X-264641Y815138D02*
D03*
X-14592Y1122368D02*
D03*
X-59134Y1077825D02*
D03*
X27835Y1051657D02*
D03*
X-16707Y1007115D02*
D03*
D154*
X-858268Y305118D02*
D03*
Y368110D02*
D03*
Y251136D02*
D03*
Y188144D02*
D03*
D155*
X-1320866Y-932087D02*
D03*
X-1328740Y-679134D02*
D03*
X-1320866Y-892717D02*
D03*
X-1328740Y-718504D02*
D03*
X-1110943Y760836D02*
D03*
Y721466D02*
D03*
Y837402D02*
D03*
Y798032D02*
D03*
X-1104327Y-1269095D02*
D03*
Y-1308465D02*
D03*
X-1117720Y1320906D02*
D03*
Y1281535D02*
D03*
X1102047Y1320905D02*
D03*
Y1281535D02*
D03*
X1139767Y-1306435D02*
D03*
Y-1267065D02*
D03*
D156*
X-1092421Y-847685D02*
D03*
X-1068758Y-871907D02*
D03*
X-761081Y-1107033D02*
D03*
X-791219Y-1077802D02*
D03*
X-841329Y-965959D02*
D03*
X-869168Y-993798D02*
D03*
X-819058Y-1105641D02*
D03*
X-788919Y-1134871D02*
D03*
X-1120260Y-875524D02*
D03*
X-1096597Y-899746D02*
D03*
D164*
X-81428Y-81428D02*
D03*
X135715Y27143D02*
D03*
X117619Y45238D02*
D03*
X99524Y63334D02*
D03*
X81429Y81429D02*
D03*
X63334Y99524D02*
D03*
X45238Y117619D02*
D03*
X27143Y135714D02*
D03*
X-135714Y-27143D02*
D03*
X-117619Y-45238D02*
D03*
X-99524Y-63333D02*
D03*
X-63333Y-99524D02*
D03*
X-45238Y-117619D02*
D03*
X-27143Y-135714D02*
D03*
D165*
X27143D02*
D03*
X45238Y-117619D02*
D03*
X63334Y-99524D02*
D03*
X81429Y-81428D02*
D03*
X99524Y-63333D02*
D03*
X117619Y-45238D02*
D03*
X135714Y-27143D02*
D03*
X-27143Y135714D02*
D03*
X-45238Y117619D02*
D03*
X-63333Y99524D02*
D03*
X-81428Y81429D02*
D03*
X-99524Y63334D02*
D03*
X-117619Y45238D02*
D03*
X-135714Y27143D02*
D03*
D173*
X96457Y1176848D02*
D03*
X56091Y1136482D02*
D03*
D174*
X-937008Y36842D02*
D03*
X-937008Y99835D02*
D03*
X-634431Y-167618D02*
D03*
Y-104626D02*
D03*
X-1020096Y946701D02*
D03*
X-1020096Y1009693D02*
D03*
D175*
X-897265Y-114299D02*
D03*
X-960257D02*
D03*
X-1181102Y224409D02*
D03*
X-1118110Y224409D02*
D03*
X-811435Y832528D02*
D03*
X-874427D02*
D03*
D176*
X1367970Y1181180D02*
D03*
X1367970Y1147720D02*
D03*
Y1112280D02*
D03*
X1367970Y1078820D02*
D03*
X-1376750Y-1173227D02*
D03*
X-1376750Y-1139767D02*
D03*
Y-1104327D02*
D03*
X-1376750Y-1070867D02*
D03*
X1376749Y-1070867D02*
D03*
Y-1104327D02*
D03*
Y-1139767D02*
D03*
Y-1173227D02*
D03*
X-1380000Y1168900D02*
D03*
Y1135440D02*
D03*
X-1380000Y1100000D02*
D03*
X-1380000Y1066540D02*
D03*
D177*
X-1070867Y-1376750D02*
D03*
X-1104327D02*
D03*
X-1139767D02*
D03*
X-1173227D02*
D03*
X-1048820Y1387970D02*
D03*
X-1082280D02*
D03*
X-1117720D02*
D03*
X-1151180D02*
D03*
X1171180D02*
D03*
X1137720D02*
D03*
X1102280D02*
D03*
X1068820D02*
D03*
X1070867Y-1376750D02*
D03*
X1104327D02*
D03*
X1139767D02*
D03*
X1173227Y-1376750D02*
D03*
D179*
X-101560Y837409D02*
D03*
X-57018Y881951D02*
D03*
X27835Y966804D02*
D03*
X-16707Y922262D02*
D03*
X-202271Y-202271D02*
D03*
X-157729Y-157729D02*
D03*
X-242271Y-162271D02*
D03*
X-197729Y-117729D02*
D03*
D181*
X1183602Y1060000D02*
D03*
X1071398D02*
D03*
D182*
X-870079Y27843D02*
D03*
X-1087025Y1005756D02*
D03*
X-697423Y-161667D02*
D03*
D183*
X-870079Y90835D02*
D03*
X-1087025Y942764D02*
D03*
X-697423Y-98675D02*
D03*
D184*
X-350000Y-1281693D02*
D03*
X-250000Y-1281693D02*
D03*
X350000Y-1281693D02*
D03*
X950000Y-1495866D02*
D03*
Y-1281693D02*
D03*
X750000Y-1495866D02*
D03*
Y-1281693D02*
D03*
X650000Y-1495866D02*
D03*
Y-1281693D02*
D03*
X550000Y-1495866D02*
D03*
Y-1281693D02*
D03*
X450000Y-1495866D02*
D03*
Y-1281693D02*
D03*
X350000Y-1495866D02*
D03*
X250000D02*
D03*
X150000Y-1495866D02*
D03*
X50000D02*
D03*
X-50000D02*
D03*
Y-1281693D02*
D03*
X-150000Y-1495866D02*
D03*
Y-1281693D02*
D03*
X-250000Y-1495866D02*
D03*
X-350000Y-1495866D02*
D03*
X-450000D02*
D03*
Y-1281693D02*
D03*
X-550000Y-1495866D02*
D03*
Y-1281693D02*
D03*
X-650000Y-1495866D02*
D03*
X-650000Y-1281693D02*
D03*
X-750000Y-1495866D02*
D03*
Y-1281693D02*
D03*
X-850000Y-1495866D02*
D03*
Y-1281693D02*
D03*
X-950000Y-1495866D02*
D03*
Y-1281693D02*
D03*
X50000D02*
D03*
X150000D02*
D03*
X250000D02*
D03*
X850000D02*
D03*
Y-1495866D02*
D03*
D187*
X-991142Y688976D02*
D03*
X-1048228D02*
D03*
D188*
X-1188976Y161417D02*
D03*
X-803561Y895520D02*
D03*
D189*
X-1125984Y161417D02*
D03*
X-866553Y895520D02*
D03*
D190*
X1388780Y-1388780D02*
D03*
X-1388780Y1388780D02*
D03*
Y-1388780D02*
D03*
X1388780Y1388780D02*
D03*
D191*
X-1388780Y656880D02*
D03*
Y775000D02*
D03*
D192*
X-545271Y1400590D02*
D03*
X-610236Y1388780D02*
D03*
X570866Y1417323D02*
D03*
X635831Y1429133D02*
D03*
D193*
X1270000Y-790000D02*
D03*
Y-590000D02*
D03*
X1470000D02*
D03*
Y-790000D02*
D03*
D194*
X-1016037Y851575D02*
D03*
Y812205D02*
D03*
X-976667D02*
D03*
Y851575D02*
D03*
X-968504Y204724D02*
D03*
Y244094D02*
D03*
X-1007874D02*
D03*
Y204724D02*
D03*
D195*
X753740Y1336573D02*
D03*
X710430Y1320823D02*
D03*
X623820Y1352323D02*
D03*
X537210D02*
D03*
X450590Y1336573D02*
D03*
X667130D02*
D03*
X580510D02*
D03*
X493900D02*
D03*
D196*
X714370Y934993D02*
D03*
X478150D02*
D03*
D197*
X934840Y1486173D02*
D03*
X415160Y1450743D02*
D03*
D198*
X-897549Y-1018056D02*
D03*
X-951840Y-1072347D02*
D03*
X-1038129Y-913665D02*
D03*
X-933745Y-1054253D02*
D03*
X-1056230Y-931767D02*
D03*
X-1020034Y-895571D02*
D03*
X-1074325Y-949862D02*
D03*
X-915644Y-1036151D02*
D03*
D199*
X-819058Y-1168377D02*
D03*
X-898399Y-1091721D02*
D03*
X-870560Y-1119560D02*
D03*
X-846897Y-1140538D02*
D03*
D200*
X-1435039Y-902559D02*
D03*
Y-652559D02*
D03*
D201*
X-1320866Y-802165D02*
D03*
Y-752953D02*
D03*
D202*
X1157480Y696850D02*
D03*
X1421260D02*
D03*
D203*
X1250000Y923228D02*
D03*
X1328740D02*
D03*
D204*
X-1318898Y813976D02*
D03*
Y926181D02*
D03*
X-656124Y146937D02*
D03*
Y34732D02*
D03*
D205*
X0Y0D02*
D03*
D206*
X-960630Y1082677D02*
D03*
X-708661Y1082677D02*
D03*
X-1271332Y-39370D02*
D03*
X-1019364Y-39370D02*
D03*
D207*
X-996352Y831890D02*
D03*
X-988189Y224409D02*
D03*
D208*
X-1074108Y869889D02*
D03*
Y844890D02*
D03*
X-1074108Y818890D02*
D03*
X-1074108Y793889D02*
D03*
X-918596Y793889D02*
D03*
X-918596Y818889D02*
D03*
Y844889D02*
D03*
X-918596Y869890D02*
D03*
X-910433Y186409D02*
D03*
Y211409D02*
D03*
Y237409D02*
D03*
Y262409D02*
D03*
X-1065945D02*
D03*
Y237409D02*
D03*
Y211409D02*
D03*
Y186409D02*
D03*
D209*
X-1034352Y754134D02*
D03*
X-1009352Y754134D02*
D03*
X-983352D02*
D03*
X-958352D02*
D03*
X-958352Y906889D02*
D03*
X-983352Y906890D02*
D03*
X-1009352Y906889D02*
D03*
X-1034352Y906890D02*
D03*
X-950189Y302165D02*
D03*
X-975189D02*
D03*
X-1001189D02*
D03*
X-1026189D02*
D03*
Y149409D02*
D03*
X-1001189D02*
D03*
X-975189D02*
D03*
X-950189Y149409D02*
D03*
D210*
X-843092Y-130171D02*
D03*
X-764352Y-167572D02*
D03*
Y-92769D02*
D03*
D211*
X-972441Y353346D02*
D03*
Y410433D02*
D03*
%TF.MD5,778fb81d07bd9466b6567a408be3d3a7*%
M02*
