M48
;Layer_Color=9474304
;FILE_FORMAT=2:5
INCH,LZ
;TYPE=PLATED
T01F00S00C0.01181
T02F00S00C0.01200
T03F00S00C0.01299
T04F00S00C0.01600
T05F00S00C0.02362
T07F00S00C0.02800
T08F00S00C0.06300
T09F00S00C0.17717
;TYPE=NON_PLATED
T10F00S00C0.03543
T11F00S00C0.03937
%
T01
X0012145Y-0076578
T02
X-0115354Y0005
X-0112961Y0042224
X-0106299Y0043307
X-0097954Y0058202
Y0064662
X-0104472Y0065342
X-00873Y0064662
X-0119291Y0074803
X-0129921
X-0066142Y0109382
X-0071113Y0135335
X-0091088Y0136811
X-0096457Y0137795
X-0108228Y0125
X-0111772
T03
X-0015555Y009775
T04
X-0147Y-0122
X-0142035Y-0113977
X-0133Y-0117323
Y-0107087
X-0124016Y-0110433
X-0119794Y-0113977
X-0117323Y-0119913
X-0113977Y-0124016
X-0110433
X-0107087Y-0132323
X-0117323
X-0113977Y-0144045
Y-01546
X-0095006Y-014397
X-0085005
X-0075006
X-0065005
X-0055006
X-0055Y-0133376
X-0051Y-0137
X-0065Y-0133376
X-0075
X-0085
X-0095
X-008515Y-008215
X-0086Y-0074
X-00831Y-0067
X-0085616Y-005825
X-0076Y-006
Y-0054
X-0068Y-0061854
X-0060088
X-0088559Y-0046
X-0100337Y-0048236
X-0106477Y-0073622
X-0126969Y-0091535
X-0130464Y-0058252
X-0142066Y-0064488
X-0046Y-0095
Y-00983
X-0042913Y-0080315
X-0022597Y-007805
X-0014797Y-0087601
Y-0095
Y-00983
X-0003986Y-0098578
X0000377Y-0094416
X-0002953Y-0108416
X-0005Y-0133376
X0005
X0015
X0025
X0035
X0045
X0055
X0065
X0075
X0085
X0095
X0094994Y-014397
X0084995
X0074994
X0064995
X0054994
X0044995
X0034995
X0024994
X0014995
X0004995
X-0005006
X-0009Y-0142
X-0013Y-0141
X-0015006Y-014397
X-0025005
X-0035006
X-0035Y-0133376
X-0040244Y-0135923
X-0045Y-0133376
X-0025
X-0015
X-003681Y-0113
X-004Y-0114693
X-0003986Y-0074082
X-0003Y-0062424
X0001Y-0058
X0005413Y-0047428
X0026884Y-0050379
Y-0054578
X0026195Y-0063365
X0026145Y-0069648
X0040707Y-0073044
X0043512Y-007637
X0040616Y-0082929
X0037Y-0082385
X003299
X002406Y-0088609
X0026145Y-0092546
Y-0097441
X003685Y-011415
X0050097Y-0102774
X0047244Y-0052679
X0050197Y-0047244
X0071544Y-0064356
X0087118Y-0069447
X0093433
X0094745Y-0059055
X0098795Y-0058126
X0105047Y-0058126
X0110398Y-0064126
X0104005Y-0074709
X0088398Y-0048126
X0101197Y-0128169
X0107087Y-0133087
X0110433Y-0123031
X-0009855Y-0065727
X0120791Y-0087398
X0118957Y-0103053
X0124016Y-0110236
Y-0113977
X0133315Y-0117323
X0145Y-0107
X0113977Y-0123031
X0117323Y-0132904
X0122Y-0137675
X0113977Y-0143128
X0137795Y-0045669
X0137166Y-0037402
X0137324Y-0033781
X0124865Y-0037733
X0125Y-0016
Y-0009932
X0128Y-0012795
X0133661Y-0019754
X0138728Y-0004921
X0139Y000689
Y0010827
X0133601Y005
X0129Y0048228
X0125941Y0052095
Y0057114
Y0061445
X0128291Y007259
X012259
X0120472Y0088
X0117236
X0114
Y0092323
X0117236
X0120472
Y0097
X0117236
X0114
X012Y0106
X0125984Y0106299
X0132905Y0103
X0132874Y009844
Y0092323
X0138167Y0103118
X0112289Y0048228
X0113189Y-0015748
Y-0019048
X0106299Y0061024
Y0094488
X0102362
Y0098425
Y0102362
Y0106299
Y0110236
X0106299
X0110236
Y0106299
Y0102362
X0106299
Y0106299
Y0098425
X0082421Y0086
X0078Y009
X0064383Y008134
X0049Y0079
X0053259Y0092463
X0054Y0096
X0047936Y0098
X006255
X0059427Y0104542
X0031004Y0098
X0029452Y008426
X0026152
X0021293Y0077292
Y0091735
X0010133Y0092805
X0004175Y0095288
X-0001364Y0096112
X-0006237Y0099808
X-0009524Y0110066
X-0013575Y0106965
X0006213Y0108596
X0016513Y0099809
X0001Y0080014
X-0000445Y0074716
X-0002713Y0071159
X0005895Y0071431
X0003062Y0063976
X0013575Y0065303
X0030036
X002957Y0061577
X0041167Y0064166
X0044Y0066
X0033376Y0074132
X0030036Y0042323
X0033465Y0031496
X0038569Y0030431
X003937Y0025591
X0042323Y0023622
X0046Y0022
X0049Y002
X0052Y0017
X0055Y0014
X0052165Y0039115
X0042913Y0044882
X0067679Y0048
X0065945Y0033465
X0019Y0027
X-0008408Y0029528
X-0001969Y0036417
X-0001149Y0044184
X-0003Y0047
X0006Y0048
X-0011811Y0041339
X-0008764Y0065945
X-0022638Y0063976
X-0027559Y0065945
X-0018341Y0076
X-0005Y0079
X-0035609Y0096457
Y0104
X-0044593Y0046165
X-0041701Y0042996
X-0037402Y0030512
X-0041229Y0009768
X-0038386Y0004921
X-0038542Y0001625
X-0026Y0005
X-0017218Y0006125
X-0015512Y0
X-0020364Y-0000384
X-0022647Y-0008143
X-0015773Y-0009093
X-0013221Y-0011412
X-0010631Y-0022853
X-0023775Y-0021769
X-0037856Y-0017227
X-0019933Y0011887
X-001598Y001598
X-0003937Y0003937
X-0007238Y0
X-0003937Y-0003937
X0Y-0007874
X0003937Y-0003937
X0007874Y0
X0003937Y0003937
X0Y0007874
Y0
X-0065612Y0014694
X-0073062Y0026241
X-0077167Y0025528
X-0081359Y0026241
Y0041535
X-0070114Y0046232
X-0065372
X-006063
X-0063265Y0075787
X-0066565Y0075862
X-0068277Y0070866
X-0055118Y0075787
X-0051181
X-0047244
Y0079724
X-0051181
X-0055118
Y0086614
X-0055058Y0090491
X-0051181Y0086614
X-0047795Y0096457
Y0110236
X-0067598Y0088583
X-0143453Y0106654
X-0146798Y0103772
X-0150591Y0023622
X-0147638Y-0002953
X-0143384Y-0018424
X-0152106Y-0027559
X-013686Y-0033465
X-013498Y-0045276
X-0116995Y-0034646
X-0112175Y-0026457
X-0088218Y-0025
X-0094326Y-0045
X-0056614Y-0044614
Y-0026575
X-0083696Y0125984
X-0104882Y0134118
X-0115118
Y0143157
X-0115094Y0148582
X-0142504Y0116738
X-0040165Y0112253
X-00325Y0111
X-0034Y0116
X-0030868Y0124722
X-0031Y0129314
Y0134
X-0025886Y0133214
Y0129314
X-0021293Y0129447
Y0133347
Y0137928
Y0142416
Y0147115
X-0025886Y0147186
Y0142283
Y0137795
X-0012189Y0143819
Y0147688
X-0008387
X-0005906Y0150364
X-0002426Y0148905
X0003074Y014931
X0007497Y0148905
X0005524Y0146932
X0011811Y0147031
X0010759Y0134376
X0007697
X0009367Y0130311
X0011811Y0127679
X0017008Y012612
X0020982Y0127047
X0021963Y0132287
X0023382Y0137
Y0143815
X0040344Y0146457
X0034453Y0159
X0053721Y0130905
X0062382
X006772Y011756
X0077389Y011836
X0093Y0126
X0102362Y0114173
X0106299
X0110236
X0106679Y014425
X0051Y0117
X0046377Y0120843
X0019614Y0117919
X0016231Y0112535
X0001674Y0114244
X-0004749Y0122936
Y0132422
X-0008305Y0133214
X-0009843Y0130311
X-0005824Y0135787
X-0001717Y0135263
X0001583
X-00182Y0120836
X-0034547Y0159
X0117118Y0146882
Y0128142
X01233Y0114772
X014225Y0117884
T05
X-0100787Y0020472
X-009685
Y0024409
X-0100787
X-0101604Y0081221
Y0085158
X-0097667
Y0081221
T07
X-0156402Y-0154761
X-0161146Y-0146846
X-01625Y-013712
X-01625Y-0127953
Y-011811
Y-0108268
Y-0098425
Y-0088583
Y-007874
Y-0068898
Y-0059055
Y-0049213
X-0147918Y-0160702
X-0137795Y-01625
X-0127953
X-011811
X-0108268
X-0098425
X-0088583
X-007874
X-0068898
X-0059055
X-0049213
X-003937
X-0029528
X-0019685
X-0009843
X0
X0009843
X0019685
X0029528
X003937
X0049213
X0059055
X0068898
X007874
X0088583
X0098425
X0108268
X0103347Y-0113977
X0061336Y-0121
X0055
X0054994Y-0127953
X0047244Y-0092546
X-0020669Y-005315
X01625Y-0049213
Y-0059055
Y-0068898
Y-007874
Y-0088583
Y-0098425
Y-0108268
Y-011811
Y-0127953
X01625Y-013712
X0161146Y-0146846
X0156402Y-0154761
X0147918Y-0160702
X0137795Y-01625
X0127953
X011811
X01625Y-003937
Y-0029528
Y-0019685
Y-0009843
Y-0
Y0009843
Y0019685
Y0029528
Y003937
Y0049213
Y0059055
Y0068898
Y007874
Y0088583
Y0098425
Y0108268
X0041339Y-0020669
X0035433
X0029528
Y-0026575
Y-003248
Y-0038386
Y-0044291
X0035433
X0041339
Y-0038386
X0035433
Y-003248
Y-0026575
X0041339
Y-003248
X0023295
Y-0038386
Y-0044291
Y-0026575
Y-0020669
X-0052416Y-0014243
Y-0008338
Y-0002432
X-0058322
Y-0008338
X-0064228Y-0002432
X-0069742Y-0005109
X-0076378Y-0003758
X-0082883Y-0001474
X-0083199Y-0007702
X-0079223Y-0011836
X-0076378Y-0021191
X-0070114
X-0102646Y-0021135
X-011811Y-0019685
X-0124016
Y-001378
X-0117661
X-0112175Y-0011811
X-0116142Y0
X-0124016
X-0123783Y0010285
X-0116142Y0009843
X-0137795
Y0003937
X-0145669
Y0009843
Y0015748
X-0137795
X-0145669Y0033465
Y003937
Y0045276
Y0051181
X-0137795
X-0145669Y0064951
Y0072835
Y007874
X-01625Y007874
Y0088583
Y0098425
Y0108268
Y0068898
Y0059055
Y0049213
Y003937
Y0029528
Y0019685
Y0009843
Y-0
Y-0009843
Y-0019685
Y-0029528
Y-003937
X-0047333Y-0037923
X-0076614Y005315
X-0083114Y0053543
X-0089089
X-0099744Y0050197
X-0106185
X-0112341
X-0080782Y0070177
X-0074803
Y0076772
Y0082595
X-0080709
Y0076772
X-0086614
X-0080709Y0088583
X-0074803
Y0104331
Y0110236
X-0080709
Y0104331
X-0104331
Y0110236
X-0110236
X-0116142
X-0122047
Y0104331
X-0116142
X-0110236
Y0116142
X-0116142
X-0122047
X-0104331
X-0080709
X-0074803
X-0073917Y01625
X-008376
X-0093602
X-0103445
X-0113287
X-012313
X-0131626Y01625
X-0140038
X-014899Y0160258
X-0156402Y0154761
X-0161146Y0146846
X-01625Y0137795
Y0127953
Y011811
X-0064075Y01625
X-0054232
X-004439
X-0034547
X0034547Y01625
X004439
X0054232
X0064075
X0073917
X008376
X0093602
X0103445
X0113287
X012313
X0131626Y01625
X0140038
X014899Y0160258
X0156402Y0154761
X0161146Y0146846
X01625Y0137795
Y0127953
Y011811
T08
X0127Y-0079
Y-0059
X0147
Y-0079
T09
X-0138878Y-0138878
X0138878
X-0138878Y0138878
X0138878
T10
X-0138878Y0065688
Y00775
T11
X-0061024Y0138878
X-0054527Y0140059
X0057087Y0141732
X0063583Y0142913
M30
