%TF.GenerationSoftware,Altium Limited,Altium Designer,23.8.1 (32)*%
G04 Layer_Color=8388736*
%FSLAX26Y26*%
%MOIN*%
%TF.SameCoordinates,39DE4687-B220-46F9-9087-551BD55EF510*%
%TF.FilePolarity,Negative*%
%TF.FileFunction,Soldermask,Top*%
%TF.Part,Single*%
G01*
G75*
%TA.AperFunction,SMDPad,CuDef*%
%ADD14R,0.135039X0.070079*%
%ADD16R,0.008000X0.025000*%
%ADD17R,0.063000X0.046000*%
%ADD18C,0.050000*%
%ADD42R,0.058268X0.026772*%
%ADD43R,0.045276X0.039366*%
%ADD44R,0.029622X0.033559*%
%ADD45R,0.029528X0.037402*%
%ADD46R,0.033559X0.029622*%
%TA.AperFunction,ViaPad*%
%ADD47C,0.041339*%
%ADD48C,0.033465*%
%ADD49C,0.124016*%
G36*
X-59996Y50000D02*
Y-50000D01*
X-119996D01*
Y50000D01*
X-59996D01*
D01*
D02*
G37*
D14*
X-129996Y1091889D02*
D03*
X120004D02*
D03*
D16*
X-89996Y0D02*
D03*
D17*
Y-30000D02*
D03*
Y30000D02*
D03*
D18*
X-49996Y431889D02*
D03*
Y631889D02*
D03*
Y531889D02*
D03*
Y731889D02*
D03*
X400004Y431889D02*
D03*
Y631889D02*
D03*
Y731889D02*
D03*
X200004Y431889D02*
D03*
X300004D02*
D03*
Y631889D02*
D03*
Y531889D02*
D03*
X400004D02*
D03*
X300004Y731889D02*
D03*
X200004D02*
D03*
X100004D02*
D03*
Y431889D02*
D03*
Y631889D02*
D03*
Y531889D02*
D03*
X200004D02*
D03*
Y631889D02*
D03*
X-199996Y431889D02*
D03*
X-299996Y531889D02*
D03*
Y431889D02*
D03*
X-399996D02*
D03*
Y731889D02*
D03*
X-299996Y631889D02*
D03*
X-399996D02*
D03*
Y531889D02*
D03*
X-199996Y631889D02*
D03*
X-299996Y731889D02*
D03*
X-199996D02*
D03*
Y531889D02*
D03*
D42*
X-164366Y-50000D02*
D03*
X-284445D02*
D03*
Y0D02*
D03*
Y50000D02*
D03*
X-164366D02*
D03*
Y0D02*
D03*
D43*
X231104Y916339D02*
D03*
X368904D02*
D03*
X231104Y847439D02*
D03*
X368904D02*
D03*
X-231096Y847439D02*
D03*
X-368896D02*
D03*
X-231096Y916339D02*
D03*
X-368896D02*
D03*
D44*
X-264993Y116817D02*
D03*
X-304363D02*
D03*
X-440311Y812184D02*
D03*
X-400941D02*
D03*
D45*
X-215322Y118189D02*
D03*
X-158235D02*
D03*
D46*
X-89996Y121574D02*
D03*
Y82204D02*
D03*
X425004Y877204D02*
D03*
Y916574D02*
D03*
D47*
X-224409Y0D02*
D03*
D48*
X224409D02*
D03*
D49*
X492126D02*
D03*
X-492126D02*
D03*
%TF.MD5,f5244555b73932686fc7702ed3e32488*%
M02*
