%TF.GenerationSoftware,Altium Limited,Altium Designer,23.8.1 (32)*%
G04 Layer_Physical_Order=2*
G04 Layer_Color=16711680*
%FSLAX26Y26*%
%MOIN*%
%TF.SameCoordinates,B48688C3-A13A-492E-84A6-6931980A1D19*%
%TF.FilePolarity,Positive*%
%TF.FileFunction,Copper,L2,Bot,Signal*%
%TF.Part,Single*%
G01*
G75*
%TA.AperFunction,Conductor*%
%ADD19C,0.010000*%
%ADD20C,0.016000*%
%ADD21C,0.020000*%
%ADD22C,0.006786*%
%ADD23C,0.006786*%
%ADD24C,0.012000*%
%ADD25C,0.030000*%
%TA.AperFunction,ViaPad*%
%ADD27C,0.023622*%
%ADD28C,0.028000*%
%ADD29C,0.118110*%
%TA.AperFunction,SMDPad,CuDef*%
%ADD30R,0.015748X0.059055*%
G36*
X-385962Y730424D02*
X-385830Y729138D01*
X-385600Y727890D01*
X-385274Y726681D01*
X-384850Y725511D01*
X-384329Y724379D01*
X-383711Y723286D01*
X-382996Y722231D01*
X-382184Y721216D01*
X-381274Y720238D01*
X-388346Y713167D01*
X-389323Y714077D01*
X-390339Y714889D01*
X-391393Y715604D01*
X-392486Y716222D01*
X-393618Y716743D01*
X-394788Y717166D01*
X-395998Y717493D01*
X-397245Y717722D01*
X-398531Y717855D01*
X-399856Y717890D01*
X-385997Y731749D01*
X-385962Y730424D01*
D02*
G37*
G36*
X399864Y717890D02*
X398801Y717848D01*
X397741Y717702D01*
X396684Y717451D01*
X395630Y717095D01*
X394578Y716635D01*
X393529Y716069D01*
X392483Y715400D01*
X391440Y714625D01*
X390400Y713746D01*
X389362Y712762D01*
X380877Y721248D01*
X381861Y722285D01*
X382740Y723326D01*
X383514Y724369D01*
X384184Y725414D01*
X384749Y726463D01*
X385210Y727515D01*
X385565Y728569D01*
X385816Y729626D01*
X385963Y730686D01*
X386004Y731749D01*
X399864Y717890D01*
D02*
G37*
G36*
X-200136Y617890D02*
X-201881Y617866D01*
X-205075Y617572D01*
X-206523Y617302D01*
X-207873Y616949D01*
X-209124Y616513D01*
X-210277Y615995D01*
X-211330Y615394D01*
X-212285Y614711D01*
X-213141Y613946D01*
X-217940Y618744D01*
X-217174Y619600D01*
X-216491Y620555D01*
X-215890Y621609D01*
X-215372Y622761D01*
X-214937Y624012D01*
X-214584Y625362D01*
X-214313Y626811D01*
X-214125Y628358D01*
X-214019Y630004D01*
X-213996Y631749D01*
X-200136Y617890D01*
D02*
G37*
G36*
X-285974Y630004D02*
X-285680Y626811D01*
X-285409Y625362D01*
X-285056Y624012D01*
X-284620Y622761D01*
X-284102Y621609D01*
X-283502Y620555D01*
X-282819Y619600D01*
X-282053Y618744D01*
X-286851Y613946D01*
X-287707Y614711D01*
X-288662Y615394D01*
X-289716Y615995D01*
X-290868Y616513D01*
X-292119Y616949D01*
X-293469Y617302D01*
X-294918Y617572D01*
X-296465Y617761D01*
X-298111Y617866D01*
X-299856Y617890D01*
X-285997Y631749D01*
X-285974Y630004D01*
D02*
G37*
G36*
X-385974D02*
X-385680Y626811D01*
X-385409Y625362D01*
X-385056Y624012D01*
X-384620Y622761D01*
X-384102Y621609D01*
X-383502Y620555D01*
X-382819Y619600D01*
X-382053Y618744D01*
X-386851Y613946D01*
X-387707Y614711D01*
X-388662Y615394D01*
X-389716Y615995D01*
X-390868Y616513D01*
X-392119Y616949D01*
X-393469Y617302D01*
X-394918Y617572D01*
X-396465Y617761D01*
X-398111Y617866D01*
X-399856Y617890D01*
X-385997Y631749D01*
X-385974Y630004D01*
D02*
G37*
G36*
X399864Y617890D02*
X398801Y617848D01*
X397741Y617702D01*
X396684Y617451D01*
X395630Y617095D01*
X394578Y616635D01*
X393529Y616069D01*
X392483Y615400D01*
X391440Y614625D01*
X390400Y613746D01*
X389362Y612762D01*
X380877Y621248D01*
X381861Y622285D01*
X382740Y623326D01*
X383514Y624369D01*
X384184Y625414D01*
X384749Y626463D01*
X385210Y627515D01*
X385565Y628569D01*
X385816Y629626D01*
X385963Y630686D01*
X386004Y631749D01*
X399864Y617890D01*
D02*
G37*
G36*
X95646Y518585D02*
X94770Y518831D01*
X93730Y519052D01*
X91156Y519416D01*
X87923Y519676D01*
X79483Y519884D01*
X77748Y529884D01*
X79147Y529939D01*
X80428Y530103D01*
X81591Y530378D01*
X82637Y530762D01*
X83565Y531256D01*
X84376Y531859D01*
X85069Y532572D01*
X85645Y533396D01*
X86103Y534328D01*
X86444Y535371D01*
X95646Y518585D01*
D02*
G37*
G36*
X-300136Y517890D02*
X-301881Y517866D01*
X-305075Y517572D01*
X-306523Y517302D01*
X-307873Y516949D01*
X-309124Y516513D01*
X-310277Y515995D01*
X-311330Y515394D01*
X-312285Y514711D01*
X-313141Y513946D01*
X-317940Y518744D01*
X-317174Y519600D01*
X-316491Y520555D01*
X-315890Y521609D01*
X-315372Y522761D01*
X-314937Y524012D01*
X-314584Y525362D01*
X-314313Y526811D01*
X-314125Y528358D01*
X-314019Y530004D01*
X-313996Y531749D01*
X-300136Y517890D01*
D02*
G37*
G36*
X-385974Y530004D02*
X-385680Y526811D01*
X-385409Y525362D01*
X-385056Y524012D01*
X-384620Y522761D01*
X-384102Y521609D01*
X-383502Y520555D01*
X-382819Y519600D01*
X-382053Y518744D01*
X-386851Y513946D01*
X-387707Y514711D01*
X-388662Y515394D01*
X-389716Y515995D01*
X-390868Y516513D01*
X-392119Y516949D01*
X-393469Y517302D01*
X-394918Y517572D01*
X-396465Y517761D01*
X-398111Y517866D01*
X-399856Y517890D01*
X-385997Y531749D01*
X-385974Y530004D01*
D02*
G37*
G36*
X199864Y517890D02*
X198539Y517855D01*
X197253Y517722D01*
X196005Y517493D01*
X194796Y517166D01*
X193626Y516743D01*
X192494Y516222D01*
X191401Y515604D01*
X190346Y514889D01*
X189330Y514077D01*
X188353Y513167D01*
X181282Y520238D01*
X182191Y521216D01*
X183004Y522231D01*
X183719Y523286D01*
X184337Y524379D01*
X184858Y525511D01*
X185281Y526681D01*
X185608Y527890D01*
X185837Y529138D01*
X185970Y530424D01*
X186005Y531749D01*
X199864Y517890D01*
D02*
G37*
G36*
X414045Y530686D02*
X414191Y529626D01*
X414442Y528569D01*
X414798Y527515D01*
X415258Y526463D01*
X415823Y525414D01*
X416493Y524369D01*
X417267Y523326D01*
X418147Y522285D01*
X419130Y521248D01*
X410645Y512762D01*
X409608Y513746D01*
X408567Y514625D01*
X407524Y515400D01*
X406478Y516069D01*
X405429Y516635D01*
X404378Y517095D01*
X403324Y517451D01*
X402266Y517702D01*
X401207Y517848D01*
X400144Y517890D01*
X414003Y531749D01*
X414045Y530686D01*
D02*
G37*
G36*
X-385876Y432864D02*
X-384459Y428048D01*
X-383921Y426679D01*
X-383351Y425429D01*
X-382749Y424298D01*
X-382113Y423285D01*
X-381445Y422390D01*
X-380745Y421614D01*
X-384472Y415745D01*
X-385375Y416548D01*
X-386353Y417228D01*
X-387408Y417786D01*
X-388537Y418219D01*
X-389743Y418530D01*
X-391024Y418717D01*
X-392381Y418781D01*
X-393813Y418722D01*
X-395321Y418540D01*
X-396905Y418235D01*
X-386283Y434707D01*
X-385876Y432864D01*
D02*
G37*
G36*
X-300136Y417890D02*
X-301881Y417866D01*
X-305075Y417572D01*
X-306523Y417302D01*
X-307873Y416949D01*
X-309124Y416513D01*
X-310277Y415995D01*
X-311330Y415394D01*
X-312285Y414711D01*
X-313141Y413946D01*
X-317940Y418744D01*
X-317174Y419600D01*
X-316491Y420555D01*
X-315890Y421608D01*
X-315372Y422761D01*
X-314937Y424012D01*
X-314584Y425362D01*
X-314313Y426810D01*
X-314125Y428358D01*
X-314019Y430004D01*
X-313996Y431749D01*
X-300136Y417890D01*
D02*
G37*
G36*
X199864D02*
X198539Y417855D01*
X197253Y417722D01*
X196005Y417493D01*
X194796Y417166D01*
X193626Y416743D01*
X192494Y416222D01*
X191401Y415604D01*
X190346Y414889D01*
X189331Y414077D01*
X188353Y413167D01*
X181282Y420238D01*
X182191Y421215D01*
X183004Y422231D01*
X183719Y423286D01*
X184337Y424379D01*
X184858Y425511D01*
X185281Y426681D01*
X185608Y427890D01*
X185837Y429138D01*
X185970Y430424D01*
X186005Y431749D01*
X199864Y417890D01*
D02*
G37*
G36*
X409082Y421110D02*
X408436Y420257D01*
X407866Y419332D01*
X407372Y418335D01*
X406954Y417266D01*
X406612Y416125D01*
X406346Y414912D01*
X406156Y413626D01*
X406042Y412269D01*
X406004Y410840D01*
X394004D01*
X393966Y412269D01*
X393852Y413626D01*
X393662Y414912D01*
X393396Y416125D01*
X393054Y417266D01*
X392636Y418335D01*
X392142Y419332D01*
X391572Y420257D01*
X390926Y421110D01*
X390204Y421891D01*
X409804D01*
X409082Y421110D01*
D02*
G37*
G36*
X-197146Y185287D02*
X-196270Y184549D01*
X-195389Y183899D01*
X-194503Y183337D01*
X-193613Y182863D01*
X-192719Y182477D01*
X-191819Y182178D01*
X-190916Y181968D01*
X-190007Y181845D01*
X-189095Y181810D01*
X-200787Y170118D01*
X-200822Y171031D01*
X-200944Y171939D01*
X-201155Y172843D01*
X-201453Y173742D01*
X-201839Y174637D01*
X-202314Y175527D01*
X-202876Y176412D01*
X-203526Y177293D01*
X-204264Y178170D01*
X-205089Y179042D01*
X-198018Y186113D01*
X-197146Y185287D01*
D02*
G37*
G36*
X-181330Y160895D02*
X-181885Y160166D01*
X-182375Y159378D01*
X-182800Y158531D01*
X-183160Y157626D01*
X-183454Y156661D01*
X-183682Y155637D01*
X-183846Y154555D01*
X-183944Y153413D01*
X-183976Y152213D01*
X-193976D01*
X-194009Y153413D01*
X-194107Y154555D01*
X-194270Y155637D01*
X-194499Y156661D01*
X-194793Y157626D01*
X-195153Y158531D01*
X-195578Y159378D01*
X-196068Y160166D01*
X-196623Y160895D01*
X-197244Y161565D01*
X-180709D01*
X-181330Y160895D01*
D02*
G37*
G36*
X-87147Y160606D02*
X-87975Y159638D01*
X-88707Y158661D01*
X-89340Y157677D01*
X-89877Y156685D01*
X-90315Y155684D01*
X-90657Y154675D01*
X-90900Y153659D01*
X-91047Y152633D01*
X-91095Y151600D01*
X-97881D01*
X-97930Y152633D01*
X-98076Y153659D01*
X-98320Y154675D01*
X-98661Y155684D01*
X-99100Y156685D01*
X-99636Y157677D01*
X-100270Y158661D01*
X-101001Y159638D01*
X-101830Y160606D01*
X-102756Y161565D01*
X-86221D01*
X-87147Y160606D01*
D02*
G37*
G36*
X-9503Y168984D02*
X-9608Y167980D01*
X-9779Y164212D01*
X-10000Y138820D01*
X-30000D01*
X-30613Y169400D01*
X-9387D01*
X-9503Y168984D01*
D02*
G37*
G36*
X-18588Y122648D02*
X-19268Y122505D01*
X-19990Y122264D01*
X-20753Y121925D01*
X-21557Y121488D01*
X-22403Y120953D01*
X-23290Y120320D01*
X-25189Y118760D01*
X-26200Y117834D01*
X-27253Y116809D01*
X-35739Y125294D01*
X-34714Y126347D01*
X-32227Y129257D01*
X-31595Y130145D01*
X-31060Y130991D01*
X-30623Y131795D01*
X-30284Y132558D01*
X-30043Y133279D01*
X-29900Y133959D01*
X-18588Y122648D01*
D02*
G37*
G36*
X194994Y113931D02*
X195415Y107211D01*
X195608Y106131D01*
X195836Y105291D01*
X196099Y104691D01*
X196397Y104331D01*
X196730Y104211D01*
X181222D01*
X181556Y104331D01*
X181854Y104691D01*
X182117Y105291D01*
X182345Y106131D01*
X182538Y107211D01*
X182696Y108531D01*
X182906Y111891D01*
X182976Y116211D01*
X194976D01*
X194994Y113931D01*
D02*
G37*
G36*
X163498D02*
X163919Y107211D01*
X164112Y106131D01*
X164340Y105291D01*
X164603Y104691D01*
X164901Y104331D01*
X165234Y104211D01*
X149726D01*
X150060Y104331D01*
X150358Y104691D01*
X150621Y105291D01*
X150849Y106131D01*
X151042Y107211D01*
X151200Y108531D01*
X151410Y111891D01*
X151480Y116211D01*
X163480D01*
X163498Y113931D01*
D02*
G37*
G36*
X131012Y112311D02*
X131232Y109111D01*
X131425Y107811D01*
X131673Y106711D01*
X131976Y105811D01*
X132334Y105111D01*
X132747Y104611D01*
X133215Y104311D01*
X133738Y104211D01*
X118230D01*
X118754Y104311D01*
X119222Y104611D01*
X119635Y105111D01*
X119993Y105811D01*
X120296Y106711D01*
X120544Y107811D01*
X120736Y109111D01*
X120874Y110611D01*
X120984Y114211D01*
X130984D01*
X131012Y112311D01*
D02*
G37*
G36*
X99516D02*
X99736Y109111D01*
X99929Y107811D01*
X100177Y106711D01*
X100480Y105811D01*
X100838Y105111D01*
X101251Y104611D01*
X101719Y104311D01*
X102242Y104211D01*
X86734D01*
X87257Y104311D01*
X87726Y104611D01*
X88139Y105111D01*
X88497Y105811D01*
X88800Y106711D01*
X89048Y107811D01*
X89240Y109111D01*
X89378Y110611D01*
X89488Y114211D01*
X99488D01*
X99516Y112311D01*
D02*
G37*
G36*
X66852D02*
X67167Y109111D01*
X67442Y107811D01*
X67796Y106711D01*
X68229Y105811D01*
X68740Y105111D01*
X69330Y104611D01*
X69999Y104311D01*
X70746Y104211D01*
X55238D01*
X55537Y104311D01*
X55805Y104611D01*
X56041Y105111D01*
X56246Y105811D01*
X56419Y106711D01*
X56561Y107811D01*
X56750Y110611D01*
X56813Y114211D01*
X66813D01*
X66852Y112311D01*
D02*
G37*
G36*
X36524D02*
X36744Y109111D01*
X36937Y107811D01*
X37185Y106711D01*
X37487Y105811D01*
X37846Y105111D01*
X38259Y104611D01*
X38727Y104311D01*
X39250Y104211D01*
X23742D01*
X24265Y104311D01*
X24733Y104611D01*
X25147Y105111D01*
X25505Y105811D01*
X25808Y106711D01*
X26055Y107811D01*
X26248Y109111D01*
X26386Y110611D01*
X26496Y114211D01*
X36496D01*
X36524Y112311D01*
D02*
G37*
G36*
X-25479Y113931D02*
X-25058Y107211D01*
X-24865Y106131D01*
X-24637Y105291D01*
X-24373Y104691D01*
X-24075Y104331D01*
X-23742Y104211D01*
X-39250D01*
X-38917Y104331D01*
X-38619Y104691D01*
X-38356Y105291D01*
X-38127Y106131D01*
X-37935Y107211D01*
X-37777Y108531D01*
X-37566Y111891D01*
X-37496Y116211D01*
X-25496D01*
X-25479Y113931D01*
D02*
G37*
G36*
X-56975D02*
X-56554Y107211D01*
X-56361Y106131D01*
X-56133Y105291D01*
X-55870Y104691D01*
X-55571Y104331D01*
X-55238Y104211D01*
X-70746D01*
X-70413Y104331D01*
X-70115Y104691D01*
X-69852Y105291D01*
X-69624Y106131D01*
X-69431Y107211D01*
X-69273Y108531D01*
X-69062Y111891D01*
X-68992Y116211D01*
X-56992D01*
X-56975Y113931D01*
D02*
G37*
G36*
X-183949Y112311D02*
X-183728Y109111D01*
X-183536Y107811D01*
X-183288Y106711D01*
X-182985Y105811D01*
X-182627Y105111D01*
X-182214Y104611D01*
X-181746Y104311D01*
X-181222Y104211D01*
X-196730D01*
X-196207Y104311D01*
X-195739Y104611D01*
X-195326Y105111D01*
X-194968Y105811D01*
X-194665Y106711D01*
X-194417Y107811D01*
X-194224Y109111D01*
X-194087Y110611D01*
X-193976Y114211D01*
X-183976D01*
X-183949Y112311D01*
D02*
G37*
G36*
X-91061Y109684D02*
X-90960Y108510D01*
X-90790Y107474D01*
X-90553Y106577D01*
X-90247Y105817D01*
X-89874Y105195D01*
X-89433Y104712D01*
X-88924Y104367D01*
X-88347Y104160D01*
X-87703Y104091D01*
X-101274D01*
X-100629Y104160D01*
X-100052Y104367D01*
X-99543Y104712D01*
X-99102Y105195D01*
X-98729Y105817D01*
X-98424Y106577D01*
X-98186Y107474D01*
X-98017Y108510D01*
X-97915Y109684D01*
X-97881Y110996D01*
X-91095D01*
X-91061Y109684D01*
D02*
G37*
G36*
X-122558D02*
X-122456Y108510D01*
X-122286Y107474D01*
X-122049Y106577D01*
X-121743Y105817D01*
X-121370Y105195D01*
X-120929Y104712D01*
X-120420Y104367D01*
X-119843Y104160D01*
X-119199Y104091D01*
X-132770D01*
X-132125Y104160D01*
X-131548Y104367D01*
X-131040Y104712D01*
X-130599Y105195D01*
X-130225Y105817D01*
X-129920Y106577D01*
X-129683Y107474D01*
X-129513Y108510D01*
X-129411Y109684D01*
X-129377Y110996D01*
X-122591D01*
X-122558Y109684D01*
D02*
G37*
G36*
X-154054D02*
X-153952Y108510D01*
X-153782Y107474D01*
X-153545Y106577D01*
X-153239Y105817D01*
X-152866Y105195D01*
X-152425Y104712D01*
X-151916Y104367D01*
X-151339Y104160D01*
X-150695Y104091D01*
X-164266D01*
X-163621Y104160D01*
X-163044Y104367D01*
X-162536Y104712D01*
X-162095Y105195D01*
X-161721Y105817D01*
X-161416Y106577D01*
X-161179Y107474D01*
X-161009Y108510D01*
X-160907Y109684D01*
X-160873Y110996D01*
X-154088D01*
X-154054Y109684D01*
D02*
G37*
G36*
X-217046D02*
X-216944Y108510D01*
X-216774Y107474D01*
X-216537Y106577D01*
X-216231Y105817D01*
X-215858Y105195D01*
X-215417Y104712D01*
X-214908Y104367D01*
X-214331Y104160D01*
X-213687Y104091D01*
X-227258D01*
X-226613Y104160D01*
X-226037Y104367D01*
X-225528Y104712D01*
X-225087Y105195D01*
X-224713Y105817D01*
X-224408Y106577D01*
X-224171Y107474D01*
X-224001Y108510D01*
X-223899Y109684D01*
X-223865Y110996D01*
X-217080D01*
X-217046Y109684D01*
D02*
G37*
G36*
X240954Y103770D02*
X237970Y100702D01*
X231282Y92760D01*
X229808Y90533D01*
X228712Y88517D01*
X227994Y86711D01*
X227654Y85116D01*
X227691Y83731D01*
X228106Y82557D01*
X215939Y104091D01*
X216652Y103215D01*
X217584Y102724D01*
X218735Y102620D01*
X220104Y102902D01*
X221691Y103569D01*
X223498Y104623D01*
X225523Y106062D01*
X227766Y107888D01*
X232909Y112696D01*
X240954Y103770D01*
D02*
G37*
G36*
X164901Y45276D02*
X164603Y44916D01*
X164340Y44316D01*
X164112Y43476D01*
X163919Y42396D01*
X163761Y41076D01*
X163550Y37716D01*
X163480Y33396D01*
X151480D01*
X151463Y35676D01*
X151042Y42396D01*
X150849Y43476D01*
X150621Y44316D01*
X150358Y44916D01*
X150060Y45276D01*
X149726Y45396D01*
X165234D01*
X164901Y45276D01*
D02*
G37*
G36*
X102135Y-9105D02*
X101579Y-9834D01*
X101089Y-10622D01*
X100665Y-11469D01*
X100305Y-12374D01*
X100011Y-13339D01*
X99782Y-14363D01*
X99619Y-15445D01*
X99521Y-16587D01*
X99488Y-17787D01*
X89488D01*
X89456Y-16587D01*
X89358Y-15445D01*
X89194Y-14363D01*
X88965Y-13339D01*
X88671Y-12374D01*
X88312Y-11469D01*
X87887Y-10622D01*
X87397Y-9834D01*
X86841Y-9105D01*
X86221Y-8435D01*
X102756D01*
X102135Y-9105D01*
D02*
G37*
G36*
X39143D02*
X38587Y-9834D01*
X38097Y-10622D01*
X37672Y-11469D01*
X37313Y-12374D01*
X37019Y-13339D01*
X36790Y-14363D01*
X36627Y-15445D01*
X36529Y-16587D01*
X36496Y-17787D01*
X26496D01*
X26463Y-16587D01*
X26365Y-15445D01*
X26202Y-14363D01*
X25973Y-13339D01*
X25679Y-12374D01*
X25320Y-11469D01*
X24895Y-10622D01*
X24405Y-9834D01*
X23849Y-9105D01*
X23228Y-8435D01*
X39764D01*
X39143Y-9105D01*
D02*
G37*
G36*
X163498Y-35676D02*
X163919Y-42396D01*
X164112Y-43476D01*
X164340Y-44316D01*
X164603Y-44916D01*
X164901Y-45276D01*
X165234Y-45396D01*
X149726D01*
X150060Y-45276D01*
X150358Y-44916D01*
X150621Y-44316D01*
X150849Y-43476D01*
X151042Y-42396D01*
X151200Y-41076D01*
X151410Y-37716D01*
X151480Y-33396D01*
X163480D01*
X163498Y-35676D01*
D02*
G37*
G36*
X99516Y-37296D02*
X99736Y-40496D01*
X99929Y-41796D01*
X100177Y-42896D01*
X100480Y-43796D01*
X100838Y-44496D01*
X101251Y-44996D01*
X101719Y-45296D01*
X102242Y-45396D01*
X86734D01*
X87257Y-45296D01*
X87726Y-44996D01*
X88139Y-44496D01*
X88497Y-43796D01*
X88800Y-42896D01*
X89048Y-41796D01*
X89240Y-40496D01*
X89378Y-38996D01*
X89488Y-35396D01*
X99488D01*
X99516Y-37296D01*
D02*
G37*
G36*
X36524D02*
X36744Y-40496D01*
X36937Y-41796D01*
X37185Y-42896D01*
X37487Y-43796D01*
X37846Y-44496D01*
X38259Y-44996D01*
X38727Y-45296D01*
X39250Y-45396D01*
X23742D01*
X24265Y-45296D01*
X24733Y-44996D01*
X25147Y-44496D01*
X25505Y-43796D01*
X25808Y-42896D01*
X26055Y-41796D01*
X26248Y-40496D01*
X26386Y-38996D01*
X26496Y-35396D01*
X36496D01*
X36524Y-37296D01*
D02*
G37*
G36*
X196730Y-45396D02*
X184604Y-45516D01*
X184651Y-45452D01*
X184693Y-45260D01*
X184730Y-44942D01*
X184789Y-43923D01*
X184850Y-39150D01*
X196850D01*
X196730Y-45396D01*
D02*
G37*
G36*
X-94186Y-40794D02*
X-94001Y-42651D01*
X-93840Y-43406D01*
X-93632Y-44046D01*
X-93378Y-44571D01*
X-93077Y-44980D01*
X-92731Y-45274D01*
X-92338Y-45453D01*
X-91899Y-45516D01*
X-102242Y-45396D01*
X-102005Y-45339D01*
X-101793Y-45167D01*
X-101606Y-44882D01*
X-101444Y-44483D01*
X-101307Y-43970D01*
X-101195Y-43342D01*
X-101107Y-42601D01*
X-101007Y-40776D01*
X-100995Y-39692D01*
X-94209D01*
X-94186Y-40794D01*
D02*
G37*
G36*
X-195240Y-39915D02*
X-190701Y-43752D01*
X-189439Y-44593D01*
X-188302Y-45216D01*
X-187291Y-45619D01*
X-186404Y-45803D01*
X-185644Y-45769D01*
X-185008Y-45516D01*
X-196610Y-52866D01*
X-196144Y-52443D01*
X-195891Y-51901D01*
X-195850Y-51240D01*
X-196023Y-50460D01*
X-196408Y-49560D01*
X-197006Y-48540D01*
X-197817Y-47402D01*
X-198842Y-46144D01*
X-201529Y-43270D01*
X-197004Y-38198D01*
X-195240Y-39915D01*
D02*
G37*
G36*
X-132336Y-41953D02*
X-129827Y-44088D01*
X-128719Y-44868D01*
X-127711Y-45456D01*
X-126800Y-45852D01*
X-125988Y-46055D01*
X-125274Y-46067D01*
X-124659Y-45888D01*
X-124142Y-45516D01*
X-133618Y-54992D01*
X-133246Y-54475D01*
X-133066Y-53859D01*
X-133078Y-53146D01*
X-133282Y-52334D01*
X-133678Y-51423D01*
X-134266Y-50414D01*
X-135046Y-49307D01*
X-136017Y-48102D01*
X-138536Y-45396D01*
X-133738Y-40597D01*
X-132336Y-41953D01*
D02*
G37*
G36*
X-163832Y-41953D02*
X-161322Y-44088D01*
X-160215Y-44868D01*
X-159206Y-45456D01*
X-158296Y-45852D01*
X-157484Y-46055D01*
X-156770Y-46067D01*
X-156155Y-45888D01*
X-155637Y-45516D01*
X-165114Y-54992D01*
X-164742Y-54475D01*
X-164562Y-53860D01*
X-164575Y-53146D01*
X-164778Y-52334D01*
X-165174Y-51424D01*
X-165762Y-50415D01*
X-166542Y-49307D01*
X-167513Y-48102D01*
X-170033Y-45396D01*
X-165234Y-40597D01*
X-163832Y-41953D01*
D02*
G37*
G36*
X-228106Y-76645D02*
X-228156Y-75707D01*
X-228303Y-74764D01*
X-228549Y-73817D01*
X-228893Y-72865D01*
X-229336Y-71907D01*
X-229877Y-70945D01*
X-230516Y-69978D01*
X-231254Y-69007D01*
X-232090Y-68030D01*
X-233024Y-67049D01*
Y-57453D01*
X-232090Y-58338D01*
X-231254Y-59027D01*
X-230516Y-59518D01*
X-229877Y-59813D01*
X-229336Y-59912D01*
X-228893Y-59813D01*
X-228549Y-59518D01*
X-228303Y-59027D01*
X-228156Y-58338D01*
X-228106Y-57453D01*
Y-76645D01*
D02*
G37*
G36*
X228228Y-63943D02*
X228591Y-64963D01*
X229197Y-65863D01*
X230046Y-66643D01*
X231136Y-67303D01*
X232470Y-67843D01*
X234045Y-68263D01*
X235863Y-68563D01*
X237924Y-68743D01*
X240226Y-68803D01*
Y-80803D01*
X237924Y-80863D01*
X235863Y-81043D01*
X234045Y-81343D01*
X232470Y-81763D01*
X231136Y-82303D01*
X230046Y-82963D01*
X229197Y-83743D01*
X228591Y-84643D01*
X228228Y-85663D01*
X228106Y-86803D01*
Y-62803D01*
X228228Y-63943D01*
D02*
G37*
G36*
X-150371Y-104278D02*
X-150949Y-104482D01*
X-151458Y-104821D01*
X-151900Y-105296D01*
X-152273Y-105907D01*
X-152579Y-106654D01*
X-152816Y-107536D01*
X-152986Y-108554D01*
X-153088Y-109707D01*
X-153122Y-110997D01*
X-159908D01*
X-159942Y-109707D01*
X-160044Y-108554D01*
X-160214Y-107536D01*
X-160451Y-106654D01*
X-160756Y-105907D01*
X-161130Y-105296D01*
X-161571Y-104821D01*
X-162080Y-104482D01*
X-162656Y-104278D01*
X-163301Y-104211D01*
X-149726D01*
X-150371Y-104278D01*
D02*
G37*
G36*
X133215Y-104311D02*
X132747Y-104611D01*
X132334Y-105111D01*
X131976Y-105811D01*
X131673Y-106711D01*
X131425Y-107811D01*
X131283Y-108769D01*
X131507Y-109772D01*
X131801Y-110737D01*
X132161Y-111642D01*
X132585Y-112489D01*
X133076Y-113277D01*
X133631Y-114006D01*
X134252Y-114676D01*
X117717D01*
X118338Y-114006D01*
X118893Y-113277D01*
X119383Y-112489D01*
X119808Y-111642D01*
X120167Y-110737D01*
X120462Y-109772D01*
X120686Y-108769D01*
X120544Y-107811D01*
X120296Y-106711D01*
X119993Y-105811D01*
X119635Y-105111D01*
X119222Y-104611D01*
X118754Y-104311D01*
X118230Y-104211D01*
X133738D01*
X133215Y-104311D01*
D02*
G37*
G36*
X70223D02*
X69755Y-104611D01*
X69342Y-105111D01*
X68984Y-105811D01*
X68681Y-106711D01*
X68433Y-107811D01*
X68291Y-108769D01*
X68515Y-109772D01*
X68809Y-110737D01*
X69168Y-111642D01*
X69593Y-112489D01*
X70083Y-113277D01*
X70639Y-114006D01*
X71260Y-114676D01*
X54724D01*
X55345Y-114006D01*
X55901Y-113277D01*
X56391Y-112489D01*
X56816Y-111642D01*
X57175Y-110737D01*
X57469Y-109772D01*
X57694Y-108769D01*
X57551Y-107811D01*
X57304Y-106711D01*
X57001Y-105811D01*
X56643Y-105111D01*
X56230Y-104611D01*
X55761Y-104311D01*
X55238Y-104211D01*
X70746D01*
X70223Y-104311D01*
D02*
G37*
G36*
X-54724Y-116565D02*
X-71260D01*
X-71209Y-116445D01*
X-71163Y-116188D01*
X-71123Y-115794D01*
X-71035Y-113797D01*
X-70992Y-109224D01*
X-54992D01*
X-54724Y-116565D01*
D02*
G37*
G36*
X-132000Y-132621D02*
X-133140Y-131818D01*
X-135370Y-130465D01*
X-136459Y-129915D01*
X-137532Y-129450D01*
X-138589Y-129070D01*
X-139629Y-128774D01*
X-140651Y-128562D01*
X-141657Y-128435D01*
X-142647Y-128393D01*
X-143798Y-121607D01*
X-142733Y-121554D01*
X-141702Y-121395D01*
X-140704Y-121129D01*
X-139739Y-120758D01*
X-138807Y-120280D01*
X-137908Y-119696D01*
X-137043Y-119006D01*
X-136210Y-118210D01*
X-135411Y-117307D01*
X-134645Y-116299D01*
X-132000Y-132621D01*
D02*
G37*
D19*
X31496Y484396D02*
X71984Y524884D01*
X31496Y74803D02*
Y484396D01*
X61813Y452144D02*
X91386Y481717D01*
X61813Y75983D02*
Y452144D01*
X94488Y417031D02*
X96560Y419103D01*
X94488Y74803D02*
Y417031D01*
X96560Y428445D02*
X100004Y431889D01*
X96560Y419103D02*
Y428445D01*
X120000Y133535D02*
Y351885D01*
Y133535D02*
X125984Y127551D01*
X120000Y351885D02*
X200004Y431889D01*
X125984Y74803D02*
Y127551D01*
X-188976Y74803D02*
Y170000D01*
X-256125Y237148D02*
Y662324D01*
X-277191Y683390D02*
X-256125Y662324D01*
Y237148D02*
X-188976Y170000D01*
X71984Y524884D02*
X88128D01*
X91386Y481717D02*
X149832D01*
X200004Y531889D01*
X95133D02*
X100004D01*
X88128Y524884D02*
X95133Y531889D01*
X61813Y75983D02*
X62992Y74803D01*
X125984Y-123111D02*
Y-74803D01*
X62992Y-123111D02*
Y-74803D01*
X94488D02*
Y0D01*
X31496Y-74803D02*
Y0D01*
X-351497Y683390D02*
X-277191D01*
X-399996Y731889D02*
X-351497Y683390D01*
D20*
X-31496Y-74803D02*
Y74803D01*
X-62992Y-125000D02*
Y74803D01*
D21*
X-20000Y132548D02*
Y180000D01*
X-59996Y121051D02*
Y193226D01*
D22*
X-327559Y32559D02*
Y404326D01*
X-299996Y431889D01*
X-306668Y-5000D02*
X-174134D01*
X-125984Y-53150D01*
X-341785Y30118D02*
X-306668Y-5000D01*
X-301786Y6786D02*
X-144080D01*
X-97602Y-39692D01*
X-327559Y32559D02*
X-301786Y6786D01*
X-341785Y30118D02*
Y158746D01*
X-318136Y-30000D02*
X-210000D01*
X-365357Y17221D02*
X-318136Y-30000D01*
X-365357Y17221D02*
Y497249D01*
X-97602Y-71689D02*
Y-39692D01*
Y-71689D02*
X-94488Y-74803D01*
X-125984D02*
Y-53150D01*
X-341786Y158746D02*
X-341785D01*
X-318261Y-46542D02*
X-248733D01*
X-220472Y-74803D01*
X-377142Y12339D02*
X-318261Y-46542D01*
X-193458Y-70322D02*
X-188976Y-74803D01*
X-193458Y-70322D02*
Y-46542D01*
X-210000Y-30000D02*
X-193458Y-46542D01*
X-377142Y12339D02*
Y413213D01*
X-240000Y591885D02*
X-199996Y631889D01*
X-240000Y260620D02*
Y591885D01*
Y260620D02*
X-157480Y178100D01*
X-270990Y224387D02*
X-220472Y173869D01*
X-299996Y631889D02*
X-270990Y602883D01*
Y224387D02*
Y602883D01*
X-224818Y277731D02*
X-125984Y178897D01*
Y74803D02*
Y178897D01*
X-224818Y277731D02*
Y516711D01*
X-399996Y631889D02*
X-353571Y585464D01*
X-341786Y158746D02*
Y490100D01*
X-353571Y158746D02*
Y585464D01*
X-341786Y490100D02*
X-299996Y531889D01*
X-399996D02*
X-365357Y497249D01*
X-395818Y431889D02*
X-377142Y413213D01*
X-220472Y74803D02*
Y173869D01*
X-157480Y74803D02*
Y178100D01*
X-94488Y74803D02*
Y170000D01*
X-399996Y431889D02*
X-395818D01*
X-204055Y527830D02*
X-199996Y531889D01*
X-213699Y527830D02*
X-204055D01*
X-224818Y516711D02*
X-213699Y527830D01*
D23*
X-353571Y22103D02*
X-314683Y-16785D01*
X-353571Y22103D02*
Y158746D01*
X-353571D02*
X-353571D01*
X-314683Y-16785D02*
X-193844D01*
X-157480Y-53150D01*
Y-74803D02*
Y-53150D01*
Y-74803D02*
X-156515Y-75768D01*
Y-114510D02*
X-146025Y-125000D01*
X-126885D01*
X-156515Y-114510D02*
Y-75768D01*
X-126885Y-125000D02*
X-124996Y-123111D01*
D24*
X340242Y294130D02*
Y672127D01*
X188976Y142865D02*
X340242Y294130D01*
X188976Y74803D02*
Y142865D01*
X157344Y178292D02*
X157480Y178156D01*
Y-74803D02*
Y178156D01*
X-31496Y121051D02*
X-20000Y132548D01*
X-31496Y74803D02*
Y121051D01*
X-62992Y118056D02*
X-59996Y121051D01*
X-62992Y74803D02*
Y118056D01*
X220472Y91774D02*
Y96457D01*
X222346Y98331D01*
X366648Y237949D02*
Y277715D01*
X222346Y98331D02*
X227029D01*
X366648Y237949D01*
Y277715D02*
X366694Y277761D01*
Y598579D01*
X400004Y170004D02*
Y431860D01*
X190850Y-39150D02*
X400004Y170004D01*
X188976Y-74803D02*
X190850Y-72929D01*
Y-39150D01*
X360000Y10000D02*
Y10000D01*
X460004Y110004D01*
Y471889D01*
X275197Y-74803D02*
X360000Y10000D01*
X220472Y-74803D02*
X275197D01*
X366694Y598579D02*
X400004Y631889D01*
X340242Y672127D02*
X400004Y731889D01*
Y531889D02*
X460004Y471889D01*
D25*
X157344Y178292D02*
Y249230D01*
X300004Y391889D01*
X-20000Y180000D02*
Y401893D01*
X-49996Y431889D02*
X-20000Y401893D01*
X-61496Y193226D02*
Y194726D01*
X-129996Y263226D02*
X-61496Y194726D01*
X-129996Y263226D02*
Y661889D01*
X-199996Y731889D02*
X-199996D01*
X300004Y431889D02*
Y531889D01*
Y391889D02*
Y431889D01*
X-299996Y731889D02*
X-199996D01*
X-439996Y847439D02*
X-315546D01*
X-199996Y731889D01*
X-199996D02*
X-129996Y661889D01*
X-49996Y631889D02*
Y731889D01*
Y531889D02*
X-49996Y531889D01*
X-49996Y431889D02*
Y531889D01*
Y531889D02*
Y631889D01*
X-49996Y631889D01*
X-49996Y731889D02*
X-49996Y731889D01*
X300004Y631889D02*
Y731889D01*
Y531889D02*
Y631889D01*
D27*
X-62992Y-125000D02*
D03*
X-188976Y170000D02*
D03*
X-94488D02*
D03*
X94488Y0D02*
D03*
X31496D02*
D03*
X125984Y-123111D02*
D03*
X62992D02*
D03*
X-124996D02*
D03*
X-439996Y847439D02*
D03*
D28*
X-399996Y431889D02*
D03*
X-49996Y731889D02*
D03*
Y631889D02*
D03*
Y531889D02*
D03*
Y431889D02*
D03*
X300004Y731889D02*
D03*
X400004D02*
D03*
X100004Y431889D02*
D03*
X200004D02*
D03*
X400004D02*
D03*
X200004Y731889D02*
D03*
X100004Y531889D02*
D03*
X200004D02*
D03*
X100004Y731889D02*
D03*
X300004Y631889D02*
D03*
X400004D02*
D03*
Y531889D02*
D03*
X300004D02*
D03*
X200004Y631889D02*
D03*
X300004Y431889D02*
D03*
X100004Y631889D02*
D03*
X-199996Y431889D02*
D03*
X-299996D02*
D03*
Y531889D02*
D03*
X-399996Y731889D02*
D03*
Y631889D02*
D03*
X-299996D02*
D03*
X-199996D02*
D03*
Y531889D02*
D03*
X-399996D02*
D03*
X-299996Y731889D02*
D03*
X-199996D02*
D03*
D29*
X492126Y0D02*
D03*
X-492126D02*
D03*
D30*
X-31496Y74803D02*
D03*
Y-74803D02*
D03*
X0Y74803D02*
D03*
X-62992D02*
D03*
Y-74803D02*
D03*
X0D02*
D03*
X220472D02*
D03*
X125984Y74803D02*
D03*
X31496D02*
D03*
X220472D02*
D03*
X94488Y-74803D02*
D03*
X62992Y74803D02*
D03*
X157480D02*
D03*
X125984Y-74803D02*
D03*
X94488Y74803D02*
D03*
X157480Y-74803D02*
D03*
X188976Y74803D02*
D03*
Y-74803D02*
D03*
X62992D02*
D03*
X31496D02*
D03*
X-94488D02*
D03*
X-220472Y74803D02*
D03*
Y-74803D02*
D03*
X-188976Y74803D02*
D03*
Y-74803D02*
D03*
X-157480Y74803D02*
D03*
Y-74803D02*
D03*
X-125984Y74803D02*
D03*
Y-74803D02*
D03*
X-94488Y74803D02*
D03*
%TF.MD5,5c8d4e69c18befd5fa8cd910a332aab7*%
M02*
