M48
;Layer_Color=9474304
;FILE_FORMAT=2:5
INCH,LZ
;TYPE=PLATED
T01F00S00C0.01181
T02F00S00C0.01600
T03F00S00C0.11811
%
T01
X-00125Y-0012311
X-0006299Y-00125
X0006299Y-0012311
X0012598
X0009449Y0
X000315
X-0009449Y0017
X-0018898
X-0044Y0084744
T02
X-004Y0043189
X-003
X-002
Y0053189
X-003
Y0063189
X-004
Y0073189
X-003
X-002
Y0063189
X-0005
Y0073189
X001
X002
X003
X004
Y0063189
X003
Y0053189
X004
Y0043189
X003
X002
X001
Y0053189
X002
Y0063189
X001
X-0005Y0053189
Y0043189
X-004Y0053189
T03
X-0049213Y0
X0049213
M30
