%TF.GenerationSoftware,Altium Limited,Altium Designer,23.8.1 (32)*%
G04 Layer_Color=16777215*
%FSLAX26Y26*%
%MOIN*%
%TF.SameCoordinates,B48688C3-A13A-492E-84A6-6931980A1D19*%
%TF.FilePolarity,Positive*%
%TF.FileFunction,Legend,Top*%
%TF.Part,Single*%
G01*
G75*
%TA.AperFunction,NonConductor*%
%ADD31C,0.007874*%
%ADD32C,0.003937*%
%ADD33C,0.006142*%
%ADD34C,0.005000*%
%ADD35C,0.011811*%
%ADD36C,0.008000*%
%ADD37C,0.019685*%
G36*
X-389996Y-48111D02*
X-349996Y-68111D01*
X-369996Y-88111D01*
X-389996Y-48111D01*
D02*
G37*
G36*
X390004D02*
X350004Y-68111D01*
X370004Y-88111D01*
X390004Y-48111D01*
D02*
G37*
G36*
X-213281Y856889D02*
X-170854Y871031D01*
Y842747D01*
X-213281Y856889D01*
D02*
G37*
G36*
X208600D02*
X166173Y871031D01*
Y842747D01*
X208600Y856889D01*
D02*
G37*
G36*
X-332719Y55323D02*
X-332228Y55269D01*
X-331627Y55105D01*
X-330972Y54941D01*
X-330317Y54668D01*
X-329661Y54340D01*
X-329607Y54286D01*
X-329388Y54177D01*
X-329061Y53904D01*
X-328679Y53631D01*
X-328242Y53194D01*
X-327750Y52757D01*
X-327314Y52157D01*
X-326877Y51556D01*
X-326822Y51501D01*
X-326713Y51283D01*
X-326549Y50901D01*
X-326385Y50464D01*
X-326222Y49918D01*
X-326058Y49263D01*
X-325949Y48553D01*
X-325894Y47788D01*
Y18305D01*
X-374106D01*
Y23491D01*
X-362203D01*
Y48116D01*
X-362148Y48553D01*
X-362094Y49044D01*
X-361930Y49645D01*
X-361766Y50245D01*
X-361493Y50901D01*
X-361166Y51556D01*
X-361111Y51611D01*
X-361002Y51829D01*
X-360729Y52157D01*
X-360456Y52539D01*
X-360019Y53030D01*
X-359582Y53467D01*
X-358982Y53904D01*
X-358381Y54340D01*
X-358326Y54395D01*
X-358108Y54504D01*
X-357726Y54668D01*
X-357289Y54886D01*
X-356743Y55050D01*
X-356088Y55214D01*
X-355378Y55323D01*
X-354614Y55378D01*
X-333429D01*
X-333320D01*
X-333101D01*
X-332719Y55323D01*
D02*
G37*
G36*
X-344021Y-2443D02*
X-325949Y13991D01*
X-325894D01*
Y7275D01*
X-341455Y-7030D01*
Y-17022D01*
X-325894D01*
Y-22209D01*
X-374106D01*
Y-17022D01*
X-346587D01*
Y-7030D01*
X-362203Y7275D01*
Y14046D01*
X-362148D01*
X-344021Y-2443D01*
D02*
G37*
G36*
X-325894Y-36350D02*
X-365206D01*
X-356907Y-43339D01*
Y-50000D01*
X-370994Y-38152D01*
Y-31163D01*
X-325894D01*
Y-36350D01*
D02*
G37*
G36*
X-265266Y963647D02*
X-275374D01*
X-308022Y1020063D01*
X-293952D01*
X-270252Y979083D01*
X-246552Y1020063D01*
X-232550D01*
X-265266Y963647D01*
D02*
G37*
G36*
X-355285Y975873D02*
X-310958D01*
Y963647D01*
X-367442D01*
Y1020131D01*
X-355285D01*
Y975873D01*
D02*
G37*
G36*
X291815Y1264945D02*
X267296D01*
Y1231478D01*
X255275D01*
Y1265560D01*
Y1265628D01*
Y1265696D01*
Y1266106D01*
X255343Y1266721D01*
X255480Y1267472D01*
X255685Y1268360D01*
X255958Y1269248D01*
X256300Y1270272D01*
X256846Y1271229D01*
X256914Y1271365D01*
X257119Y1271638D01*
X257461Y1272117D01*
X257939Y1272663D01*
X258553Y1273346D01*
X259236Y1274029D01*
X260124Y1274712D01*
X261012Y1275327D01*
X261149Y1275395D01*
X261490Y1275600D01*
X261968Y1275805D01*
X262720Y1276146D01*
X263539Y1276419D01*
X264564Y1276624D01*
X265588Y1276829D01*
X266749Y1276898D01*
X291815D01*
Y1264945D01*
D02*
G37*
G36*
X236834Y1276829D02*
X237585Y1276693D01*
X238473Y1276556D01*
X239429Y1276283D01*
X240454Y1275873D01*
X241410Y1275395D01*
X241547Y1275327D01*
X241820Y1275122D01*
X242298Y1274780D01*
X242844Y1274302D01*
X243527Y1273687D01*
X244210Y1273004D01*
X244825Y1272185D01*
X245440Y1271229D01*
X245508Y1271092D01*
X245713Y1270751D01*
X245918Y1270272D01*
X246259Y1269521D01*
X246533Y1268701D01*
X246738Y1267745D01*
X246942Y1266721D01*
X247011Y1265560D01*
Y1242816D01*
Y1242679D01*
Y1242269D01*
X246942Y1241655D01*
X246806Y1240903D01*
X246601Y1240015D01*
X246328Y1239059D01*
X245986Y1238103D01*
X245440Y1237079D01*
X245371Y1236942D01*
X245167Y1236669D01*
X244825Y1236191D01*
X244347Y1235644D01*
X243801Y1234961D01*
X243118Y1234278D01*
X242298Y1233595D01*
X241410Y1232981D01*
X241274Y1232912D01*
X241000Y1232776D01*
X240454Y1232503D01*
X239771Y1232229D01*
X238883Y1231956D01*
X237927Y1231683D01*
X236834Y1231546D01*
X235673Y1231478D01*
X211768D01*
X211153Y1231546D01*
X210402Y1231683D01*
X209514Y1231820D01*
X208558Y1232093D01*
X207602Y1232503D01*
X206577Y1232981D01*
X206440Y1233049D01*
X206167Y1233254D01*
X205689Y1233595D01*
X205143Y1234073D01*
X204460Y1234688D01*
X203777Y1235371D01*
X203094Y1236191D01*
X202479Y1237079D01*
X202411Y1237215D01*
X202206Y1237557D01*
X202001Y1238035D01*
X201728Y1238786D01*
X201386Y1239606D01*
X201181Y1240630D01*
X200976Y1241655D01*
X200908Y1242816D01*
Y1265560D01*
Y1265628D01*
Y1265696D01*
Y1266106D01*
X200976Y1266721D01*
X201113Y1267472D01*
X201318Y1268360D01*
X201591Y1269248D01*
X201933Y1270272D01*
X202479Y1271229D01*
X202547Y1271365D01*
X202752Y1271638D01*
X203094Y1272117D01*
X203572Y1272663D01*
X204187Y1273346D01*
X204870Y1274029D01*
X205689Y1274712D01*
X206577Y1275327D01*
X206714Y1275395D01*
X207055Y1275600D01*
X207533Y1275805D01*
X208285Y1276146D01*
X209104Y1276419D01*
X210129Y1276624D01*
X211153Y1276829D01*
X212314Y1276898D01*
X236219D01*
X236834Y1276829D01*
D02*
G37*
G36*
X160748Y1276898D02*
X184038D01*
X184653Y1276829D01*
X185404Y1276693D01*
X186292Y1276488D01*
X187180Y1276215D01*
X188204Y1275873D01*
X189161Y1275327D01*
X189297Y1275258D01*
X189570Y1275053D01*
X190048Y1274712D01*
X190663Y1274234D01*
X191346Y1273619D01*
X192029Y1272936D01*
X192712Y1272117D01*
X193327Y1271229D01*
X193395Y1271092D01*
X193600Y1270819D01*
X193805Y1270272D01*
X194147Y1269589D01*
X194420Y1268770D01*
X194625Y1267745D01*
X194829Y1266721D01*
X194898Y1265560D01*
Y1231478D01*
X182877D01*
Y1264945D01*
X160748D01*
Y1231478D01*
X148727D01*
Y1291787D01*
X160748D01*
Y1276898D01*
D02*
G37*
G36*
X140053Y1264945D02*
X106040D01*
Y1243430D01*
X140121D01*
Y1231478D01*
X104878D01*
X104264Y1231546D01*
X103512Y1231683D01*
X102624Y1231820D01*
X101668Y1232093D01*
X100712Y1232503D01*
X99688Y1232981D01*
X99551Y1233049D01*
X99278Y1233254D01*
X98800Y1233595D01*
X98253Y1234073D01*
X97570Y1234688D01*
X96887Y1235371D01*
X96204Y1236191D01*
X95590Y1237079D01*
X95521Y1237215D01*
X95316Y1237557D01*
X95112Y1238035D01*
X94838Y1238786D01*
X94497Y1239606D01*
X94292Y1240630D01*
X94087Y1241655D01*
X94019Y1242816D01*
Y1265560D01*
Y1265628D01*
Y1265696D01*
Y1266106D01*
X94087Y1266721D01*
X94224Y1267472D01*
X94428Y1268360D01*
X94702Y1269248D01*
X95043Y1270272D01*
X95590Y1271229D01*
X95658Y1271365D01*
X95863Y1271638D01*
X96204Y1272117D01*
X96682Y1272663D01*
X97297Y1273346D01*
X97980Y1274029D01*
X98800Y1274712D01*
X99688Y1275327D01*
X99824Y1275395D01*
X100166Y1275600D01*
X100644Y1275805D01*
X101395Y1276146D01*
X102215Y1276419D01*
X103239Y1276624D01*
X104264Y1276829D01*
X105425Y1276898D01*
X140053D01*
Y1264945D01*
D02*
G37*
G36*
X75578Y1276829D02*
X76329Y1276693D01*
X77217Y1276488D01*
X78173Y1276215D01*
X79198Y1275873D01*
X80154Y1275327D01*
X80290Y1275258D01*
X80564Y1275053D01*
X81042Y1274712D01*
X81656Y1274234D01*
X82271Y1273619D01*
X82954Y1272936D01*
X83637Y1272117D01*
X84252Y1271229D01*
X84320Y1271092D01*
X84525Y1270819D01*
X84730Y1270272D01*
X85071Y1269589D01*
X85345Y1268770D01*
X85549Y1267745D01*
X85754Y1266721D01*
X85823Y1265560D01*
Y1231478D01*
X73802D01*
Y1264945D01*
X51673D01*
Y1231478D01*
X39652D01*
Y1276898D01*
X74963D01*
X75578Y1276829D01*
D02*
G37*
G36*
X21006D02*
X21757Y1276693D01*
X22645Y1276556D01*
X23601Y1276283D01*
X24626Y1275873D01*
X25582Y1275395D01*
X25719Y1275327D01*
X25992Y1275122D01*
X26470Y1274780D01*
X27016Y1274302D01*
X27699Y1273687D01*
X28382Y1273004D01*
X28997Y1272185D01*
X29612Y1271229D01*
X29680Y1271092D01*
X29885Y1270751D01*
X30090Y1270272D01*
X30431Y1269521D01*
X30705Y1268701D01*
X30910Y1267745D01*
X31114Y1266721D01*
X31183Y1265560D01*
Y1231478D01*
X-4060D01*
X-4675Y1231546D01*
X-5426Y1231683D01*
X-6314Y1231820D01*
X-7270Y1232093D01*
X-8226Y1232503D01*
X-9251Y1232981D01*
X-9387Y1233049D01*
X-9661Y1233254D01*
X-10139Y1233595D01*
X-10754Y1234073D01*
X-11437Y1234688D01*
X-12120Y1235371D01*
X-12803Y1236191D01*
X-13417Y1237079D01*
X-13486Y1237215D01*
X-13622Y1237557D01*
X-13895Y1238035D01*
X-14168Y1238786D01*
X-14442Y1239606D01*
X-14715Y1240630D01*
X-14851Y1241655D01*
X-14920Y1242816D01*
Y1260232D01*
X19230D01*
Y1264945D01*
X-14920D01*
Y1276898D01*
X20391D01*
X21006Y1276829D01*
D02*
G37*
G36*
X-58632Y1276829D02*
X-57880Y1276693D01*
X-56993Y1276556D01*
X-56036Y1276283D01*
X-55012Y1275873D01*
X-54056Y1275395D01*
X-53919Y1275326D01*
X-53646Y1275122D01*
X-53168Y1274780D01*
X-52621Y1274302D01*
X-51938Y1273687D01*
X-51255Y1273004D01*
X-50641Y1272185D01*
X-50026Y1271228D01*
X-49958Y1271092D01*
X-49753Y1270750D01*
X-49548Y1270272D01*
X-49206Y1269521D01*
X-48933Y1268701D01*
X-48728Y1267745D01*
X-48523Y1266721D01*
X-48455Y1265560D01*
Y1248143D01*
X-82537D01*
Y1243430D01*
X-48455D01*
Y1231478D01*
X-83698D01*
X-84313Y1231546D01*
X-85064Y1231683D01*
X-85952Y1231819D01*
X-86908Y1232093D01*
X-87864Y1232502D01*
X-88889Y1232980D01*
X-89025Y1233049D01*
X-89299Y1233254D01*
X-89777Y1233595D01*
X-90323Y1234073D01*
X-91006Y1234688D01*
X-91689Y1235371D01*
X-92372Y1236191D01*
X-92987Y1237079D01*
X-93055Y1237215D01*
X-93260Y1237557D01*
X-93465Y1238035D01*
X-93738Y1238786D01*
X-94079Y1239606D01*
X-94284Y1240630D01*
X-94489Y1241655D01*
X-94558Y1242816D01*
Y1265560D01*
Y1265628D01*
Y1265696D01*
Y1266106D01*
X-94489Y1266721D01*
X-94353Y1267472D01*
X-94148Y1268360D01*
X-93875Y1269248D01*
X-93533Y1270272D01*
X-92987Y1271228D01*
X-92918Y1271365D01*
X-92713Y1271638D01*
X-92372Y1272116D01*
X-91894Y1272663D01*
X-91279Y1273346D01*
X-90596Y1274029D01*
X-89777Y1274712D01*
X-88889Y1275326D01*
X-88752Y1275395D01*
X-88411Y1275600D01*
X-87933Y1275805D01*
X-87181Y1276146D01*
X-86362Y1276419D01*
X-85337Y1276624D01*
X-84313Y1276829D01*
X-83151Y1276897D01*
X-59246D01*
X-58632Y1276829D01*
D02*
G37*
G36*
X-108832Y1243430D02*
X-99680D01*
Y1231478D01*
X-110062D01*
X-110676Y1231546D01*
X-111428Y1231683D01*
X-112316Y1231819D01*
X-113272Y1232093D01*
X-114228Y1232502D01*
X-115252Y1232980D01*
X-115389Y1233049D01*
X-115662Y1233254D01*
X-116140Y1233595D01*
X-116687Y1234073D01*
X-117370Y1234688D01*
X-118053Y1235371D01*
X-118736Y1236191D01*
X-119350Y1237079D01*
X-119419Y1237215D01*
X-119624Y1237557D01*
X-119829Y1238035D01*
X-120102Y1238786D01*
X-120443Y1239606D01*
X-120648Y1240630D01*
X-120853Y1241655D01*
X-120921Y1242816D01*
Y1291923D01*
X-108832D01*
Y1243430D01*
D02*
G37*
G36*
X-161082Y1276897D02*
X-137792D01*
X-137177Y1276829D01*
X-136425Y1276693D01*
X-135538Y1276488D01*
X-134581Y1276214D01*
X-133557Y1275873D01*
X-132601Y1275326D01*
X-132464Y1275258D01*
X-132191Y1275053D01*
X-131713Y1274712D01*
X-131098Y1274234D01*
X-130483Y1273619D01*
X-129800Y1272936D01*
X-129117Y1272116D01*
X-128503Y1271228D01*
X-128434Y1271092D01*
X-128230Y1270819D01*
X-128025Y1270272D01*
X-127683Y1269589D01*
X-127410Y1268770D01*
X-127205Y1267745D01*
X-127000Y1266721D01*
X-126932Y1265560D01*
Y1242816D01*
Y1242679D01*
Y1242269D01*
X-127000Y1241655D01*
X-127137Y1240903D01*
X-127342Y1240015D01*
X-127615Y1239059D01*
X-127956Y1238103D01*
X-128503Y1237079D01*
X-128571Y1236942D01*
X-128776Y1236669D01*
X-129117Y1236191D01*
X-129595Y1235644D01*
X-130142Y1234961D01*
X-130893Y1234278D01*
X-131644Y1233595D01*
X-132601Y1232980D01*
X-132737Y1232912D01*
X-133079Y1232776D01*
X-133557Y1232502D01*
X-134308Y1232229D01*
X-135128Y1231956D01*
X-136084Y1231683D01*
X-137177Y1231546D01*
X-138338Y1231478D01*
X-173103D01*
Y1291787D01*
X-161082D01*
Y1276897D01*
D02*
G37*
G36*
X-191749Y1276829D02*
X-190997Y1276693D01*
X-190109Y1276556D01*
X-189153Y1276283D01*
X-188129Y1275873D01*
X-187172Y1275395D01*
X-187036Y1275326D01*
X-186763Y1275122D01*
X-186285Y1274780D01*
X-185738Y1274302D01*
X-185055Y1273687D01*
X-184372Y1273004D01*
X-183757Y1272185D01*
X-183143Y1271228D01*
X-183074Y1271092D01*
X-182869Y1270750D01*
X-182665Y1270272D01*
X-182323Y1269521D01*
X-182050Y1268701D01*
X-181845Y1267745D01*
X-181640Y1266721D01*
X-181572Y1265560D01*
Y1231478D01*
X-216815D01*
X-217429Y1231546D01*
X-218181Y1231683D01*
X-219069Y1231819D01*
X-220025Y1232093D01*
X-220981Y1232502D01*
X-222005Y1232980D01*
X-222142Y1233049D01*
X-222415Y1233254D01*
X-222893Y1233595D01*
X-223508Y1234073D01*
X-224191Y1234688D01*
X-224874Y1235371D01*
X-225557Y1236191D01*
X-226172Y1237079D01*
X-226240Y1237215D01*
X-226377Y1237557D01*
X-226650Y1238035D01*
X-226923Y1238786D01*
X-227196Y1239606D01*
X-227469Y1240630D01*
X-227606Y1241655D01*
X-227674Y1242816D01*
Y1260232D01*
X-193524D01*
Y1264945D01*
X-227674D01*
Y1276897D01*
X-192363D01*
X-191749Y1276829D01*
D02*
G37*
G36*
X-235529Y1275668D02*
X-277533D01*
X-277807Y1275600D01*
X-278421Y1275395D01*
X-279036Y1275053D01*
X-279104Y1274917D01*
X-279309Y1274575D01*
X-279582Y1273960D01*
X-279651Y1273551D01*
Y1273073D01*
Y1246231D01*
Y1246162D01*
Y1246026D01*
X-279582Y1245821D01*
Y1245548D01*
X-279377Y1244933D01*
X-279036Y1244318D01*
X-278899Y1244250D01*
X-278558Y1244045D01*
X-277943Y1243772D01*
X-277055Y1243704D01*
X-235529D01*
Y1231478D01*
X-280743D01*
X-281358Y1231546D01*
X-282109Y1231683D01*
X-283066Y1231819D01*
X-284022Y1232093D01*
X-285046Y1232502D01*
X-286071Y1232980D01*
X-286207Y1233049D01*
X-286481Y1233254D01*
X-286959Y1233595D01*
X-287573Y1234073D01*
X-288256Y1234688D01*
X-288939Y1235371D01*
X-289622Y1236259D01*
X-290237Y1237147D01*
X-290305Y1237283D01*
X-290510Y1237625D01*
X-290715Y1238171D01*
X-290988Y1238854D01*
X-291330Y1239742D01*
X-291535Y1240767D01*
X-291740Y1241860D01*
X-291808Y1243021D01*
Y1276283D01*
Y1276351D01*
Y1276419D01*
Y1276829D01*
X-291740Y1277444D01*
X-291603Y1278195D01*
X-291398Y1279083D01*
X-291125Y1280108D01*
X-290784Y1281064D01*
X-290237Y1282088D01*
X-290169Y1282225D01*
X-289964Y1282498D01*
X-289622Y1283044D01*
X-289144Y1283591D01*
X-288530Y1284274D01*
X-287847Y1285025D01*
X-286959Y1285708D01*
X-286071Y1286323D01*
X-285934Y1286391D01*
X-285593Y1286596D01*
X-285046Y1286801D01*
X-284363Y1287142D01*
X-283475Y1287416D01*
X-282451Y1287620D01*
X-281358Y1287825D01*
X-280197Y1287894D01*
X-235529D01*
Y1275668D01*
D02*
G37*
G36*
X-11846Y1208174D02*
X-23867Y1208174D01*
Y1220195D01*
X-11846Y1220195D01*
Y1208174D01*
D02*
G37*
G36*
X119631Y1205237D02*
X120382Y1205101D01*
X121270Y1204896D01*
X122227Y1204622D01*
X123251Y1204281D01*
X124207Y1203735D01*
X124344Y1203666D01*
X124617Y1203461D01*
X125095Y1203120D01*
X125710Y1202642D01*
X126393Y1202027D01*
X127076Y1201344D01*
X127759Y1200524D01*
X128374Y1199637D01*
X128442Y1199500D01*
X128647Y1199227D01*
X128852Y1198680D01*
X129193Y1197997D01*
X129466Y1197178D01*
X129671Y1196153D01*
X129876Y1195129D01*
X129945Y1193968D01*
Y1191714D01*
X117855D01*
Y1193353D01*
X95726D01*
Y1188640D01*
X119016D01*
X119631Y1188572D01*
X120382Y1188435D01*
X121270Y1188230D01*
X122227Y1187957D01*
X123251Y1187616D01*
X124207Y1187069D01*
X124344Y1187001D01*
X124617Y1186796D01*
X125095Y1186455D01*
X125710Y1185976D01*
X126393Y1185362D01*
X127076Y1184679D01*
X127759Y1183859D01*
X128374Y1182903D01*
X128442Y1182766D01*
X128647Y1182425D01*
X128852Y1181947D01*
X129193Y1181196D01*
X129466Y1180376D01*
X129671Y1179420D01*
X129876Y1178395D01*
X129945Y1177234D01*
Y1171224D01*
Y1171087D01*
Y1170677D01*
X129876Y1170063D01*
X129740Y1169311D01*
X129535Y1168423D01*
X129262Y1167467D01*
X128920Y1166511D01*
X128374Y1165486D01*
X128305Y1165350D01*
X128100Y1165077D01*
X127759Y1164599D01*
X127281Y1164052D01*
X126666Y1163369D01*
X125983Y1162686D01*
X125163Y1162003D01*
X124207Y1161389D01*
X124071Y1161320D01*
X123797Y1161184D01*
X123251Y1160910D01*
X122568Y1160637D01*
X121680Y1160364D01*
X120724Y1160091D01*
X119631Y1159954D01*
X118470Y1159886D01*
X94565D01*
X94019Y1159954D01*
X93199Y1160091D01*
X92379Y1160227D01*
X91423Y1160501D01*
X90399Y1160910D01*
X89443Y1161389D01*
X89306Y1161457D01*
X89033Y1161662D01*
X88555Y1162003D01*
X88008Y1162481D01*
X87325Y1163096D01*
X86642Y1163779D01*
X85959Y1164599D01*
X85345Y1165486D01*
X85276Y1165623D01*
X85071Y1165965D01*
X84867Y1166443D01*
X84593Y1167194D01*
X84252Y1168014D01*
X84047Y1169038D01*
X83842Y1170063D01*
X83774Y1171224D01*
Y1173478D01*
X95726D01*
Y1171838D01*
X117855D01*
Y1176551D01*
X94565D01*
X94019Y1176619D01*
X93199Y1176756D01*
X92379Y1176961D01*
X91423Y1177234D01*
X90399Y1177576D01*
X89443Y1178122D01*
X89306Y1178190D01*
X89033Y1178395D01*
X88555Y1178737D01*
X88008Y1179215D01*
X87325Y1179830D01*
X86642Y1180513D01*
X85959Y1181400D01*
X85345Y1182288D01*
X85276Y1182425D01*
X85071Y1182766D01*
X84867Y1183245D01*
X84593Y1183996D01*
X84252Y1184815D01*
X84047Y1185772D01*
X83842Y1186796D01*
X83774Y1187889D01*
Y1193968D01*
Y1194036D01*
Y1194104D01*
Y1194514D01*
X83842Y1195129D01*
X83979Y1195880D01*
X84183Y1196768D01*
X84457Y1197656D01*
X84798Y1198680D01*
X85345Y1199637D01*
X85413Y1199773D01*
X85618Y1200046D01*
X85959Y1200524D01*
X86437Y1201071D01*
X87052Y1201754D01*
X87735Y1202437D01*
X88555Y1203120D01*
X89443Y1203735D01*
X89579Y1203803D01*
X89921Y1204008D01*
X90399Y1204213D01*
X91082Y1204554D01*
X91970Y1204827D01*
X92926Y1205032D01*
X93950Y1205237D01*
X95112Y1205305D01*
X119016D01*
X119631Y1205237D01*
D02*
G37*
G36*
X60757Y1205305D02*
X77627D01*
Y1193353D01*
X60757D01*
Y1171838D01*
X77627D01*
Y1159886D01*
X59664D01*
X59049Y1159954D01*
X58298Y1160091D01*
X57410Y1160227D01*
X56385Y1160501D01*
X55429Y1160910D01*
X54405Y1161389D01*
X54268Y1161457D01*
X53995Y1161662D01*
X53517Y1162003D01*
X52970Y1162481D01*
X52287Y1163096D01*
X51604Y1163779D01*
X50921Y1164599D01*
X50307Y1165486D01*
X50238Y1165623D01*
X50033Y1165965D01*
X49829Y1166443D01*
X49555Y1167194D01*
X49214Y1168014D01*
X49009Y1169038D01*
X48804Y1170063D01*
X48736Y1171224D01*
Y1218829D01*
X60757D01*
Y1205305D01*
D02*
G37*
G36*
X30158Y1205237D02*
X30910Y1205101D01*
X31797Y1204896D01*
X32754Y1204622D01*
X33778Y1204281D01*
X34734Y1203735D01*
X34871Y1203666D01*
X35144Y1203461D01*
X35622Y1203120D01*
X36237Y1202642D01*
X36852Y1202027D01*
X37535Y1201344D01*
X38218Y1200524D01*
X38832Y1199637D01*
X38901Y1199500D01*
X39105Y1199227D01*
X39310Y1198680D01*
X39652Y1197997D01*
X39925Y1197178D01*
X40130Y1196153D01*
X40335Y1195129D01*
X40403Y1193968D01*
Y1159886D01*
X28382D01*
Y1193353D01*
X6253D01*
Y1159886D01*
X-5768D01*
Y1205305D01*
X29544D01*
X30158Y1205237D01*
D02*
G37*
G36*
X-11846Y1159886D02*
X-23867Y1159886D01*
Y1205305D01*
X-11846Y1205305D01*
Y1159886D01*
D02*
G37*
G36*
X-42308Y1205237D02*
X-41557Y1205100D01*
X-40669Y1204964D01*
X-39713Y1204691D01*
X-38688Y1204281D01*
X-37732Y1203803D01*
X-37595Y1203734D01*
X-37322Y1203530D01*
X-36844Y1203188D01*
X-36298Y1202710D01*
X-35615Y1202095D01*
X-34932Y1201412D01*
X-34317Y1200593D01*
X-33702Y1199636D01*
X-33634Y1199500D01*
X-33429Y1199158D01*
X-33224Y1198680D01*
X-32883Y1197929D01*
X-32609Y1197109D01*
X-32405Y1196153D01*
X-32200Y1195129D01*
X-32131Y1193967D01*
Y1171224D01*
Y1171087D01*
Y1170677D01*
X-32200Y1170062D01*
X-32336Y1169311D01*
X-32541Y1168423D01*
X-32814Y1167467D01*
X-33156Y1166511D01*
X-33702Y1165486D01*
X-33771Y1165350D01*
X-33975Y1165077D01*
X-34317Y1164599D01*
X-34795Y1164052D01*
X-35342Y1163369D01*
X-36025Y1162686D01*
X-36844Y1162003D01*
X-37732Y1161388D01*
X-37869Y1161320D01*
X-38142Y1161184D01*
X-38688Y1160910D01*
X-39371Y1160637D01*
X-40259Y1160364D01*
X-41215Y1160091D01*
X-42308Y1159954D01*
X-43469Y1159886D01*
X-67374D01*
X-67989Y1159954D01*
X-68740Y1160091D01*
X-69628Y1160227D01*
X-70584Y1160501D01*
X-71540Y1160910D01*
X-72565Y1161388D01*
X-72702Y1161457D01*
X-72975Y1161662D01*
X-73453Y1162003D01*
X-73999Y1162481D01*
X-74682Y1163096D01*
X-75365Y1163779D01*
X-76048Y1164599D01*
X-76663Y1165486D01*
X-76731Y1165623D01*
X-76936Y1165965D01*
X-77141Y1166443D01*
X-77414Y1167194D01*
X-77756Y1168014D01*
X-77961Y1169038D01*
X-78166Y1170062D01*
X-78234Y1171224D01*
Y1193967D01*
Y1194036D01*
Y1194104D01*
Y1194514D01*
X-78166Y1195129D01*
X-78029Y1195880D01*
X-77824Y1196768D01*
X-77551Y1197656D01*
X-77209Y1198680D01*
X-76663Y1199636D01*
X-76595Y1199773D01*
X-76390Y1200046D01*
X-76048Y1200524D01*
X-75570Y1201071D01*
X-74956Y1201754D01*
X-74272Y1202437D01*
X-73453Y1203120D01*
X-72565Y1203734D01*
X-72428Y1203803D01*
X-72087Y1204008D01*
X-71609Y1204213D01*
X-70858Y1204554D01*
X-70038Y1204827D01*
X-69013Y1205032D01*
X-67989Y1205237D01*
X-66828Y1205305D01*
X-42923D01*
X-42308Y1205237D01*
D02*
G37*
G36*
X-94148D02*
X-93397Y1205100D01*
X-92509Y1204896D01*
X-91552Y1204622D01*
X-90528Y1204281D01*
X-89572Y1203734D01*
X-89435Y1203666D01*
X-89162Y1203461D01*
X-88684Y1203120D01*
X-88069Y1202642D01*
X-87454Y1202027D01*
X-86771Y1201344D01*
X-86088Y1200524D01*
X-85474Y1199636D01*
X-85405Y1199500D01*
X-85201Y1199227D01*
X-84996Y1198680D01*
X-84654Y1197997D01*
X-84381Y1197178D01*
X-84176Y1196153D01*
X-83971Y1195129D01*
X-83903Y1193967D01*
Y1171224D01*
Y1171087D01*
Y1170677D01*
X-83971Y1170062D01*
X-84108Y1169311D01*
X-84313Y1168423D01*
X-84586Y1167467D01*
X-84927Y1166511D01*
X-85474Y1165486D01*
X-85542Y1165350D01*
X-85747Y1165077D01*
X-86088Y1164599D01*
X-86567Y1164052D01*
X-87113Y1163369D01*
X-87864Y1162686D01*
X-88615Y1162003D01*
X-89572Y1161388D01*
X-89708Y1161320D01*
X-90050Y1161184D01*
X-90528Y1160910D01*
X-91279Y1160637D01*
X-92099Y1160364D01*
X-93055Y1160091D01*
X-94148Y1159954D01*
X-95309Y1159886D01*
X-118053D01*
Y1141855D01*
X-130074D01*
Y1205305D01*
X-94763D01*
X-94148Y1205237D01*
D02*
G37*
G36*
X35103Y11857D02*
Y11748D01*
Y11529D01*
X35049Y11092D01*
X34994Y10601D01*
X34830Y10001D01*
X34666Y9345D01*
X34394Y8690D01*
X34066Y8035D01*
X34011Y7980D01*
X33902Y7762D01*
X33684Y7434D01*
X33356Y7052D01*
X32974Y6615D01*
X32483Y6178D01*
X31936Y5742D01*
X31336Y5359D01*
X31281Y5305D01*
X31063Y5196D01*
X30681Y5032D01*
X30244Y4868D01*
X29698Y4704D01*
X29043Y4540D01*
X28333Y4431D01*
X27569Y4377D01*
X-2844D01*
X-3280Y4431D01*
X-3772Y4486D01*
X-4372Y4595D01*
X-5028Y4814D01*
X-5683Y5032D01*
X-6338Y5359D01*
X-6393Y5414D01*
X-6611Y5523D01*
X-6939Y5742D01*
X-7321Y6069D01*
X-7758Y6452D01*
X-8194Y6888D01*
X-8631Y7434D01*
X-9068Y8035D01*
X-9123Y8089D01*
X-9232Y8363D01*
X-9396Y8690D01*
X-9559Y9181D01*
X-9723Y9727D01*
X-9887Y10383D01*
X-9996Y11092D01*
X-10051Y11857D01*
Y49476D01*
X-4973D01*
Y11857D01*
Y11802D01*
Y11693D01*
X-4918Y11529D01*
X-4864Y11256D01*
X-4646Y10710D01*
X-4482Y10383D01*
X-4263Y10110D01*
X-4209Y10055D01*
X-4099Y10001D01*
X-3990Y9891D01*
X-3772Y9782D01*
X-3226Y9509D01*
X-2898Y9454D01*
X-2516Y9400D01*
X27732D01*
X27951Y9454D01*
X28169Y9509D01*
X28770Y9727D01*
X29043Y9891D01*
X29316Y10110D01*
X29370Y10164D01*
X29425Y10274D01*
X29534Y10383D01*
X29698Y10601D01*
X29916Y11147D01*
X29971Y11475D01*
X30026Y11857D01*
Y49476D01*
X35103D01*
Y11857D01*
D02*
G37*
G36*
X194481Y49422D02*
X194972Y49367D01*
X195573Y49203D01*
X196173Y49039D01*
X196828Y48767D01*
X197484Y48439D01*
X197538Y48384D01*
X197757Y48275D01*
X198084Y48057D01*
X198466Y47729D01*
X198903Y47347D01*
X199395Y46855D01*
X199832Y46309D01*
X200214Y45709D01*
X200268Y45654D01*
X200377Y45436D01*
X200541Y45054D01*
X200760Y44617D01*
X200923Y44071D01*
X201087Y43416D01*
X201196Y42706D01*
X201251Y41941D01*
Y11857D01*
Y11748D01*
Y11529D01*
X201196Y11092D01*
X201142Y10601D01*
X200978Y10001D01*
X200814Y9345D01*
X200541Y8690D01*
X200214Y8035D01*
X200159Y7980D01*
X200050Y7762D01*
X199832Y7434D01*
X199504Y7052D01*
X199122Y6615D01*
X198630Y6178D01*
X198084Y5742D01*
X197484Y5359D01*
X197429Y5305D01*
X197211Y5196D01*
X196828Y5032D01*
X196392Y4868D01*
X195846Y4704D01*
X195190Y4540D01*
X194481Y4431D01*
X193716Y4377D01*
X163304D01*
X162867Y4431D01*
X162376Y4486D01*
X161775Y4595D01*
X161120Y4814D01*
X160465Y5032D01*
X159810Y5359D01*
X159755Y5414D01*
X159537Y5523D01*
X159209Y5742D01*
X158827Y6069D01*
X158390Y6452D01*
X157953Y6888D01*
X157517Y7434D01*
X157080Y8035D01*
X157025Y8089D01*
X156916Y8363D01*
X156752Y8690D01*
X156588Y9181D01*
X156424Y9727D01*
X156261Y10383D01*
X156151Y11092D01*
X156097Y11857D01*
Y41941D01*
Y42051D01*
Y42269D01*
X156151Y42706D01*
X156206Y43197D01*
X156315Y43798D01*
X156534Y44398D01*
X156752Y45054D01*
X157080Y45709D01*
X157134Y45764D01*
X157244Y45982D01*
X157517Y46309D01*
X157790Y46692D01*
X158226Y47129D01*
X158663Y47620D01*
X159209Y48057D01*
X159810Y48439D01*
X159864Y48493D01*
X160137Y48603D01*
X160465Y48767D01*
X160956Y48985D01*
X161502Y49149D01*
X162157Y49312D01*
X162867Y49422D01*
X163632Y49476D01*
X194044D01*
X194481Y49422D01*
D02*
G37*
G36*
X151511Y44398D02*
X131527D01*
Y4377D01*
X126449D01*
Y44398D01*
X106356D01*
Y49476D01*
X151511D01*
Y44398D01*
D02*
G37*
G36*
X80367Y49367D02*
X80913Y49312D01*
X81459Y49149D01*
X82114Y48985D01*
X82769Y48712D01*
X83424Y48384D01*
X83479Y48330D01*
X83697Y48221D01*
X84025Y47947D01*
X84407Y47675D01*
X84844Y47238D01*
X85335Y46801D01*
X85772Y46255D01*
X86154Y45654D01*
X86209Y45600D01*
X86318Y45381D01*
X86482Y44999D01*
X86646Y44562D01*
X86809Y44016D01*
X86973Y43361D01*
X87082Y42651D01*
X87137Y41887D01*
Y28674D01*
Y28564D01*
Y28346D01*
X87082Y27909D01*
X87028Y27418D01*
X86919Y26817D01*
X86700Y26217D01*
X86482Y25561D01*
X86154Y24906D01*
X86100Y24852D01*
X85990Y24633D01*
X85772Y24306D01*
X85445Y23924D01*
X85062Y23487D01*
X84571Y23050D01*
X84025Y22613D01*
X83424Y22176D01*
X83370Y22122D01*
X83097Y22012D01*
X82769Y21849D01*
X82278Y21685D01*
X81732Y21466D01*
X81076Y21303D01*
X80421Y21194D01*
X79657Y21139D01*
X47115D01*
Y4377D01*
X42038D01*
Y49422D01*
X79984D01*
X80367Y49367D01*
D02*
G37*
G36*
X35595Y-9830D02*
X-2571D01*
X-2789Y-9885D01*
X-3007Y-9939D01*
X-3554Y-10103D01*
X-3881Y-10322D01*
X-4154Y-10540D01*
X-4209Y-10595D01*
X-4263Y-10649D01*
X-4372Y-10813D01*
X-4482Y-11031D01*
X-4755Y-11577D01*
X-4809Y-11905D01*
X-4864Y-12287D01*
Y-21515D01*
Y-21569D01*
Y-21678D01*
X-4809Y-21842D01*
X-4755Y-22115D01*
X-4536Y-22661D01*
X-4372Y-22989D01*
X-4154Y-23262D01*
X-4099Y-23316D01*
X-4045Y-23371D01*
X-3881Y-23480D01*
X-3663Y-23644D01*
X-3117Y-23917D01*
X-2789Y-23972D01*
X-2407Y-24026D01*
X28333D01*
X28770Y-24081D01*
X29261Y-24135D01*
X29862Y-24245D01*
X30462Y-24463D01*
X31117Y-24681D01*
X31773Y-25009D01*
X31827Y-25064D01*
X32046Y-25173D01*
X32373Y-25391D01*
X32755Y-25719D01*
X33247Y-26101D01*
X33684Y-26592D01*
X34120Y-27138D01*
X34557Y-27739D01*
X34612Y-27794D01*
X34721Y-28012D01*
X34885Y-28394D01*
X35103Y-28831D01*
X35267Y-29432D01*
X35431Y-30087D01*
X35540Y-30797D01*
X35595Y-31561D01*
Y-42263D01*
Y-42372D01*
Y-42590D01*
X35540Y-42972D01*
X35486Y-43464D01*
X35322Y-44064D01*
X35158Y-44720D01*
X34885Y-45375D01*
X34557Y-46030D01*
X34503Y-46085D01*
X34394Y-46303D01*
X34120Y-46631D01*
X33847Y-47013D01*
X33411Y-47450D01*
X32974Y-47941D01*
X32373Y-48378D01*
X31773Y-48815D01*
X31718Y-48869D01*
X31500Y-48978D01*
X31117Y-49142D01*
X30681Y-49306D01*
X30135Y-49470D01*
X29480Y-49634D01*
X28770Y-49743D01*
X28005Y-49797D01*
X-2789D01*
X-3171Y-49743D01*
X-3663Y-49688D01*
X-4263Y-49579D01*
X-4918Y-49361D01*
X-5628Y-49142D01*
X-6284Y-48815D01*
X-6338Y-48760D01*
X-6556Y-48596D01*
X-6884Y-48378D01*
X-7266Y-48050D01*
X-7703Y-47668D01*
X-8140Y-47177D01*
X-8577Y-46631D01*
X-9014Y-46030D01*
X-9068Y-45975D01*
X-9177Y-45702D01*
X-9341Y-45375D01*
X-9505Y-44883D01*
X-9669Y-44337D01*
X-9832Y-43682D01*
X-9942Y-43027D01*
X-9996Y-42263D01*
Y-40406D01*
X-4864D01*
Y-42263D01*
Y-42317D01*
Y-42426D01*
X-4809Y-42590D01*
X-4755Y-42863D01*
X-4536Y-43409D01*
X-4372Y-43682D01*
X-4154Y-43955D01*
X-4099Y-44010D01*
X-4045Y-44064D01*
X-3881Y-44174D01*
X-3663Y-44283D01*
X-3117Y-44556D01*
X-2789Y-44610D01*
X-2407Y-44665D01*
X28169D01*
X28333Y-44610D01*
X28606Y-44556D01*
X29152Y-44337D01*
X29425Y-44174D01*
X29698Y-43955D01*
X29753Y-43901D01*
X29807Y-43846D01*
X29916Y-43682D01*
X30080Y-43464D01*
X30299Y-42918D01*
X30353Y-42590D01*
X30408Y-42263D01*
Y-31561D01*
Y-31506D01*
Y-31397D01*
X30353Y-31233D01*
X30299Y-30960D01*
X30135Y-30414D01*
X29916Y-30141D01*
X29698Y-29868D01*
X29643Y-29814D01*
X29589Y-29759D01*
X29425Y-29650D01*
X29206Y-29486D01*
X28660Y-29268D01*
X28387Y-29213D01*
X28005Y-29159D01*
X-9996D01*
Y-4643D01*
X35595D01*
Y-9830D01*
D02*
G37*
G36*
X177282Y-49797D02*
X171385D01*
X145286Y-4698D01*
X151238D01*
X174333Y-44883D01*
X197429Y-4698D01*
X203381D01*
X177282Y-49797D01*
D02*
G37*
G36*
X133110Y-4752D02*
X133602Y-4807D01*
X134202Y-4971D01*
X134803Y-5135D01*
X135458Y-5408D01*
X136113Y-5735D01*
X136168Y-5790D01*
X136386Y-5899D01*
X136714Y-6172D01*
X137096Y-6445D01*
X137588Y-6882D01*
X138024Y-7319D01*
X138461Y-7919D01*
X138898Y-8520D01*
X138952Y-8574D01*
X139062Y-8793D01*
X139226Y-9175D01*
X139444Y-9612D01*
X139608Y-10212D01*
X139772Y-10868D01*
X139881Y-11577D01*
X139935Y-12342D01*
Y-42263D01*
Y-42372D01*
Y-42590D01*
X139881Y-42972D01*
X139826Y-43464D01*
X139662Y-44064D01*
X139499Y-44720D01*
X139226Y-45375D01*
X138898Y-46030D01*
X138843Y-46085D01*
X138734Y-46303D01*
X138461Y-46631D01*
X138188Y-47013D01*
X137751Y-47450D01*
X137315Y-47941D01*
X136714Y-48378D01*
X136113Y-48815D01*
X136059Y-48869D01*
X135840Y-48978D01*
X135458Y-49142D01*
X135021Y-49306D01*
X134475Y-49470D01*
X133820Y-49634D01*
X133110Y-49743D01*
X132346Y-49797D01*
X101552D01*
X101169Y-49743D01*
X100678Y-49688D01*
X100077Y-49579D01*
X99422Y-49361D01*
X98712Y-49142D01*
X98057Y-48815D01*
X98002Y-48760D01*
X97784Y-48596D01*
X97457Y-48378D01*
X97074Y-48050D01*
X96638Y-47668D01*
X96201Y-47177D01*
X95764Y-46631D01*
X95327Y-46030D01*
X95272Y-45975D01*
X95163Y-45702D01*
X94999Y-45375D01*
X94836Y-44883D01*
X94672Y-44337D01*
X94508Y-43682D01*
X94399Y-43027D01*
X94344Y-42263D01*
Y-12342D01*
Y-12233D01*
Y-11960D01*
X94399Y-11577D01*
X94454Y-11086D01*
X94563Y-10485D01*
X94781Y-9830D01*
X94999Y-9175D01*
X95327Y-8520D01*
X95382Y-8465D01*
X95491Y-8247D01*
X95764Y-7919D01*
X96037Y-7537D01*
X96474Y-7046D01*
X96910Y-6609D01*
X97457Y-6172D01*
X98057Y-5735D01*
X98112Y-5681D01*
X98385Y-5571D01*
X98712Y-5408D01*
X99204Y-5189D01*
X99750Y-5025D01*
X100405Y-4862D01*
X101169Y-4752D01*
X101934Y-4698D01*
X132673D01*
X133110Y-4752D01*
D02*
G37*
G36*
X80803D02*
X81295Y-4807D01*
X81895Y-4971D01*
X82496Y-5135D01*
X83151Y-5408D01*
X83806Y-5735D01*
X83861Y-5790D01*
X84079Y-5899D01*
X84407Y-6172D01*
X84789Y-6445D01*
X85281Y-6882D01*
X85718Y-7319D01*
X86154Y-7919D01*
X86591Y-8520D01*
X86646Y-8574D01*
X86755Y-8793D01*
X86919Y-9175D01*
X87137Y-9612D01*
X87301Y-10212D01*
X87465Y-10868D01*
X87574Y-11577D01*
X87629Y-12342D01*
Y-42263D01*
Y-42372D01*
Y-42590D01*
X87574Y-42972D01*
X87519Y-43464D01*
X87356Y-44064D01*
X87192Y-44720D01*
X86919Y-45375D01*
X86591Y-46030D01*
X86537Y-46085D01*
X86427Y-46303D01*
X86154Y-46631D01*
X85881Y-47013D01*
X85445Y-47450D01*
X85008Y-47941D01*
X84407Y-48378D01*
X83806Y-48815D01*
X83752Y-48869D01*
X83534Y-48978D01*
X83151Y-49142D01*
X82715Y-49306D01*
X82168Y-49470D01*
X81513Y-49634D01*
X80803Y-49743D01*
X80039Y-49797D01*
X49245D01*
X48862Y-49743D01*
X48371Y-49688D01*
X47770Y-49579D01*
X47115Y-49361D01*
X46406Y-49142D01*
X45750Y-48815D01*
X45696Y-48760D01*
X45477Y-48596D01*
X45150Y-48378D01*
X44767Y-48050D01*
X44331Y-47668D01*
X43894Y-47177D01*
X43457Y-46631D01*
X43020Y-46030D01*
X42966Y-45975D01*
X42856Y-45702D01*
X42693Y-45375D01*
X42529Y-44883D01*
X42365Y-44337D01*
X42201Y-43682D01*
X42092Y-43027D01*
X42038Y-42263D01*
Y-12342D01*
Y-12233D01*
Y-11960D01*
X42092Y-11577D01*
X42147Y-11086D01*
X42256Y-10485D01*
X42474Y-9830D01*
X42693Y-9175D01*
X43020Y-8520D01*
X43075Y-8465D01*
X43184Y-8247D01*
X43457Y-7919D01*
X43730Y-7537D01*
X44167Y-7046D01*
X44604Y-6609D01*
X45150Y-6172D01*
X45750Y-5735D01*
X45805Y-5681D01*
X46078Y-5571D01*
X46406Y-5408D01*
X46897Y-5189D01*
X47443Y-5025D01*
X48098Y-4862D01*
X48862Y-4752D01*
X49627Y-4698D01*
X80367D01*
X80803Y-4752D01*
D02*
G37*
G36*
X324320Y111078D02*
X324920Y110969D01*
X325575Y110860D01*
X326285Y110641D01*
X327050Y110314D01*
X327814Y109931D01*
X327923Y109877D01*
X328142Y109713D01*
X328524Y109440D01*
X328961Y109112D01*
X329452Y108621D01*
X329998Y108075D01*
X330544Y107474D01*
X330981Y106765D01*
X331035Y106655D01*
X331144Y106437D01*
X331363Y106000D01*
X331581Y105509D01*
X331800Y104854D01*
X332018Y104089D01*
X332127Y103270D01*
X332182Y102397D01*
Y98902D01*
X323883D01*
Y102069D01*
Y102124D01*
Y102287D01*
X323774Y102451D01*
X323664Y102615D01*
X323610Y102670D01*
X323500Y102724D01*
X323337Y102779D01*
X295709D01*
X295545Y102615D01*
X295491Y102560D01*
X295436Y102451D01*
X295382Y102287D01*
X295327Y102069D01*
Y75097D01*
Y75042D01*
X295382Y74878D01*
X295436Y74660D01*
X295545Y74496D01*
X295600Y74441D01*
X295709Y74387D01*
X295873Y74332D01*
X323282D01*
X323500Y74387D01*
X323664Y74496D01*
X323719Y74551D01*
X323774Y74660D01*
X323828Y74824D01*
X323883Y75097D01*
Y83232D01*
X313673D01*
Y91531D01*
X332182Y91586D01*
Y74714D01*
Y74605D01*
Y74332D01*
X332127Y73841D01*
X332018Y73295D01*
X331909Y72585D01*
X331690Y71875D01*
X331363Y71111D01*
X330981Y70346D01*
X330926Y70237D01*
X330762Y70019D01*
X330489Y69637D01*
X330162Y69200D01*
X329725Y68708D01*
X329179Y68162D01*
X328524Y67671D01*
X327814Y67180D01*
X327705Y67125D01*
X327486Y67016D01*
X327050Y66797D01*
X326558Y66634D01*
X325903Y66415D01*
X325139Y66197D01*
X324320Y66088D01*
X323446Y66033D01*
X295382D01*
X294890Y66088D01*
X294344Y66197D01*
X293689Y66306D01*
X292925Y66524D01*
X292160Y66797D01*
X291396Y67180D01*
X291286Y67234D01*
X291068Y67398D01*
X290686Y67671D01*
X290249Y68053D01*
X289758Y68490D01*
X289212Y69036D01*
X288720Y69637D01*
X288229Y70346D01*
X288174Y70456D01*
X288065Y70674D01*
X287847Y71111D01*
X287683Y71657D01*
X287464Y72257D01*
X287246Y73022D01*
X287137Y73841D01*
X287082Y74714D01*
Y102397D01*
Y102451D01*
Y102506D01*
Y102779D01*
X287137Y103270D01*
X287246Y103871D01*
X287355Y104526D01*
X287574Y105236D01*
X287847Y106000D01*
X288229Y106765D01*
X288284Y106874D01*
X288447Y107092D01*
X288720Y107474D01*
X289103Y107911D01*
X289539Y108403D01*
X290085Y108949D01*
X290686Y109440D01*
X291396Y109931D01*
X291505Y109986D01*
X291723Y110095D01*
X292160Y110314D01*
X292706Y110532D01*
X293361Y110750D01*
X294071Y110969D01*
X294890Y111078D01*
X295764Y111133D01*
X323828D01*
X324320Y111078D01*
D02*
G37*
G36*
X347197Y94261D02*
X338952D01*
Y102506D01*
X347142Y102560D01*
X347197Y94261D01*
D02*
G37*
G36*
X154896Y111023D02*
X155496Y110914D01*
X156151Y110805D01*
X156861Y110587D01*
X157626Y110259D01*
X158390Y109877D01*
X158499Y109822D01*
X158718Y109658D01*
X159100Y109385D01*
X159537Y109058D01*
X160028Y108566D01*
X160574Y108020D01*
X161120Y107420D01*
X161557Y106710D01*
X161612Y106601D01*
X161721Y106382D01*
X161939Y105945D01*
X162157Y105454D01*
X162376Y104799D01*
X162594Y104034D01*
X162703Y103216D01*
X162758Y102342D01*
Y90221D01*
Y90112D01*
Y89838D01*
X162703Y89347D01*
X162594Y88746D01*
X162485Y88091D01*
X162267Y87327D01*
X161939Y86562D01*
X161557Y85798D01*
X161502Y85689D01*
X161339Y85471D01*
X161065Y85088D01*
X160738Y84651D01*
X160301Y84160D01*
X159755Y83614D01*
X159100Y83123D01*
X158390Y82631D01*
X158281Y82577D01*
X158062Y82468D01*
X157626Y82249D01*
X157134Y82085D01*
X156479Y81867D01*
X155715Y81648D01*
X154896Y81539D01*
X154022Y81485D01*
X151507Y81480D01*
X150855Y82249D01*
X140044D01*
X140707Y81459D01*
X125903Y81430D01*
Y66033D01*
X117659D01*
Y111078D01*
X154404D01*
X154896Y111023D01*
D02*
G37*
G36*
X42802Y66033D02*
X36304D01*
X24566Y97974D01*
X12936Y66033D01*
X6384D01*
X-9996Y111132D01*
X-1260D01*
X9660Y81376D01*
X20580Y111132D01*
X28660D01*
X39581Y81376D01*
X50391Y111132D01*
X59236D01*
X42802Y66033D01*
D02*
G37*
G36*
X280039Y66033D02*
X270975Y66033D01*
X243184Y99066D01*
Y66033D01*
X234939D01*
Y111132D01*
X244003D01*
X271740Y78154D01*
Y111132D01*
X280039Y111133D01*
Y66033D01*
D02*
G37*
G36*
X214464Y66033D02*
X205401D01*
X177609Y99066D01*
Y66033D01*
X169365D01*
Y111132D01*
X178428D01*
X206165Y78154D01*
Y111132D01*
X214464D01*
Y66033D01*
D02*
G37*
G36*
X347142Y74168D02*
X347197Y66033D01*
X338952D01*
Y74223D01*
X347142Y74168D01*
D02*
G37*
G36*
X228824Y66033D02*
X220634D01*
Y111132D01*
X228824D01*
Y66033D01*
D02*
G37*
G36*
X162649Y68326D02*
X162594Y66033D01*
X153640D01*
X140707Y81459D01*
X151507Y81480D01*
X162649Y68326D01*
D02*
G37*
G36*
X102589Y111078D02*
X103189Y110969D01*
X103899Y110859D01*
X104609Y110641D01*
X105374Y110314D01*
X106138Y109931D01*
X106247Y109877D01*
X106466Y109713D01*
X106848Y109440D01*
X107284Y109112D01*
X107776Y108621D01*
X108322Y108075D01*
X108813Y107474D01*
X109305Y106764D01*
X109359Y106655D01*
X109469Y106437D01*
X109687Y106000D01*
X109905Y105509D01*
X110124Y104853D01*
X110342Y104089D01*
X110451Y103270D01*
X110506Y102397D01*
Y66033D01*
X102152D01*
Y81157D01*
X73651D01*
Y66033D01*
X65352D01*
Y102397D01*
Y102451D01*
Y102506D01*
Y102779D01*
X65406Y103270D01*
X65516Y103871D01*
X65625Y104526D01*
X65843Y105236D01*
X66171Y106000D01*
X66553Y106764D01*
X66608Y106874D01*
X66771Y107092D01*
X67044Y107474D01*
X67427Y107911D01*
X67863Y108403D01*
X68409Y108948D01*
X69010Y109440D01*
X69720Y109931D01*
X69829Y109986D01*
X70047Y110095D01*
X70484Y110314D01*
X71030Y110532D01*
X71631Y110750D01*
X72395Y110969D01*
X73214Y111078D01*
X74088Y111132D01*
X102152D01*
X102589Y111078D01*
D02*
G37*
G36*
X-196191Y346846D02*
X-195722Y346761D01*
X-195168Y346633D01*
X-194529Y346463D01*
X-193933Y346250D01*
X-193294Y345909D01*
X-193209Y345867D01*
X-193038Y345739D01*
X-192697Y345526D01*
X-192357Y345228D01*
X-191931Y344844D01*
X-191462Y344376D01*
X-191036Y343864D01*
X-190653Y343268D01*
X-190610Y343183D01*
X-190482Y342970D01*
X-190312Y342672D01*
X-190142Y342203D01*
X-189971Y341692D01*
X-189801Y341053D01*
X-189673Y340371D01*
X-189630Y339647D01*
Y336324D01*
X-197298D01*
Y339264D01*
X-217235D01*
Y319327D01*
X-197298D01*
Y324609D01*
X-204924D01*
Y332235D01*
X-189630D01*
Y318901D01*
Y318858D01*
Y318816D01*
Y318560D01*
X-189673Y318177D01*
X-189758Y317708D01*
X-189886Y317112D01*
X-190056Y316515D01*
X-190312Y315876D01*
X-190653Y315237D01*
X-190695Y315152D01*
X-190823Y314982D01*
X-191036Y314683D01*
X-191334Y314300D01*
X-191718Y313874D01*
X-192186Y313448D01*
X-192697Y313022D01*
X-193294Y312639D01*
X-193379Y312596D01*
X-193592Y312511D01*
X-193890Y312340D01*
X-194359Y312170D01*
X-194870Y312000D01*
X-195509Y311829D01*
X-196191Y311744D01*
X-196915Y311701D01*
X-217917D01*
X-218300Y311744D01*
X-218769Y311829D01*
X-219365Y311914D01*
X-219962Y312085D01*
X-220601Y312340D01*
X-221239Y312639D01*
X-221325Y312681D01*
X-221495Y312809D01*
X-221793Y313022D01*
X-222177Y313320D01*
X-222603Y313704D01*
X-223029Y314130D01*
X-223455Y314683D01*
X-223838Y315237D01*
X-223881Y315322D01*
X-224008Y315535D01*
X-224136Y315876D01*
X-224307Y316302D01*
X-224520Y316856D01*
X-224648Y317495D01*
X-224775Y318177D01*
X-224818Y318901D01*
Y339647D01*
Y339690D01*
Y339732D01*
Y339988D01*
X-224775Y340371D01*
X-224690Y340840D01*
X-224562Y341394D01*
X-224392Y342033D01*
X-224179Y342629D01*
X-223838Y343268D01*
X-223796Y343353D01*
X-223668Y343524D01*
X-223455Y343864D01*
X-223156Y344205D01*
X-222773Y344631D01*
X-222347Y345100D01*
X-221793Y345526D01*
X-221239Y345909D01*
X-221154Y345952D01*
X-220941Y346080D01*
X-220601Y346207D01*
X-220174Y346420D01*
X-219621Y346591D01*
X-218982Y346719D01*
X-218300Y346846D01*
X-217576Y346889D01*
X-196574D01*
X-196191Y346846D01*
D02*
G37*
G36*
X-155465D02*
X-154996Y346761D01*
X-154443Y346633D01*
X-153804Y346463D01*
X-153207Y346250D01*
X-152568Y345909D01*
X-152483Y345867D01*
X-152313Y345739D01*
X-151972Y345526D01*
X-151631Y345228D01*
X-151205Y344844D01*
X-150737Y344376D01*
X-150310Y343864D01*
X-149927Y343268D01*
X-149885Y343183D01*
X-149757Y342970D01*
X-149586Y342672D01*
X-149416Y342203D01*
X-149245Y341692D01*
X-149075Y341053D01*
X-148947Y340371D01*
X-148905Y339647D01*
Y318901D01*
Y318858D01*
Y318816D01*
Y318560D01*
X-148947Y318177D01*
X-149032Y317708D01*
X-149160Y317112D01*
X-149331Y316515D01*
X-149586Y315876D01*
X-149927Y315237D01*
X-149970Y315152D01*
X-150097Y314982D01*
X-150310Y314683D01*
X-150609Y314300D01*
X-150992Y313874D01*
X-151461Y313448D01*
X-151972Y313022D01*
X-152568Y312639D01*
X-152654Y312596D01*
X-152867Y312511D01*
X-153165Y312340D01*
X-153633Y312170D01*
X-154144Y312000D01*
X-154784Y311829D01*
X-155465Y311744D01*
X-156189Y311701D01*
X-184135D01*
Y346889D01*
X-155849D01*
X-155465Y346846D01*
D02*
G37*
G36*
X-196148Y304579D02*
X-195679Y304493D01*
X-195126Y304366D01*
X-194487Y304195D01*
X-193890Y303982D01*
X-193251Y303642D01*
X-193166Y303599D01*
X-192996Y303471D01*
X-192697Y303258D01*
X-192314Y302960D01*
X-191888Y302577D01*
X-191462Y302108D01*
X-191036Y301597D01*
X-190653Y301000D01*
X-190610Y300915D01*
X-190482Y300702D01*
X-190312Y300404D01*
X-190142Y299935D01*
X-189971Y299424D01*
X-189801Y298785D01*
X-189673Y298103D01*
X-189630Y297379D01*
Y294099D01*
X-197298D01*
Y296996D01*
X-217278D01*
Y290819D01*
X-196531D01*
X-196148Y290776D01*
X-195679Y290691D01*
X-195126Y290563D01*
X-194487Y290393D01*
X-193890Y290180D01*
X-193251Y289839D01*
X-193166Y289796D01*
X-192996Y289669D01*
X-192697Y289456D01*
X-192314Y289158D01*
X-191888Y288774D01*
X-191462Y288305D01*
X-191036Y287794D01*
X-190653Y287198D01*
X-190610Y287113D01*
X-190482Y286900D01*
X-190312Y286559D01*
X-190142Y286133D01*
X-189971Y285579D01*
X-189801Y284983D01*
X-189673Y284301D01*
X-189630Y283577D01*
Y276633D01*
Y276591D01*
Y276548D01*
Y276292D01*
X-189673Y275909D01*
X-189758Y275440D01*
X-189886Y274844D01*
X-190056Y274248D01*
X-190312Y273608D01*
X-190653Y272969D01*
X-190695Y272884D01*
X-190823Y272714D01*
X-191036Y272416D01*
X-191334Y272032D01*
X-191718Y271606D01*
X-192144Y271180D01*
X-192655Y270754D01*
X-193251Y270371D01*
X-193337Y270328D01*
X-193549Y270243D01*
X-193848Y270073D01*
X-194316Y269902D01*
X-194827Y269732D01*
X-195466Y269562D01*
X-196148Y269476D01*
X-196872Y269434D01*
X-217959D01*
X-218343Y269476D01*
X-218811Y269562D01*
X-219408Y269647D01*
X-220004Y269817D01*
X-220643Y270073D01*
X-221282Y270371D01*
X-221367Y270413D01*
X-221538Y270541D01*
X-221836Y270754D01*
X-222219Y271053D01*
X-222645Y271436D01*
X-223071Y271862D01*
X-223497Y272416D01*
X-223881Y272969D01*
X-223923Y273055D01*
X-224051Y273268D01*
X-224179Y273608D01*
X-224349Y274034D01*
X-224562Y274588D01*
X-224690Y275227D01*
X-224818Y275909D01*
X-224861Y276633D01*
Y279913D01*
X-217278D01*
Y277059D01*
X-197298D01*
Y283193D01*
X-217959D01*
X-218343Y283236D01*
X-218811Y283321D01*
X-219408Y283449D01*
X-220004Y283620D01*
X-220643Y283832D01*
X-221282Y284173D01*
X-221367Y284216D01*
X-221538Y284344D01*
X-221836Y284557D01*
X-222219Y284855D01*
X-222645Y285238D01*
X-223071Y285707D01*
X-223497Y286218D01*
X-223881Y286815D01*
X-223923Y286900D01*
X-224051Y287113D01*
X-224179Y287454D01*
X-224349Y287880D01*
X-224562Y288433D01*
X-224690Y289030D01*
X-224818Y289711D01*
X-224861Y290435D01*
Y297379D01*
Y297422D01*
Y297464D01*
Y297720D01*
X-224818Y298103D01*
X-224733Y298572D01*
X-224605Y299126D01*
X-224435Y299765D01*
X-224221Y300361D01*
X-223881Y301000D01*
X-223838Y301086D01*
X-223710Y301256D01*
X-223497Y301597D01*
X-223199Y301938D01*
X-222816Y302363D01*
X-222390Y302832D01*
X-221836Y303258D01*
X-221282Y303642D01*
X-221197Y303684D01*
X-220984Y303812D01*
X-220643Y303940D01*
X-220217Y304153D01*
X-219663Y304323D01*
X-219024Y304451D01*
X-218343Y304579D01*
X-217619Y304621D01*
X-196531D01*
X-196148Y304579D01*
D02*
G37*
G36*
X-136380Y277059D02*
X-108733D01*
Y269434D01*
X-143963D01*
Y304664D01*
X-136380D01*
Y277059D01*
D02*
G37*
G36*
X-149118Y296996D02*
X-175317D01*
X-175487Y296953D01*
X-175870Y296825D01*
X-176254Y296613D01*
X-176297Y296527D01*
X-176424Y296314D01*
X-176595Y295931D01*
X-176637Y295675D01*
Y295377D01*
Y278635D01*
Y278593D01*
Y278507D01*
X-176595Y278380D01*
Y278209D01*
X-176467Y277826D01*
X-176254Y277442D01*
X-176169Y277400D01*
X-175956Y277272D01*
X-175572Y277102D01*
X-175018Y277059D01*
X-149118D01*
Y269434D01*
X-177319D01*
X-177702Y269476D01*
X-178171Y269562D01*
X-178767Y269647D01*
X-179364Y269817D01*
X-180003Y270073D01*
X-180642Y270371D01*
X-180727Y270413D01*
X-180897Y270541D01*
X-181196Y270754D01*
X-181579Y271053D01*
X-182005Y271436D01*
X-182431Y271862D01*
X-182857Y272416D01*
X-183240Y272969D01*
X-183283Y273055D01*
X-183411Y273268D01*
X-183538Y273608D01*
X-183709Y274034D01*
X-183922Y274588D01*
X-184050Y275227D01*
X-184178Y275909D01*
X-184220Y276633D01*
Y297379D01*
Y297422D01*
Y297464D01*
Y297720D01*
X-184178Y298103D01*
X-184092Y298572D01*
X-183964Y299126D01*
X-183794Y299765D01*
X-183581Y300361D01*
X-183240Y301000D01*
X-183198Y301086D01*
X-183070Y301256D01*
X-182857Y301597D01*
X-182559Y301938D01*
X-182175Y302363D01*
X-181749Y302832D01*
X-181196Y303258D01*
X-180642Y303642D01*
X-180556Y303684D01*
X-180344Y303812D01*
X-180003Y303940D01*
X-179577Y304153D01*
X-179023Y304323D01*
X-178384Y304451D01*
X-177702Y304579D01*
X-176978Y304621D01*
X-149118D01*
Y296996D01*
D02*
G37*
G36*
X-196148Y262354D02*
X-195679Y262268D01*
X-195126Y262141D01*
X-194487Y261970D01*
X-193890Y261757D01*
X-193251Y261416D01*
X-193166Y261374D01*
X-192996Y261246D01*
X-192697Y261033D01*
X-192314Y260735D01*
X-191888Y260351D01*
X-191462Y259883D01*
X-191036Y259372D01*
X-190653Y258775D01*
X-190610Y258690D01*
X-190482Y258477D01*
X-190312Y258179D01*
X-190142Y257710D01*
X-189971Y257199D01*
X-189801Y256560D01*
X-189673Y255878D01*
X-189630Y255154D01*
Y251874D01*
X-197298D01*
Y254771D01*
X-217278D01*
Y248594D01*
X-196531D01*
X-196148Y248551D01*
X-195679Y248466D01*
X-195126Y248338D01*
X-194487Y248168D01*
X-193890Y247955D01*
X-193251Y247614D01*
X-193166Y247571D01*
X-192996Y247444D01*
X-192697Y247231D01*
X-192314Y246932D01*
X-191888Y246549D01*
X-191462Y246080D01*
X-191036Y245569D01*
X-190653Y244973D01*
X-190610Y244888D01*
X-190482Y244675D01*
X-190312Y244334D01*
X-190142Y243908D01*
X-189971Y243354D01*
X-189801Y242758D01*
X-189673Y242076D01*
X-189630Y241352D01*
Y234408D01*
Y234365D01*
Y234323D01*
Y234067D01*
X-189673Y233684D01*
X-189758Y233215D01*
X-189886Y232619D01*
X-190056Y232022D01*
X-190312Y231383D01*
X-190653Y230744D01*
X-190695Y230659D01*
X-190823Y230489D01*
X-191036Y230191D01*
X-191334Y229807D01*
X-191718Y229381D01*
X-192144Y228955D01*
X-192655Y228529D01*
X-193251Y228146D01*
X-193337Y228103D01*
X-193549Y228018D01*
X-193848Y227848D01*
X-194316Y227677D01*
X-194827Y227507D01*
X-195466Y227336D01*
X-196148Y227251D01*
X-196872Y227209D01*
X-217959D01*
X-218343Y227251D01*
X-218811Y227336D01*
X-219408Y227422D01*
X-220004Y227592D01*
X-220643Y227848D01*
X-221282Y228146D01*
X-221367Y228188D01*
X-221538Y228316D01*
X-221836Y228529D01*
X-222219Y228827D01*
X-222645Y229211D01*
X-223071Y229637D01*
X-223497Y230191D01*
X-223881Y230744D01*
X-223923Y230830D01*
X-224051Y231043D01*
X-224179Y231383D01*
X-224349Y231809D01*
X-224562Y232363D01*
X-224690Y233002D01*
X-224818Y233684D01*
X-224861Y234408D01*
Y237688D01*
X-217278D01*
Y234834D01*
X-197298D01*
Y240968D01*
X-217959D01*
X-218343Y241011D01*
X-218811Y241096D01*
X-219408Y241224D01*
X-220004Y241394D01*
X-220643Y241607D01*
X-221282Y241948D01*
X-221367Y241991D01*
X-221538Y242119D01*
X-221836Y242332D01*
X-222219Y242630D01*
X-222645Y243013D01*
X-223071Y243482D01*
X-223497Y243993D01*
X-223881Y244589D01*
X-223923Y244675D01*
X-224051Y244888D01*
X-224179Y245228D01*
X-224349Y245654D01*
X-224562Y246208D01*
X-224690Y246805D01*
X-224818Y247486D01*
X-224861Y248210D01*
Y255154D01*
Y255197D01*
Y255239D01*
Y255495D01*
X-224818Y255878D01*
X-224733Y256347D01*
X-224605Y256901D01*
X-224435Y257540D01*
X-224221Y258136D01*
X-223881Y258775D01*
X-223838Y258860D01*
X-223710Y259031D01*
X-223497Y259372D01*
X-223199Y259712D01*
X-222816Y260138D01*
X-222390Y260607D01*
X-221836Y261033D01*
X-221282Y261416D01*
X-221197Y261459D01*
X-220984Y261587D01*
X-220643Y261715D01*
X-220217Y261928D01*
X-219663Y262098D01*
X-219024Y262226D01*
X-218343Y262354D01*
X-217619Y262396D01*
X-196531D01*
X-196148Y262354D01*
D02*
G37*
G36*
X-114654D02*
X-114186Y262268D01*
X-113632Y262141D01*
X-112993Y261970D01*
X-112397Y261757D01*
X-111757Y261416D01*
X-111672Y261374D01*
X-111502Y261246D01*
X-111161Y261033D01*
X-110820Y260735D01*
X-110394Y260351D01*
X-109926Y259883D01*
X-109500Y259372D01*
X-109116Y258775D01*
X-109074Y258690D01*
X-108946Y258477D01*
X-108775Y258179D01*
X-108605Y257710D01*
X-108435Y257199D01*
X-108264Y256560D01*
X-108136Y255878D01*
X-108094Y255154D01*
Y227209D01*
X-115805D01*
Y238540D01*
X-135741D01*
Y227209D01*
X-143324D01*
Y255154D01*
Y255197D01*
Y255239D01*
Y255495D01*
X-143281Y255878D01*
X-143196Y256347D01*
X-143069Y256901D01*
X-142898Y257540D01*
X-142685Y258136D01*
X-142344Y258775D01*
X-142302Y258860D01*
X-142174Y259031D01*
X-141961Y259372D01*
X-141663Y259712D01*
X-141279Y260138D01*
X-140853Y260607D01*
X-140299Y261033D01*
X-139746Y261416D01*
X-139661Y261459D01*
X-139447Y261587D01*
X-139107Y261715D01*
X-138681Y261928D01*
X-138127Y262098D01*
X-137488Y262226D01*
X-136806Y262354D01*
X-136082Y262396D01*
X-115038D01*
X-114654Y262354D01*
D02*
G37*
G36*
X-155465D02*
X-154996Y262268D01*
X-154443Y262141D01*
X-153804Y261970D01*
X-153207Y261757D01*
X-152568Y261416D01*
X-152483Y261374D01*
X-152313Y261246D01*
X-151972Y261033D01*
X-151631Y260735D01*
X-151205Y260351D01*
X-150737Y259883D01*
X-150310Y259372D01*
X-149927Y258775D01*
X-149885Y258690D01*
X-149757Y258477D01*
X-149586Y258179D01*
X-149416Y257710D01*
X-149245Y257199D01*
X-149075Y256560D01*
X-148947Y255878D01*
X-148905Y255154D01*
Y234408D01*
Y234365D01*
Y234323D01*
Y234067D01*
X-148947Y233684D01*
X-149032Y233215D01*
X-149160Y232619D01*
X-149331Y232022D01*
X-149586Y231383D01*
X-149927Y230744D01*
X-149970Y230659D01*
X-150097Y230489D01*
X-150310Y230191D01*
X-150609Y229807D01*
X-150992Y229381D01*
X-151461Y228955D01*
X-151972Y228529D01*
X-152568Y228146D01*
X-152654Y228103D01*
X-152867Y228018D01*
X-153165Y227848D01*
X-153633Y227677D01*
X-154144Y227507D01*
X-154784Y227336D01*
X-155465Y227251D01*
X-156189Y227209D01*
X-184135D01*
Y262396D01*
X-155849D01*
X-155465Y262354D01*
D02*
G37*
G36*
X-140939Y217572D02*
X-153548Y202577D01*
X-140939Y187582D01*
Y184983D01*
X-148820D01*
X-158618Y196486D01*
X-168288Y184983D01*
X-176169D01*
Y187540D01*
X-163602Y202577D01*
X-176169Y217572D01*
Y220171D01*
X-168288D01*
X-158490Y208584D01*
X-148820Y220171D01*
X-140939D01*
Y217572D01*
D02*
G37*
G36*
X-179875Y184983D02*
X-187373D01*
Y220171D01*
X-179875D01*
Y184983D01*
D02*
G37*
G36*
X-196191Y220086D02*
X-195722Y220001D01*
X-195168Y219873D01*
X-194529Y219702D01*
X-193933Y219489D01*
X-193294Y219149D01*
X-193209Y219106D01*
X-193038Y218978D01*
X-192697Y218765D01*
X-192357Y218467D01*
X-191931Y218084D01*
X-191462Y217615D01*
X-191036Y217104D01*
X-190653Y216507D01*
X-190610Y216422D01*
X-190482Y216209D01*
X-190312Y215869D01*
X-190142Y215442D01*
X-189971Y214889D01*
X-189801Y214292D01*
X-189673Y213611D01*
X-189630Y212887D01*
Y203770D01*
Y203685D01*
Y203429D01*
X-189673Y203089D01*
X-189758Y202620D01*
X-189886Y202066D01*
X-190056Y201470D01*
X-190312Y200831D01*
X-190653Y200192D01*
X-190695Y200107D01*
X-190823Y199936D01*
X-191036Y199595D01*
X-191334Y199255D01*
X-191718Y198828D01*
X-192186Y198360D01*
X-192697Y197934D01*
X-193294Y197550D01*
X-193379Y197508D01*
X-193592Y197380D01*
X-193890Y197252D01*
X-194359Y197082D01*
X-194870Y196869D01*
X-195509Y196741D01*
X-196191Y196613D01*
X-196915Y196571D01*
X-217235Y196486D01*
Y184983D01*
X-224818D01*
Y220129D01*
X-196574D01*
X-196191Y220086D01*
D02*
G37*
G36*
X-309326Y346846D02*
X-308857Y346761D01*
X-308303Y346633D01*
X-307664Y346463D01*
X-307068Y346250D01*
X-306429Y345909D01*
X-306344Y345867D01*
X-306173Y345739D01*
X-305832Y345526D01*
X-305492Y345228D01*
X-305066Y344844D01*
X-304597Y344376D01*
X-304171Y343864D01*
X-303788Y343268D01*
X-303745Y343183D01*
X-303617Y342970D01*
X-303447Y342672D01*
X-303276Y342203D01*
X-303106Y341692D01*
X-302936Y341053D01*
X-302808Y340371D01*
X-302765Y339647D01*
Y336324D01*
X-310433D01*
Y339264D01*
X-330370D01*
Y319327D01*
X-310433D01*
Y324609D01*
X-318059D01*
Y332235D01*
X-302765D01*
Y318901D01*
Y318858D01*
Y318816D01*
Y318560D01*
X-302808Y318177D01*
X-302893Y317708D01*
X-303021Y317112D01*
X-303191Y316515D01*
X-303447Y315876D01*
X-303788Y315237D01*
X-303830Y315152D01*
X-303958Y314982D01*
X-304171Y314683D01*
X-304469Y314300D01*
X-304853Y313874D01*
X-305321Y313448D01*
X-305832Y313022D01*
X-306429Y312639D01*
X-306514Y312596D01*
X-306727Y312511D01*
X-307025Y312340D01*
X-307494Y312170D01*
X-308005Y312000D01*
X-308644Y311829D01*
X-309326Y311744D01*
X-310050Y311701D01*
X-331052D01*
X-331435Y311744D01*
X-331904Y311829D01*
X-332500Y311914D01*
X-333096Y312085D01*
X-333736Y312340D01*
X-334375Y312639D01*
X-334460Y312681D01*
X-334630Y312809D01*
X-334928Y313022D01*
X-335312Y313320D01*
X-335738Y313704D01*
X-336164Y314130D01*
X-336590Y314683D01*
X-336973Y315237D01*
X-337016Y315322D01*
X-337144Y315535D01*
X-337271Y315876D01*
X-337442Y316302D01*
X-337655Y316856D01*
X-337783Y317495D01*
X-337910Y318177D01*
X-337953Y318901D01*
Y339647D01*
Y339690D01*
Y339732D01*
Y339988D01*
X-337910Y340371D01*
X-337825Y340840D01*
X-337697Y341394D01*
X-337527Y342033D01*
X-337314Y342629D01*
X-336973Y343268D01*
X-336930Y343353D01*
X-336803Y343524D01*
X-336590Y343864D01*
X-336291Y344205D01*
X-335908Y344631D01*
X-335482Y345100D01*
X-334928Y345526D01*
X-334375Y345909D01*
X-334289Y345952D01*
X-334076Y346080D01*
X-333736Y346207D01*
X-333310Y346420D01*
X-332756Y346591D01*
X-332117Y346719D01*
X-331435Y346846D01*
X-330711Y346889D01*
X-309709D01*
X-309326Y346846D01*
D02*
G37*
G36*
X-268600D02*
X-268132Y346761D01*
X-267578Y346633D01*
X-266939Y346463D01*
X-266342Y346250D01*
X-265703Y345909D01*
X-265618Y345867D01*
X-265448Y345739D01*
X-265107Y345526D01*
X-264766Y345228D01*
X-264340Y344844D01*
X-263872Y344376D01*
X-263445Y343864D01*
X-263062Y343268D01*
X-263019Y343183D01*
X-262892Y342970D01*
X-262721Y342672D01*
X-262551Y342203D01*
X-262380Y341692D01*
X-262210Y341053D01*
X-262082Y340371D01*
X-262040Y339647D01*
Y318901D01*
Y318858D01*
Y318816D01*
Y318560D01*
X-262082Y318177D01*
X-262168Y317708D01*
X-262295Y317112D01*
X-262466Y316515D01*
X-262721Y315876D01*
X-263062Y315237D01*
X-263105Y315152D01*
X-263233Y314982D01*
X-263445Y314683D01*
X-263744Y314300D01*
X-264127Y313874D01*
X-264596Y313448D01*
X-265107Y313022D01*
X-265703Y312639D01*
X-265788Y312596D01*
X-266002Y312511D01*
X-266300Y312340D01*
X-266768Y312170D01*
X-267279Y312000D01*
X-267918Y311829D01*
X-268600Y311744D01*
X-269324Y311701D01*
X-297270D01*
Y346889D01*
X-268983D01*
X-268600Y346846D01*
D02*
G37*
G36*
X-262466Y302065D02*
X-275075Y287070D01*
X-262466Y272075D01*
Y269476D01*
X-270347D01*
X-280145Y280978D01*
X-289815Y269476D01*
X-297696D01*
Y272032D01*
X-285129Y287070D01*
X-297696Y302065D01*
Y304664D01*
X-289815D01*
X-280017Y293077D01*
X-270347Y304664D01*
X-262466D01*
Y302065D01*
D02*
G37*
G36*
X-308900Y304579D02*
X-308431Y304493D01*
X-307877Y304366D01*
X-307238Y304195D01*
X-306642Y303982D01*
X-306003Y303642D01*
X-305918Y303599D01*
X-305747Y303471D01*
X-305406Y303258D01*
X-305066Y302960D01*
X-304640Y302577D01*
X-304171Y302108D01*
X-303745Y301597D01*
X-303362Y301000D01*
X-303319Y300915D01*
X-303191Y300702D01*
X-303021Y300361D01*
X-302851Y299935D01*
X-302680Y299382D01*
X-302510Y298785D01*
X-302382Y298103D01*
X-302339Y297379D01*
Y288263D01*
Y288178D01*
Y287922D01*
X-302382Y287581D01*
X-302467Y287113D01*
X-302595Y286559D01*
X-302765Y285962D01*
X-303021Y285324D01*
X-303362Y284685D01*
X-303404Y284599D01*
X-303532Y284429D01*
X-303745Y284088D01*
X-304043Y283747D01*
X-304427Y283321D01*
X-304895Y282853D01*
X-305406Y282427D01*
X-306003Y282043D01*
X-306088Y282001D01*
X-306301Y281873D01*
X-306599Y281745D01*
X-307068Y281575D01*
X-307579Y281362D01*
X-308218Y281234D01*
X-308900Y281106D01*
X-309624Y281063D01*
X-310007Y281062D01*
X-310476Y281617D01*
X-320402D01*
X-319899Y281020D01*
X-310007Y281062D01*
X-302382Y272032D01*
Y269476D01*
X-310178D01*
X-319899Y281020D01*
X-329944Y280978D01*
Y269476D01*
X-337527D01*
Y304621D01*
X-309283D01*
X-308900Y304579D01*
D02*
G37*
G36*
X-268856Y262396D02*
X-268387Y262311D01*
X-267833Y262183D01*
X-267194Y262013D01*
X-266598Y261800D01*
X-265959Y261459D01*
X-265874Y261416D01*
X-265703Y261289D01*
X-265405Y261076D01*
X-265022Y260777D01*
X-264596Y260394D01*
X-264170Y259925D01*
X-263744Y259414D01*
X-263360Y258818D01*
X-263318Y258733D01*
X-263190Y258520D01*
X-263019Y258221D01*
X-262849Y257753D01*
X-262679Y257242D01*
X-262508Y256603D01*
X-262380Y255921D01*
X-262338Y255197D01*
Y251917D01*
X-270006D01*
Y254813D01*
X-289985D01*
Y248636D01*
X-269239D01*
X-268856Y248594D01*
X-268387Y248509D01*
X-267833Y248381D01*
X-267194Y248210D01*
X-266598Y247997D01*
X-265959Y247657D01*
X-265874Y247614D01*
X-265703Y247486D01*
X-265405Y247273D01*
X-265022Y246975D01*
X-264596Y246592D01*
X-264170Y246123D01*
X-263744Y245612D01*
X-263360Y245015D01*
X-263318Y244930D01*
X-263190Y244717D01*
X-263019Y244376D01*
X-262849Y243950D01*
X-262679Y243397D01*
X-262508Y242800D01*
X-262380Y242119D01*
X-262338Y241394D01*
Y234451D01*
Y234408D01*
Y234365D01*
Y234110D01*
X-262380Y233726D01*
X-262466Y233258D01*
X-262594Y232661D01*
X-262764Y232065D01*
X-263019Y231426D01*
X-263360Y230787D01*
X-263403Y230702D01*
X-263531Y230531D01*
X-263744Y230233D01*
X-264042Y229850D01*
X-264425Y229424D01*
X-264851Y228998D01*
X-265363Y228572D01*
X-265959Y228188D01*
X-266044Y228146D01*
X-266257Y228061D01*
X-266555Y227890D01*
X-267024Y227720D01*
X-267535Y227549D01*
X-268174Y227379D01*
X-268856Y227294D01*
X-269580Y227251D01*
X-290667D01*
X-291050Y227294D01*
X-291519Y227379D01*
X-292115Y227464D01*
X-292712Y227635D01*
X-293351Y227890D01*
X-293990Y228188D01*
X-294075Y228231D01*
X-294245Y228359D01*
X-294543Y228572D01*
X-294927Y228870D01*
X-295353Y229253D01*
X-295779Y229679D01*
X-296205Y230233D01*
X-296588Y230787D01*
X-296631Y230872D01*
X-296759Y231085D01*
X-296887Y231426D01*
X-297057Y231852D01*
X-297270Y232406D01*
X-297398Y233045D01*
X-297526Y233726D01*
X-297568Y234451D01*
Y237731D01*
X-289985D01*
Y234877D01*
X-270006D01*
Y241011D01*
X-290667D01*
X-291050Y241054D01*
X-291519Y241139D01*
X-292115Y241267D01*
X-292712Y241437D01*
X-293351Y241650D01*
X-293990Y241991D01*
X-294075Y242033D01*
X-294245Y242161D01*
X-294543Y242374D01*
X-294927Y242672D01*
X-295353Y243056D01*
X-295779Y243524D01*
X-296205Y244036D01*
X-296588Y244632D01*
X-296631Y244717D01*
X-296759Y244930D01*
X-296887Y245271D01*
X-297057Y245697D01*
X-297270Y246251D01*
X-297398Y246847D01*
X-297526Y247529D01*
X-297568Y248253D01*
Y255197D01*
Y255239D01*
Y255282D01*
Y255538D01*
X-297526Y255921D01*
X-297440Y256390D01*
X-297312Y256943D01*
X-297142Y257582D01*
X-296929Y258179D01*
X-296588Y258818D01*
X-296546Y258903D01*
X-296418Y259073D01*
X-296205Y259414D01*
X-295907Y259755D01*
X-295523Y260181D01*
X-295097Y260650D01*
X-294543Y261076D01*
X-293990Y261459D01*
X-293904Y261502D01*
X-293692Y261629D01*
X-293351Y261757D01*
X-292925Y261970D01*
X-292371Y262141D01*
X-291732Y262268D01*
X-291050Y262396D01*
X-290326Y262439D01*
X-269239D01*
X-268856Y262396D01*
D02*
G37*
G36*
X-302552Y254813D02*
X-328751D01*
X-328922Y254771D01*
X-329305Y254643D01*
X-329688Y254430D01*
X-329731Y254345D01*
X-329859Y254132D01*
X-330029Y253748D01*
X-330072Y253493D01*
Y253195D01*
Y236453D01*
Y236410D01*
Y236325D01*
X-330029Y236197D01*
Y236027D01*
X-329901Y235643D01*
X-329688Y235260D01*
X-329603Y235217D01*
X-329390Y235090D01*
X-329007Y234919D01*
X-328453Y234877D01*
X-302552D01*
Y227251D01*
X-330753D01*
X-331137Y227294D01*
X-331606Y227379D01*
X-332202Y227464D01*
X-332798Y227635D01*
X-333437Y227890D01*
X-334076Y228188D01*
X-334161Y228231D01*
X-334332Y228359D01*
X-334630Y228572D01*
X-335014Y228870D01*
X-335440Y229253D01*
X-335865Y229679D01*
X-336291Y230233D01*
X-336675Y230787D01*
X-336717Y230872D01*
X-336845Y231085D01*
X-336973Y231426D01*
X-337144Y231852D01*
X-337356Y232406D01*
X-337484Y233045D01*
X-337612Y233726D01*
X-337655Y234451D01*
Y255197D01*
Y255239D01*
Y255282D01*
Y255538D01*
X-337612Y255921D01*
X-337527Y256390D01*
X-337399Y256943D01*
X-337229Y257582D01*
X-337016Y258179D01*
X-336675Y258818D01*
X-336632Y258903D01*
X-336505Y259073D01*
X-336291Y259414D01*
X-335993Y259755D01*
X-335610Y260181D01*
X-335184Y260650D01*
X-334630Y261076D01*
X-334076Y261459D01*
X-333991Y261502D01*
X-333778Y261629D01*
X-333437Y261757D01*
X-333011Y261970D01*
X-332457Y262141D01*
X-331818Y262268D01*
X-331137Y262396D01*
X-330413Y262439D01*
X-302552D01*
Y254813D01*
D02*
G37*
G36*
X-268643Y220171D02*
X-268174Y220086D01*
X-267620Y219958D01*
X-266981Y219788D01*
X-266385Y219575D01*
X-265746Y219234D01*
X-265661Y219191D01*
X-265490Y219064D01*
X-265192Y218851D01*
X-264809Y218552D01*
X-264383Y218169D01*
X-263957Y217700D01*
X-263531Y217189D01*
X-263147Y216593D01*
X-263105Y216507D01*
X-262977Y216294D01*
X-262807Y215996D01*
X-262636Y215528D01*
X-262466Y215017D01*
X-262295Y214377D01*
X-262168Y213696D01*
X-262125Y212972D01*
Y192226D01*
Y192183D01*
Y192140D01*
Y191885D01*
X-262168Y191501D01*
X-262253Y191033D01*
X-262380Y190436D01*
X-262551Y189840D01*
X-262807Y189201D01*
X-263147Y188562D01*
X-263190Y188477D01*
X-263318Y188306D01*
X-263531Y188008D01*
X-263829Y187625D01*
X-264212Y187199D01*
X-264638Y186773D01*
X-265149Y186347D01*
X-265746Y185963D01*
X-265831Y185921D01*
X-266044Y185835D01*
X-266342Y185665D01*
X-266811Y185495D01*
X-267322Y185324D01*
X-267961Y185154D01*
X-268643Y185069D01*
X-269367Y185026D01*
X-290454D01*
X-290837Y185069D01*
X-291306Y185154D01*
X-291902Y185239D01*
X-292499Y185410D01*
X-293138Y185665D01*
X-293777Y185963D01*
X-293862Y186006D01*
X-294032Y186134D01*
X-294330Y186347D01*
X-294714Y186645D01*
X-295140Y187028D01*
X-295566Y187454D01*
X-295992Y188008D01*
X-296375Y188562D01*
X-296418Y188647D01*
X-296546Y188860D01*
X-296673Y189201D01*
X-296844Y189627D01*
X-297057Y190181D01*
X-297185Y190820D01*
X-297312Y191501D01*
X-297355Y192226D01*
Y212972D01*
Y213014D01*
Y213057D01*
Y213312D01*
X-297312Y213696D01*
X-297227Y214165D01*
X-297099Y214718D01*
X-296929Y215357D01*
X-296716Y215954D01*
X-296375Y216593D01*
X-296333Y216678D01*
X-296205Y216848D01*
X-295992Y217189D01*
X-295694Y217530D01*
X-295310Y217956D01*
X-294884Y218424D01*
X-294330Y218851D01*
X-293777Y219234D01*
X-293692Y219276D01*
X-293478Y219404D01*
X-293138Y219532D01*
X-292712Y219745D01*
X-292158Y219916D01*
X-291519Y220043D01*
X-290837Y220171D01*
X-290113Y220214D01*
X-269026D01*
X-268643Y220171D01*
D02*
G37*
G36*
X-309283D02*
X-308815Y220086D01*
X-308261Y219958D01*
X-307622Y219788D01*
X-307025Y219575D01*
X-306386Y219234D01*
X-306301Y219191D01*
X-306131Y219064D01*
X-305790Y218851D01*
X-305449Y218552D01*
X-305023Y218169D01*
X-304555Y217700D01*
X-304128Y217189D01*
X-303745Y216593D01*
X-303702Y216507D01*
X-303575Y216294D01*
X-303404Y215996D01*
X-303234Y215528D01*
X-303063Y215017D01*
X-302893Y214377D01*
X-302765Y213696D01*
X-302723Y212972D01*
Y192226D01*
Y192183D01*
Y192140D01*
Y191885D01*
X-302765Y191501D01*
X-302851Y191033D01*
X-302978Y190436D01*
X-303149Y189840D01*
X-303404Y189201D01*
X-303745Y188562D01*
X-303788Y188477D01*
X-303916Y188306D01*
X-304128Y188008D01*
X-304427Y187625D01*
X-304810Y187199D01*
X-305279Y186773D01*
X-305790Y186347D01*
X-306386Y185963D01*
X-306471Y185921D01*
X-306685Y185835D01*
X-306983Y185665D01*
X-307451Y185495D01*
X-307962Y185324D01*
X-308601Y185154D01*
X-309283Y185069D01*
X-310007Y185026D01*
X-337953D01*
Y220214D01*
X-309666D01*
X-309283Y220171D01*
D02*
G37*
G36*
X287402Y963681D02*
X275245D01*
Y985742D01*
X241915D01*
Y963681D01*
X229757D01*
Y1020097D01*
X241915D01*
Y997968D01*
X275245D01*
Y1020097D01*
X287402D01*
Y963681D01*
D02*
G37*
G36*
X337535D02*
X327426D01*
X294779Y1020097D01*
X308849D01*
X332549Y979117D01*
X356249Y1020097D01*
X370250D01*
X337535Y963681D01*
D02*
G37*
G36*
X-400444Y311701D02*
X-406749D01*
X-427112Y346889D01*
X-418336D01*
X-403554Y321329D01*
X-388772Y346889D01*
X-380039D01*
X-400444Y311701D01*
D02*
G37*
G36*
X-439764Y346846D02*
X-439296Y346761D01*
X-438742Y346633D01*
X-438145Y346463D01*
X-437506Y346250D01*
X-436910Y345909D01*
X-436825Y345867D01*
X-436654Y345739D01*
X-436356Y345526D01*
X-436015Y345228D01*
X-435589Y344887D01*
X-435163Y344461D01*
X-434780Y343950D01*
X-434397Y343396D01*
X-434354Y343311D01*
X-434226Y343140D01*
X-434098Y342799D01*
X-433885Y342373D01*
X-433715Y341820D01*
X-433587Y341223D01*
X-433459Y340542D01*
X-433417Y339817D01*
Y332746D01*
Y332703D01*
Y332661D01*
Y332405D01*
X-433459Y332064D01*
X-433502Y331596D01*
Y331553D01*
Y331510D01*
X-433545Y331255D01*
X-433587Y330871D01*
X-433715Y330488D01*
X-433672Y330445D01*
X-433587Y330318D01*
X-433459Y330147D01*
X-433289Y329934D01*
X-433118Y329636D01*
X-432906Y329295D01*
X-432565Y328486D01*
X-432522Y328443D01*
X-432479Y328273D01*
X-432394Y328060D01*
X-432309Y327762D01*
X-432224Y327378D01*
X-432181Y326995D01*
X-432096Y326526D01*
Y326058D01*
Y318773D01*
Y318688D01*
Y318432D01*
X-432139Y318049D01*
X-432224Y317580D01*
X-432352Y317026D01*
X-432522Y316430D01*
X-432735Y315834D01*
X-433076Y315195D01*
X-433118Y315109D01*
X-433246Y314939D01*
X-433459Y314641D01*
X-433757Y314300D01*
X-434098Y313874D01*
X-434567Y313448D01*
X-435036Y313022D01*
X-435632Y312639D01*
X-435717Y312596D01*
X-435930Y312511D01*
X-436228Y312340D01*
X-436697Y312170D01*
X-437208Y312000D01*
X-437805Y311829D01*
X-438443Y311744D01*
X-439168Y311701D01*
X-459871D01*
X-460255Y311744D01*
X-460723Y311829D01*
X-461277Y311914D01*
X-461916Y312085D01*
X-462512Y312340D01*
X-463151Y312639D01*
X-463237Y312681D01*
X-463407Y312809D01*
X-463705Y313022D01*
X-464046Y313320D01*
X-464472Y313704D01*
X-464898Y314130D01*
X-465324Y314641D01*
X-465707Y315195D01*
X-465750Y315280D01*
X-465878Y315493D01*
X-466006Y315791D01*
X-466176Y316260D01*
X-466389Y316771D01*
X-466517Y317410D01*
X-466645Y318049D01*
X-466687Y318773D01*
Y321499D01*
X-459190D01*
Y319156D01*
X-439594D01*
Y325674D01*
X-460894D01*
Y333129D01*
X-440914D01*
Y339391D01*
X-459190D01*
Y336665D01*
X-466687D01*
Y339817D01*
Y339860D01*
Y339903D01*
Y340158D01*
X-466645Y340542D01*
X-466560Y341010D01*
X-466474Y341564D01*
X-466304Y342160D01*
X-466048Y342799D01*
X-465750Y343396D01*
X-465707Y343481D01*
X-465580Y343651D01*
X-465367Y343950D01*
X-465068Y344290D01*
X-464685Y344716D01*
X-464259Y345142D01*
X-463705Y345526D01*
X-463151Y345909D01*
X-463066Y345952D01*
X-462853Y346080D01*
X-462512Y346207D01*
X-462087Y346420D01*
X-461533Y346591D01*
X-460936Y346719D01*
X-460255Y346846D01*
X-459531Y346889D01*
X-440147D01*
X-439764Y346846D01*
D02*
G37*
G36*
X-380039Y302065D02*
X-392649Y287070D01*
X-380039Y272075D01*
Y269476D01*
X-387920D01*
X-397718Y280978D01*
X-407388Y269476D01*
X-415269D01*
Y272032D01*
X-402702Y287070D01*
X-415269Y302065D01*
Y304664D01*
X-407388D01*
X-397590Y293077D01*
X-387920Y304664D01*
X-380039D01*
Y302065D01*
D02*
G37*
G36*
X-418464Y297038D02*
X-432267D01*
Y269476D01*
X-439892D01*
Y297038D01*
X-453694D01*
Y304664D01*
X-418464D01*
Y297038D01*
D02*
G37*
G36*
X-379996Y259798D02*
X-392563Y244845D01*
X-379996Y229850D01*
Y227251D01*
X-387920D01*
X-399464Y241011D01*
X-406366D01*
Y227251D01*
X-413991D01*
Y262439D01*
X-406366D01*
Y248636D01*
X-399464D01*
X-387920Y262439D01*
X-379996D01*
Y259798D01*
D02*
G37*
G36*
X-419146Y254813D02*
X-445345D01*
X-445515Y254771D01*
X-445899Y254643D01*
X-446282Y254430D01*
X-446325Y254345D01*
X-446452Y254132D01*
X-446623Y253748D01*
X-446665Y253493D01*
Y253195D01*
Y236453D01*
Y236410D01*
Y236325D01*
X-446623Y236197D01*
Y236027D01*
X-446495Y235643D01*
X-446282Y235260D01*
X-446197Y235217D01*
X-445984Y235090D01*
X-445600Y234919D01*
X-445046Y234877D01*
X-419146D01*
Y227251D01*
X-447347D01*
X-447730Y227294D01*
X-448199Y227379D01*
X-448795Y227464D01*
X-449392Y227635D01*
X-450031Y227890D01*
X-450670Y228188D01*
X-450755Y228231D01*
X-450925Y228359D01*
X-451224Y228572D01*
X-451607Y228870D01*
X-452033Y229253D01*
X-452459Y229679D01*
X-452885Y230233D01*
X-453268Y230787D01*
X-453311Y230872D01*
X-453439Y231085D01*
X-453567Y231426D01*
X-453737Y231852D01*
X-453950Y232406D01*
X-454078Y233045D01*
X-454205Y233726D01*
X-454248Y234451D01*
Y255197D01*
Y255239D01*
Y255282D01*
Y255538D01*
X-454205Y255921D01*
X-454120Y256390D01*
X-453993Y256943D01*
X-453822Y257582D01*
X-453609Y258179D01*
X-453268Y258818D01*
X-453226Y258903D01*
X-453098Y259073D01*
X-452885Y259414D01*
X-452587Y259755D01*
X-452203Y260181D01*
X-451777Y260650D01*
X-451224Y261076D01*
X-450670Y261459D01*
X-450584Y261502D01*
X-450372Y261629D01*
X-450031Y261757D01*
X-449605Y261970D01*
X-449051Y262141D01*
X-448412Y262268D01*
X-447730Y262396D01*
X-447006Y262439D01*
X-419146D01*
Y254813D01*
D02*
G37*
G36*
X-380039Y185026D02*
X-387536D01*
Y220214D01*
X-380039D01*
Y185026D01*
D02*
G37*
G36*
X-398357Y220171D02*
X-397888Y220086D01*
X-397334Y219958D01*
X-396695Y219788D01*
X-396099Y219575D01*
X-395460Y219234D01*
X-395375Y219191D01*
X-395204Y219064D01*
X-394864Y218851D01*
X-394523Y218552D01*
X-394097Y218169D01*
X-393628Y217700D01*
X-393202Y217189D01*
X-392819Y216593D01*
X-392776Y216507D01*
X-392649Y216294D01*
X-392478Y215996D01*
X-392308Y215528D01*
X-392137Y215017D01*
X-391967Y214377D01*
X-391839Y213696D01*
X-391796Y212972D01*
Y192226D01*
Y192183D01*
Y192140D01*
Y191885D01*
X-391839Y191501D01*
X-391924Y191033D01*
X-392052Y190436D01*
X-392223Y189840D01*
X-392478Y189201D01*
X-392819Y188562D01*
X-392861Y188477D01*
X-392989Y188306D01*
X-393202Y188008D01*
X-393500Y187625D01*
X-393884Y187199D01*
X-394353Y186773D01*
X-394864Y186347D01*
X-395460Y185963D01*
X-395545Y185921D01*
X-395758Y185835D01*
X-396057Y185665D01*
X-396525Y185495D01*
X-397036Y185324D01*
X-397675Y185154D01*
X-398357Y185069D01*
X-399081Y185026D01*
X-427027D01*
Y220214D01*
X-398740D01*
X-398357Y220171D01*
D02*
G37*
G36*
X37770Y409339D02*
X28215D01*
Y439861D01*
X26140Y437294D01*
X13418D01*
X27833Y454439D01*
X37770D01*
Y409339D01*
D02*
G37*
G36*
X39517Y554384D02*
X40118Y554275D01*
X40828Y554111D01*
X41592Y553893D01*
X42411Y553620D01*
X43175Y553183D01*
X43285Y553128D01*
X43503Y552965D01*
X43940Y552692D01*
X44377Y552309D01*
X44923Y551873D01*
X45469Y551327D01*
X46015Y550671D01*
X46506Y549962D01*
X46561Y549852D01*
X46724Y549634D01*
X46888Y549197D01*
X47161Y548651D01*
X47380Y547941D01*
X47544Y547177D01*
X47707Y546303D01*
X47762Y545375D01*
Y535383D01*
Y535274D01*
Y534947D01*
X47707Y534510D01*
X47598Y533909D01*
X47434Y533199D01*
X47216Y532435D01*
X46943Y531616D01*
X46506Y530797D01*
X46452Y530688D01*
X46288Y530469D01*
X46015Y530087D01*
X45633Y529596D01*
X45141Y529050D01*
X44595Y528504D01*
X43940Y527958D01*
X43175Y527466D01*
X43066Y527412D01*
X42793Y527248D01*
X42411Y527084D01*
X41810Y526866D01*
X41155Y526593D01*
X40391Y526429D01*
X39517Y526265D01*
X38589Y526211D01*
X13036D01*
Y518894D01*
X47762D01*
Y509339D01*
X3427D01*
Y526811D01*
Y526866D01*
Y526920D01*
Y527248D01*
X3481Y527739D01*
X3590Y528340D01*
X3754Y529050D01*
X3973Y529760D01*
X4246Y530579D01*
X4683Y531343D01*
X4737Y531452D01*
X4901Y531671D01*
X5174Y532053D01*
X5556Y532544D01*
X6048Y533036D01*
X6593Y533582D01*
X7249Y534128D01*
X7958Y534619D01*
X8068Y534674D01*
X8341Y534837D01*
X8723Y535001D01*
X9323Y535274D01*
X9979Y535493D01*
X10798Y535656D01*
X11671Y535820D01*
X12600Y535875D01*
X38152D01*
Y544829D01*
X13036D01*
Y541226D01*
X3427D01*
Y545375D01*
Y545430D01*
Y545484D01*
Y545812D01*
X3481Y546303D01*
X3590Y546904D01*
X3754Y547614D01*
X3973Y548378D01*
X4246Y549197D01*
X4683Y549962D01*
X4737Y550071D01*
X4901Y550289D01*
X5174Y550671D01*
X5556Y551108D01*
X6048Y551654D01*
X6593Y552200D01*
X7249Y552692D01*
X7958Y553183D01*
X8068Y553238D01*
X8341Y553401D01*
X8723Y553565D01*
X9323Y553838D01*
X9979Y554057D01*
X10798Y554220D01*
X11671Y554384D01*
X12600Y554439D01*
X39026D01*
X39517Y554384D01*
D02*
G37*
G36*
X40910Y730196D02*
X46916D01*
Y720532D01*
X40910D01*
Y709339D01*
X31300D01*
Y720532D01*
X4273D01*
Y729104D01*
X32337Y754439D01*
X40910D01*
Y730196D01*
D02*
G37*
G36*
X70400Y949419D02*
X70784Y949376D01*
X71252Y949249D01*
X71721Y949121D01*
X72232Y948908D01*
X72743Y948652D01*
X72786Y948610D01*
X72956Y948524D01*
X73212Y948354D01*
X73510Y948098D01*
X73851Y947800D01*
X74234Y947417D01*
X74575Y946991D01*
X74873Y946522D01*
X74916Y946480D01*
X75001Y946309D01*
X75129Y946011D01*
X75299Y945670D01*
X75427Y945244D01*
X75555Y944733D01*
X75640Y944179D01*
X75683Y943583D01*
Y942220D01*
X71721D01*
Y943583D01*
Y943625D01*
Y943711D01*
X71678Y943881D01*
X71636Y944051D01*
X71465Y944520D01*
X71337Y944733D01*
X71124Y944946D01*
X71082Y944989D01*
X71039Y945031D01*
X70911Y945116D01*
X70741Y945244D01*
X70315Y945414D01*
X70102Y945457D01*
X69804Y945500D01*
X46203D01*
X46033Y945457D01*
X45863Y945414D01*
X45437Y945287D01*
X45181Y945116D01*
X44968Y944946D01*
X44925Y944903D01*
X44883Y944861D01*
X44798Y944733D01*
X44712Y944562D01*
X44499Y944136D01*
X44457Y943881D01*
X44414Y943583D01*
Y935702D01*
Y935659D01*
Y935574D01*
X44457Y935446D01*
X44499Y935233D01*
X44670Y934807D01*
X44798Y934594D01*
X44968Y934381D01*
X45011D01*
X45053Y934296D01*
X45181Y934211D01*
X45351Y934125D01*
X45777Y933955D01*
X46033Y933913D01*
X46331Y933870D01*
X70059D01*
X70400Y933827D01*
X70784Y933785D01*
X71252Y933657D01*
X71721Y933529D01*
X72232Y933316D01*
X72743Y933061D01*
X72786Y933018D01*
X72956Y932933D01*
X73212Y932720D01*
X73510Y932507D01*
X73851Y932166D01*
X74234Y931825D01*
X74575Y931399D01*
X74873Y930931D01*
X74916Y930888D01*
X75001Y930717D01*
X75129Y930419D01*
X75299Y930078D01*
X75427Y929653D01*
X75555Y929141D01*
X75640Y928587D01*
X75683Y927991D01*
Y920110D01*
Y920025D01*
Y919855D01*
X75640Y919514D01*
X75597Y919130D01*
X75470Y918662D01*
X75342Y918150D01*
X75129Y917639D01*
X74873Y917128D01*
X74831Y917086D01*
X74745Y916915D01*
X74575Y916659D01*
X74319Y916361D01*
X74021Y916020D01*
X73638Y915680D01*
X73212Y915339D01*
X72743Y915041D01*
X72701Y914998D01*
X72530Y914913D01*
X72232Y914785D01*
X71891Y914657D01*
X71465Y914529D01*
X70954Y914402D01*
X70400Y914317D01*
X69804Y914274D01*
X46076D01*
X45735Y914317D01*
X45351Y914359D01*
X44883Y914444D01*
X44372Y914615D01*
X43860Y914785D01*
X43349Y915041D01*
X43307Y915083D01*
X43136Y915168D01*
X42881Y915339D01*
X42582Y915595D01*
X42242Y915893D01*
X41901Y916234D01*
X41560Y916659D01*
X41219Y917128D01*
X41177Y917171D01*
X41091Y917384D01*
X40964Y917639D01*
X40836Y918023D01*
X40708Y918449D01*
X40580Y918960D01*
X40495Y919514D01*
X40452Y920110D01*
Y921473D01*
X44414D01*
Y920110D01*
Y920067D01*
Y919982D01*
X44457Y919855D01*
X44499Y919641D01*
X44670Y919216D01*
X44798Y918960D01*
X44968Y918747D01*
X45011Y918704D01*
X45053Y918662D01*
X45181Y918577D01*
X45351Y918491D01*
X45777Y918278D01*
X46033Y918236D01*
X46331Y918193D01*
X69932D01*
X70059Y918236D01*
X70272Y918278D01*
X70698Y918449D01*
X70911Y918577D01*
X71124Y918747D01*
X71167Y918789D01*
X71210Y918875D01*
X71295Y918960D01*
X71423Y919130D01*
X71636Y919556D01*
X71678Y919812D01*
X71721Y920110D01*
Y927991D01*
Y928034D01*
Y928119D01*
X71678Y928247D01*
X71636Y928460D01*
X71465Y928886D01*
X71337Y929099D01*
X71124Y929312D01*
X71082Y929354D01*
X71039Y929397D01*
X70911Y929482D01*
X70741Y929610D01*
X70315Y929780D01*
X70102Y929823D01*
X69804Y929865D01*
X46076D01*
X45735Y929908D01*
X45351Y929951D01*
X44883Y930078D01*
X44372Y930206D01*
X43860Y930419D01*
X43349Y930675D01*
X43307Y930717D01*
X43136Y930803D01*
X42881Y931016D01*
X42582Y931229D01*
X42242Y931569D01*
X41901Y931910D01*
X41560Y932336D01*
X41219Y932805D01*
X41177Y932847D01*
X41091Y933018D01*
X40964Y933316D01*
X40836Y933657D01*
X40708Y934083D01*
X40580Y934594D01*
X40495Y935105D01*
X40452Y935702D01*
Y943583D01*
Y943668D01*
Y943838D01*
X40495Y944179D01*
X40538Y944562D01*
X40623Y945031D01*
X40793Y945500D01*
X40964Y946011D01*
X41219Y946522D01*
X41262Y946565D01*
X41347Y946735D01*
X41560Y946991D01*
X41773Y947289D01*
X42114Y947630D01*
X42455Y948013D01*
X42881Y948354D01*
X43349Y948652D01*
X43392Y948695D01*
X43605Y948780D01*
X43860Y948908D01*
X44244Y949078D01*
X44670Y949206D01*
X45181Y949334D01*
X45735Y949419D01*
X46331Y949462D01*
X70059D01*
X70400Y949419D01*
D02*
G37*
G36*
X29930D02*
X30314Y949376D01*
X30782Y949249D01*
X31251Y949121D01*
X31762Y948908D01*
X32273Y948652D01*
X32316Y948610D01*
X32486Y948524D01*
X32742Y948354D01*
X33040Y948098D01*
X33381Y947800D01*
X33764Y947417D01*
X34105Y946991D01*
X34403Y946522D01*
X34446Y946480D01*
X34531Y946309D01*
X34659Y946011D01*
X34829Y945670D01*
X34957Y945244D01*
X35085Y944733D01*
X35170Y944179D01*
X35213Y943583D01*
Y920110D01*
Y920025D01*
Y919855D01*
X35170Y919514D01*
X35127Y919130D01*
X35000Y918662D01*
X34872Y918150D01*
X34659Y917639D01*
X34403Y917128D01*
X34361Y917086D01*
X34275Y916915D01*
X34105Y916659D01*
X33849Y916361D01*
X33551Y916020D01*
X33168Y915680D01*
X32742Y915339D01*
X32273Y915041D01*
X32231Y914998D01*
X32060Y914913D01*
X31762Y914785D01*
X31421Y914657D01*
X30995Y914529D01*
X30484Y914402D01*
X29930Y914317D01*
X29334Y914274D01*
X-18D01*
Y949462D01*
X29589D01*
X29930Y949419D01*
D02*
G37*
G36*
X-5385Y945500D02*
X-33544D01*
Y933870D01*
X-10881D01*
Y929865D01*
X-33544D01*
Y918193D01*
X-5385D01*
Y914274D01*
X-37506D01*
Y949462D01*
X-5385D01*
Y945500D01*
D02*
G37*
G36*
X-71713Y918193D02*
X-40445D01*
Y914274D01*
X-75675D01*
Y949504D01*
X-71713D01*
Y918193D01*
D02*
G37*
G36*
X-100472Y-167642D02*
X-109363D01*
Y-98810D01*
X-145500Y-141638D01*
X-181541Y-98810D01*
Y-167642D01*
X-190431D01*
Y-88676D01*
X-178290D01*
X-145500Y-127776D01*
X-112613Y-88676D01*
X-100472D01*
Y-167642D01*
D02*
G37*
G36*
X55452Y-104163D02*
X28875Y-135329D01*
X55547Y-167546D01*
Y-167642D01*
X43693D01*
X22948Y-142212D01*
X2298Y-167642D01*
X-9556D01*
Y-167546D01*
X17020Y-135329D01*
X-9556Y-104163D01*
Y-104068D01*
X2298D01*
X22948Y-128159D01*
X43693Y-104068D01*
X55452D01*
Y-104163D01*
D02*
G37*
G36*
X178489Y-88772D02*
X179349Y-88867D01*
X180401Y-89154D01*
X181452Y-89441D01*
X182600Y-89919D01*
X183747Y-90492D01*
X183843Y-90588D01*
X184225Y-90779D01*
X184798Y-91257D01*
X185468Y-91735D01*
X186328Y-92500D01*
X187093Y-93265D01*
X187858Y-94316D01*
X188623Y-95368D01*
X188718Y-95463D01*
X188909Y-95846D01*
X189196Y-96515D01*
X189578Y-97280D01*
X189865Y-98332D01*
X190152Y-99479D01*
X190343Y-100722D01*
X190439Y-102060D01*
Y-154449D01*
Y-154640D01*
Y-155022D01*
X190343Y-155691D01*
X190248Y-156552D01*
X189961Y-157603D01*
X189674Y-158751D01*
X189196Y-159898D01*
X188623Y-161045D01*
X188527Y-161141D01*
X188336Y-161523D01*
X187858Y-162097D01*
X187380Y-162766D01*
X186615Y-163531D01*
X185850Y-164391D01*
X184798Y-165156D01*
X183747Y-165921D01*
X183651Y-166016D01*
X183269Y-166208D01*
X182600Y-166494D01*
X181835Y-166781D01*
X180879Y-167068D01*
X179732Y-167355D01*
X178489Y-167546D01*
X177150Y-167642D01*
X123232D01*
X122563Y-167546D01*
X121703Y-167450D01*
X120651Y-167259D01*
X119504Y-166877D01*
X118261Y-166494D01*
X117114Y-165921D01*
X117018Y-165825D01*
X116636Y-165538D01*
X116062Y-165156D01*
X115393Y-164582D01*
X114628Y-163913D01*
X113863Y-163053D01*
X113099Y-162097D01*
X112334Y-161045D01*
X112238Y-160950D01*
X112047Y-160471D01*
X111760Y-159898D01*
X111473Y-159037D01*
X111186Y-158082D01*
X110900Y-156934D01*
X110709Y-155787D01*
X110613Y-154449D01*
Y-102060D01*
Y-101869D01*
Y-101391D01*
X110709Y-100722D01*
X110804Y-99861D01*
X110995Y-98809D01*
X111378Y-97662D01*
X111760Y-96515D01*
X112334Y-95368D01*
X112429Y-95272D01*
X112621Y-94890D01*
X113099Y-94316D01*
X113576Y-93647D01*
X114341Y-92787D01*
X115106Y-92022D01*
X116062Y-91257D01*
X117114Y-90492D01*
X117209Y-90397D01*
X117687Y-90206D01*
X118261Y-89919D01*
X119121Y-89536D01*
X120077Y-89249D01*
X121225Y-88963D01*
X122563Y-88772D01*
X123901Y-88676D01*
X177724D01*
X178489Y-88772D01*
D02*
G37*
G36*
X94552Y-167642D02*
X85470D01*
Y-98810D01*
X73233Y-113341D01*
X61570D01*
X82315Y-88676D01*
X94552D01*
Y-167642D01*
D02*
G37*
G36*
X-29919Y-138292D02*
X-17682D01*
Y-147279D01*
X-29919D01*
Y-167642D01*
X-38906D01*
Y-147279D01*
X-94067D01*
Y-137145D01*
X-40053Y-88580D01*
X-29919D01*
Y-138292D01*
D02*
G37*
G36*
X-27447Y333947D02*
X-45137D01*
Y307302D01*
X-27447D01*
Y297583D01*
X-72546D01*
Y307302D01*
X-54910D01*
Y333947D01*
X-72546D01*
Y343666D01*
X-27447D01*
Y333947D01*
D02*
G37*
G36*
Y280439D02*
X-60207Y261493D01*
X-27447Y242546D01*
Y231353D01*
X-72546Y257507D01*
Y265588D01*
X-27447Y291686D01*
Y280439D01*
D02*
G37*
G36*
X-35800Y227422D02*
X-35200Y227313D01*
X-34490Y227149D01*
X-33671Y226931D01*
X-32907Y226658D01*
X-32088Y226221D01*
X-31978Y226166D01*
X-31760Y226003D01*
X-31323Y225730D01*
X-30886Y225347D01*
X-30340Y224856D01*
X-29740Y224310D01*
X-29194Y223600D01*
X-28702Y222890D01*
X-28648Y222781D01*
X-28484Y222508D01*
X-28320Y222071D01*
X-28047Y221525D01*
X-27829Y220816D01*
X-27665Y219997D01*
X-27501Y219123D01*
X-27447Y218195D01*
Y191277D01*
X-27501Y190786D01*
X-27610Y190185D01*
X-27774Y189475D01*
X-27993Y188656D01*
X-28266Y187892D01*
X-28702Y187073D01*
X-28757Y186964D01*
X-28921Y186745D01*
X-29194Y186308D01*
X-29576Y185872D01*
X-30067Y185326D01*
X-30668Y184725D01*
X-31323Y184179D01*
X-32088Y183688D01*
X-32197Y183633D01*
X-32470Y183469D01*
X-32852Y183251D01*
X-33453Y183032D01*
X-34108Y182814D01*
X-34927Y182596D01*
X-35800Y182432D01*
X-36729Y182377D01*
X-40987D01*
Y192205D01*
X-37220D01*
Y217758D01*
X-62773D01*
Y192205D01*
X-56002D01*
Y201979D01*
X-46229D01*
Y182377D01*
X-63319D01*
X-63373D01*
X-63428D01*
X-63756D01*
X-64247Y182432D01*
X-64848Y182541D01*
X-65612Y182705D01*
X-66376Y182923D01*
X-67195Y183251D01*
X-68014Y183688D01*
X-68124Y183742D01*
X-68342Y183906D01*
X-68724Y184179D01*
X-69216Y184561D01*
X-69762Y185053D01*
X-70308Y185653D01*
X-70854Y186308D01*
X-71345Y187073D01*
X-71400Y187182D01*
X-71509Y187455D01*
X-71727Y187837D01*
X-71946Y188438D01*
X-72164Y189093D01*
X-72382Y189912D01*
X-72492Y190786D01*
X-72546Y191714D01*
Y218632D01*
X-72492Y219123D01*
X-72382Y219724D01*
X-72273Y220488D01*
X-72055Y221252D01*
X-71727Y222071D01*
X-71345Y222890D01*
X-71290Y223000D01*
X-71127Y223218D01*
X-70854Y223600D01*
X-70471Y224092D01*
X-69980Y224638D01*
X-69434Y225184D01*
X-68724Y225730D01*
X-68014Y226221D01*
X-67905Y226276D01*
X-67632Y226439D01*
X-67195Y226603D01*
X-66649Y226822D01*
X-65940Y227095D01*
X-65121Y227258D01*
X-64247Y227422D01*
X-63319Y227477D01*
X-36729D01*
X-36674D01*
X-36619D01*
X-36292D01*
X-35800Y227422D01*
D02*
G37*
G36*
X414200Y343638D02*
X414800Y343529D01*
X415510Y343365D01*
X416329Y343147D01*
X417093Y342874D01*
X417912Y342437D01*
X418022Y342382D01*
X418240Y342219D01*
X418677Y341946D01*
X419113Y341563D01*
X419659Y341072D01*
X420260Y340526D01*
X420806Y339816D01*
X421298Y339106D01*
X421352Y338997D01*
X421516Y338724D01*
X421680Y338287D01*
X421953Y337741D01*
X422171Y337032D01*
X422335Y336213D01*
X422499Y335339D01*
X422553Y334411D01*
Y307438D01*
X422499Y306947D01*
X422389Y306346D01*
X422226Y305637D01*
X422007Y304818D01*
X421734Y304053D01*
X421298Y303234D01*
X421243Y303125D01*
X421079Y302907D01*
X420806Y302470D01*
X420424Y302033D01*
X419933Y301487D01*
X419332Y300886D01*
X418677Y300340D01*
X417912Y299849D01*
X417803Y299794D01*
X417530Y299631D01*
X417148Y299412D01*
X416547Y299194D01*
X415892Y298975D01*
X415073Y298757D01*
X414200Y298593D01*
X413271Y298539D01*
X377454D01*
Y308421D01*
X391977D01*
Y333974D01*
X377454D01*
Y343693D01*
X413271D01*
X413326D01*
X413380D01*
X413708D01*
X414200Y343638D01*
D02*
G37*
G36*
X422553Y255022D02*
X422499Y254531D01*
X422389Y253930D01*
X422226Y253221D01*
X422007Y252402D01*
X421734Y251637D01*
X421298Y250818D01*
X421243Y250709D01*
X421079Y250491D01*
X420806Y250054D01*
X420424Y249617D01*
X419933Y249071D01*
X419332Y248470D01*
X418677Y247924D01*
X417912Y247433D01*
X417803Y247378D01*
X417530Y247215D01*
X417148Y246996D01*
X416547Y246778D01*
X415892Y246559D01*
X415073Y246341D01*
X414200Y246177D01*
X413271Y246123D01*
X386681D01*
X386627D01*
X386572D01*
X386244D01*
X385753Y246177D01*
X385152Y246286D01*
X384388Y246450D01*
X383623Y246669D01*
X382805Y246996D01*
X381986Y247433D01*
X381876Y247488D01*
X381658Y247651D01*
X381276Y247924D01*
X380784Y248307D01*
X380238Y248798D01*
X379692Y249399D01*
X379146Y250054D01*
X378655Y250818D01*
X378600Y250927D01*
X378491Y251200D01*
X378273Y251583D01*
X378054Y252183D01*
X377836Y252838D01*
X377618Y253657D01*
X377508Y254531D01*
X377454Y255459D01*
Y291277D01*
X422553D01*
Y255022D01*
D02*
G37*
G36*
Y229306D02*
X404863D01*
Y202661D01*
X422553D01*
Y192942D01*
X377454D01*
Y202661D01*
X395089D01*
Y229306D01*
X377454D01*
Y239025D01*
X422553D01*
Y229306D01*
D02*
G37*
G36*
X322553Y309131D02*
X322499Y308640D01*
X322389Y308039D01*
X322226Y307329D01*
X322007Y306510D01*
X321734Y305746D01*
X321298Y304927D01*
X321243Y304818D01*
X321079Y304599D01*
X320806Y304217D01*
X320424Y303726D01*
X319933Y303180D01*
X319332Y302634D01*
X318677Y302088D01*
X317912Y301596D01*
X317803Y301542D01*
X317530Y301378D01*
X317148Y301159D01*
X316547Y300941D01*
X315892Y300723D01*
X315073Y300504D01*
X314200Y300340D01*
X313271Y300286D01*
X304808D01*
X304754D01*
X304644D01*
X304535D01*
X304317D01*
X303825Y300340D01*
X303279Y300395D01*
X303225D01*
X303170D01*
X302843Y300450D01*
X302406Y300559D01*
X301914Y300723D01*
X301860Y300668D01*
X301696Y300559D01*
X301478Y300395D01*
X301150Y300177D01*
X300768Y299958D01*
X300276Y299685D01*
X299785Y299412D01*
X299185Y299194D01*
X299130Y299139D01*
X298911Y299085D01*
X298584Y298975D01*
X298202Y298866D01*
X297710Y298757D01*
X297164Y298648D01*
X296618Y298539D01*
X296018D01*
X286681D01*
X286627D01*
X286572D01*
X286244D01*
X285753Y298593D01*
X285152Y298702D01*
X284388Y298866D01*
X283623Y299085D01*
X282805Y299412D01*
X281986Y299849D01*
X281876Y299904D01*
X281658Y300067D01*
X281276Y300340D01*
X280784Y300723D01*
X280238Y301214D01*
X279692Y301815D01*
X279146Y302470D01*
X278655Y303234D01*
X278600Y303343D01*
X278491Y303616D01*
X278273Y303999D01*
X278054Y304599D01*
X277836Y305254D01*
X277618Y306073D01*
X277508Y306947D01*
X277454Y307875D01*
Y343693D01*
X322553D01*
Y309131D01*
D02*
G37*
G36*
Y283687D02*
X277454D01*
Y293297D01*
X322553D01*
Y283687D01*
D02*
G37*
G36*
X314200Y278118D02*
X314800Y278009D01*
X315510Y277845D01*
X316329Y277627D01*
X317093Y277354D01*
X317912Y276917D01*
X318022Y276862D01*
X318240Y276699D01*
X318677Y276426D01*
X319113Y276043D01*
X319659Y275552D01*
X320260Y275006D01*
X320806Y274296D01*
X321298Y273586D01*
X321352Y273477D01*
X321516Y273204D01*
X321680Y272767D01*
X321953Y272221D01*
X322171Y271512D01*
X322335Y270693D01*
X322499Y269819D01*
X322553Y268891D01*
Y241918D01*
X322499Y241427D01*
X322389Y240826D01*
X322226Y240117D01*
X322007Y239298D01*
X321734Y238533D01*
X321298Y237714D01*
X321243Y237605D01*
X321079Y237387D01*
X320806Y236950D01*
X320424Y236513D01*
X319933Y235967D01*
X319332Y235366D01*
X318677Y234820D01*
X317912Y234329D01*
X317803Y234274D01*
X317530Y234111D01*
X317148Y233892D01*
X316547Y233674D01*
X315892Y233455D01*
X315073Y233237D01*
X314200Y233073D01*
X313271Y233019D01*
X277454D01*
Y242901D01*
X291977D01*
Y268454D01*
X277454D01*
Y278173D01*
X313271D01*
X313326D01*
X313380D01*
X313708D01*
X314200Y278118D01*
D02*
G37*
G36*
X222581Y333974D02*
X187200D01*
Y298539D01*
X177426D01*
Y343693D01*
X222581D01*
Y333974D01*
D02*
G37*
G36*
X222526Y253057D02*
X212752D01*
Y284943D01*
X204835D01*
Y259281D01*
X195062D01*
Y284943D01*
X177426D01*
Y294771D01*
X222526D01*
Y253057D01*
D02*
G37*
G36*
Y206702D02*
X212752D01*
Y224392D01*
X177426D01*
Y234165D01*
X212752D01*
Y251856D01*
X222526D01*
Y206702D01*
D02*
G37*
G36*
X114200Y343629D02*
X114800Y343520D01*
X115510Y343356D01*
X116329Y343138D01*
X117093Y342865D01*
X117912Y342428D01*
X118022Y342373D01*
X118240Y342210D01*
X118677Y341937D01*
X119114Y341554D01*
X119660Y341063D01*
X120260Y340517D01*
X120806Y339807D01*
X121298Y339097D01*
X121352Y338988D01*
X121516Y338715D01*
X121680Y338278D01*
X121953Y337732D01*
X122171Y337023D01*
X122335Y336204D01*
X122499Y335330D01*
X122553Y334402D01*
Y307375D01*
X122499Y306883D01*
X122390Y306283D01*
X122226Y305573D01*
X122007Y304754D01*
X121734Y303990D01*
X121298Y303171D01*
X121243Y303061D01*
X121079Y302843D01*
X120806Y302461D01*
X120424Y301969D01*
X119933Y301423D01*
X119332Y300877D01*
X118677Y300331D01*
X117912Y299840D01*
X117803Y299785D01*
X117530Y299622D01*
X117148Y299403D01*
X116547Y299185D01*
X115892Y298966D01*
X115073Y298748D01*
X114200Y298584D01*
X113271Y298530D01*
X109067D01*
Y308358D01*
X112780D01*
Y333965D01*
X104863D01*
Y307375D01*
X104808Y306883D01*
X104699Y306283D01*
X104535Y305573D01*
X104317Y304754D01*
X104044Y303990D01*
X103607Y303171D01*
X103553Y303061D01*
X103389Y302843D01*
X103116Y302461D01*
X102734Y301969D01*
X102242Y301423D01*
X101642Y300877D01*
X100986Y300331D01*
X100222Y299840D01*
X100113Y299785D01*
X99840Y299622D01*
X99403Y299403D01*
X98857Y299185D01*
X98147Y298966D01*
X97383Y298748D01*
X96509Y298584D01*
X95581Y298530D01*
X86681D01*
X86627D01*
X86572D01*
X86244D01*
X85753Y298584D01*
X85152Y298693D01*
X84388Y298857D01*
X83624Y299076D01*
X82805Y299403D01*
X81986Y299840D01*
X81876Y299895D01*
X81658Y300058D01*
X81276Y300331D01*
X80784Y300714D01*
X80238Y301205D01*
X79692Y301751D01*
X79146Y302406D01*
X78655Y303171D01*
X78600Y303280D01*
X78491Y303553D01*
X78273Y303935D01*
X78054Y304536D01*
X77836Y305191D01*
X77618Y306010D01*
X77508Y306883D01*
X77454Y307812D01*
Y334839D01*
X77508Y335330D01*
X77618Y335931D01*
X77727Y336695D01*
X77945Y337459D01*
X78273Y338278D01*
X78655Y339097D01*
X78710Y339207D01*
X78873Y339425D01*
X79146Y339807D01*
X79529Y340299D01*
X80020Y340845D01*
X80566Y341391D01*
X81276Y341937D01*
X81986Y342428D01*
X82095Y342483D01*
X82368Y342646D01*
X82805Y342810D01*
X83351Y343029D01*
X84060Y343302D01*
X84879Y343465D01*
X85753Y343629D01*
X86681Y343684D01*
X90885D01*
Y333965D01*
X87227D01*
Y308358D01*
X95090D01*
Y334839D01*
X95144Y335330D01*
X95253Y335931D01*
X95417Y336695D01*
X95636Y337459D01*
X95909Y338278D01*
X96345Y339097D01*
X96400Y339207D01*
X96564Y339425D01*
X96837Y339807D01*
X97219Y340299D01*
X97710Y340845D01*
X98311Y341391D01*
X98966Y341937D01*
X99731Y342428D01*
X99840Y342483D01*
X100113Y342646D01*
X100550Y342810D01*
X101096Y343029D01*
X101805Y343302D01*
X102570Y343465D01*
X103443Y343629D01*
X104372Y343684D01*
X113271D01*
X113326D01*
X113381D01*
X113708D01*
X114200Y343629D01*
D02*
G37*
G36*
X122553Y282586D02*
X95690Y272758D01*
X122553Y262876D01*
Y253921D01*
X95690Y244039D01*
X122553Y234211D01*
Y223891D01*
X77454Y240326D01*
Y247806D01*
X106446Y258453D01*
X77454Y269046D01*
Y276526D01*
X122553Y292906D01*
Y282586D01*
D02*
G37*
G36*
X114200Y217612D02*
X114800Y217503D01*
X115510Y217339D01*
X116329Y217121D01*
X117093Y216848D01*
X117912Y216411D01*
X118022Y216357D01*
X118240Y216193D01*
X118677Y215920D01*
X119114Y215538D01*
X119660Y215046D01*
X120260Y214500D01*
X120806Y213790D01*
X121298Y213081D01*
X121352Y212971D01*
X121516Y212698D01*
X121680Y212262D01*
X121953Y211716D01*
X122171Y211006D01*
X122335Y210187D01*
X122499Y209313D01*
X122553Y208385D01*
Y181467D01*
X122499Y180976D01*
X122390Y180375D01*
X122226Y179665D01*
X122007Y178846D01*
X121734Y178082D01*
X121298Y177263D01*
X121243Y177154D01*
X121079Y176935D01*
X120806Y176499D01*
X120424Y176062D01*
X119933Y175516D01*
X119332Y174915D01*
X118677Y174369D01*
X117912Y173878D01*
X117803Y173823D01*
X117530Y173659D01*
X117148Y173441D01*
X116547Y173223D01*
X115892Y173004D01*
X115073Y172786D01*
X114200Y172622D01*
X113271Y172567D01*
X109013D01*
Y182395D01*
X112780D01*
Y207948D01*
X87227D01*
Y182395D01*
X93998D01*
Y192169D01*
X103771D01*
Y172567D01*
X86681D01*
X86627D01*
X86572D01*
X86244D01*
X85753Y172622D01*
X85152Y172731D01*
X84388Y172895D01*
X83624Y173113D01*
X82805Y173441D01*
X81986Y173878D01*
X81876Y173932D01*
X81658Y174096D01*
X81276Y174369D01*
X80784Y174751D01*
X80238Y175243D01*
X79692Y175843D01*
X79146Y176499D01*
X78655Y177263D01*
X78600Y177372D01*
X78491Y177645D01*
X78273Y178027D01*
X78054Y178628D01*
X77836Y179283D01*
X77618Y180102D01*
X77508Y180976D01*
X77454Y181904D01*
Y208822D01*
X77508Y209313D01*
X77618Y209914D01*
X77727Y210678D01*
X77945Y211443D01*
X78273Y212262D01*
X78655Y213081D01*
X78710Y213190D01*
X78873Y213408D01*
X79146Y213790D01*
X79529Y214282D01*
X80020Y214828D01*
X80566Y215374D01*
X81276Y215920D01*
X81986Y216411D01*
X82095Y216466D01*
X82368Y216630D01*
X82805Y216793D01*
X83351Y217012D01*
X84060Y217285D01*
X84879Y217449D01*
X85753Y217612D01*
X86681Y217667D01*
X113271D01*
X113326D01*
X113381D01*
X113708D01*
X114200Y217612D01*
D02*
G37*
G36*
X37934Y654384D02*
X38535Y654275D01*
X39244Y654111D01*
X40009Y653893D01*
X40828Y653620D01*
X41592Y653183D01*
X41701Y653128D01*
X41920Y652965D01*
X42302Y652692D01*
X42739Y652309D01*
X43285Y651873D01*
X43831Y651327D01*
X44322Y650671D01*
X44813Y649962D01*
X44868Y649852D01*
X45032Y649634D01*
X45196Y649197D01*
X45469Y648651D01*
X45687Y647941D01*
X45851Y647177D01*
X46015Y646303D01*
X46069Y645375D01*
Y636312D01*
Y636257D01*
Y636202D01*
Y635875D01*
X46015Y635438D01*
X45960Y634837D01*
Y634783D01*
Y634728D01*
X45906Y634401D01*
X45851Y633909D01*
X45687Y633418D01*
X45742Y633363D01*
X45851Y633199D01*
X46015Y632981D01*
X46233Y632708D01*
X46452Y632326D01*
X46724Y631889D01*
X47161Y630852D01*
X47216Y630797D01*
X47270Y630579D01*
X47380Y630306D01*
X47489Y629923D01*
X47598Y629432D01*
X47653Y628941D01*
X47762Y628340D01*
Y627739D01*
Y618403D01*
Y618294D01*
Y617966D01*
X47707Y617475D01*
X47598Y616874D01*
X47434Y616164D01*
X47216Y615400D01*
X46943Y614635D01*
X46506Y613816D01*
X46452Y613707D01*
X46288Y613489D01*
X46015Y613107D01*
X45633Y612670D01*
X45196Y612124D01*
X44595Y611578D01*
X43995Y611032D01*
X43230Y610540D01*
X43121Y610486D01*
X42848Y610377D01*
X42466Y610158D01*
X41865Y609940D01*
X41210Y609721D01*
X40446Y609503D01*
X39626Y609394D01*
X38698Y609339D01*
X12163D01*
X11671Y609394D01*
X11071Y609503D01*
X10361Y609612D01*
X9542Y609831D01*
X8777Y610158D01*
X7958Y610540D01*
X7849Y610595D01*
X7631Y610759D01*
X7249Y611032D01*
X6812Y611414D01*
X6266Y611905D01*
X5720Y612451D01*
X5174Y613107D01*
X4683Y613816D01*
X4628Y613926D01*
X4464Y614199D01*
X4300Y614581D01*
X4082Y615181D01*
X3809Y615837D01*
X3645Y616656D01*
X3481Y617475D01*
X3427Y618403D01*
Y621897D01*
X13036D01*
Y618894D01*
X38152D01*
Y627248D01*
X10852D01*
Y636803D01*
X36460D01*
Y644829D01*
X13036D01*
Y641335D01*
X3427D01*
Y645375D01*
Y645430D01*
Y645484D01*
Y645812D01*
X3481Y646303D01*
X3590Y646904D01*
X3700Y647614D01*
X3918Y648378D01*
X4246Y649197D01*
X4628Y649962D01*
X4683Y650071D01*
X4846Y650289D01*
X5119Y650671D01*
X5502Y651108D01*
X5993Y651654D01*
X6539Y652200D01*
X7249Y652692D01*
X7958Y653183D01*
X8068Y653238D01*
X8341Y653401D01*
X8777Y653565D01*
X9323Y653838D01*
X10033Y654057D01*
X10798Y654220D01*
X11671Y654384D01*
X12600Y654439D01*
X37443D01*
X37934Y654384D01*
D02*
G37*
%LPC*%
G36*
X-333429Y50245D02*
X-354614D01*
X-354668D01*
X-354777D01*
X-354996Y50191D01*
X-355214Y50136D01*
X-355815Y49918D01*
X-356088Y49754D01*
X-356361Y49481D01*
X-356415Y49426D01*
X-356470Y49372D01*
X-356579Y49208D01*
X-356743Y48990D01*
X-356961Y48444D01*
X-357016Y48171D01*
X-357071Y47788D01*
Y25839D01*
X-357016Y25621D01*
X-356961Y25402D01*
X-356798Y24802D01*
X-356579Y24474D01*
X-356361Y24201D01*
X-356306Y24147D01*
X-356252Y24092D01*
X-356088Y23983D01*
X-355869Y23874D01*
X-355323Y23601D01*
X-354996Y23546D01*
X-354614Y23491D01*
X-333429D01*
X-333374D01*
X-333265D01*
X-333101Y23546D01*
X-332828Y23601D01*
X-332282Y23819D01*
X-332009Y23983D01*
X-331736Y24201D01*
X-331682Y24256D01*
X-331627Y24365D01*
X-331518Y24474D01*
X-331409Y24693D01*
X-331136Y25293D01*
X-331081Y25621D01*
X-331026Y26003D01*
Y47952D01*
X-331081Y48116D01*
X-331136Y48389D01*
X-331354Y48935D01*
X-331518Y49208D01*
X-331736Y49481D01*
X-331791Y49536D01*
X-331845Y49590D01*
X-332009Y49700D01*
X-332228Y49863D01*
X-332774Y50136D01*
X-333101Y50191D01*
X-333429Y50245D01*
D02*
G37*
G36*
X234990Y1264945D02*
X212929D01*
Y1243430D01*
X234990D01*
Y1264945D01*
D02*
G37*
G36*
X19230Y1249714D02*
X-2899D01*
Y1243430D01*
X19230D01*
Y1249714D01*
D02*
G37*
G36*
X-60476Y1264945D02*
X-82537D01*
Y1258661D01*
X-60476D01*
Y1264945D01*
D02*
G37*
G36*
X-138953D02*
X-161082D01*
Y1243430D01*
X-138953D01*
Y1264945D01*
D02*
G37*
G36*
X-193524Y1249714D02*
X-215654D01*
Y1243430D01*
X-193524D01*
Y1249714D01*
D02*
G37*
G36*
X-44152Y1193353D02*
X-66213D01*
Y1171838D01*
X-44152D01*
Y1193353D01*
D02*
G37*
G36*
X-95924D02*
X-118053D01*
Y1171838D01*
X-95924D01*
Y1193353D01*
D02*
G37*
G36*
X193716Y44398D02*
X163468D01*
X163304Y44344D01*
X163031Y44289D01*
X162485Y44126D01*
X162157Y43907D01*
X161885Y43689D01*
X161830Y43634D01*
X161775Y43580D01*
X161666Y43416D01*
X161557Y43197D01*
X161284Y42651D01*
X161229Y42324D01*
X161175Y41941D01*
Y11857D01*
Y11802D01*
Y11693D01*
X161229Y11529D01*
X161284Y11256D01*
X161502Y10710D01*
X161666Y10383D01*
X161885Y10110D01*
X161939Y10055D01*
X162048Y10001D01*
X162157Y9891D01*
X162376Y9782D01*
X162922Y9509D01*
X163250Y9454D01*
X163632Y9400D01*
X193880D01*
X194099Y9454D01*
X194317Y9509D01*
X194917Y9727D01*
X195190Y9891D01*
X195464Y10110D01*
X195518Y10164D01*
X195573Y10274D01*
X195682Y10383D01*
X195846Y10601D01*
X196064Y11147D01*
X196119Y11475D01*
X196173Y11857D01*
Y41941D01*
Y41996D01*
Y42105D01*
X196119Y42324D01*
X196064Y42542D01*
X195900Y43143D01*
X195682Y43416D01*
X195464Y43689D01*
X195409Y43743D01*
X195354Y43798D01*
X195190Y43907D01*
X194972Y44071D01*
X194426Y44289D01*
X194099Y44344D01*
X193716Y44398D01*
D02*
G37*
G36*
X79657Y44344D02*
X49408D01*
X49190Y44289D01*
X48972Y44235D01*
X48426Y44071D01*
X48098Y43852D01*
X47825Y43634D01*
X47770Y43580D01*
X47716Y43525D01*
X47607Y43361D01*
X47498Y43143D01*
X47224Y42597D01*
X47170Y42269D01*
X47115Y41887D01*
Y28674D01*
Y28619D01*
Y28510D01*
X47170Y28346D01*
X47224Y28073D01*
X47443Y27527D01*
X47607Y27254D01*
X47825Y26981D01*
X47880Y26927D01*
X47934Y26872D01*
X48098Y26763D01*
X48316Y26654D01*
X48862Y26381D01*
X49190Y26326D01*
X49572Y26271D01*
X79821D01*
X79984Y26326D01*
X80257Y26381D01*
X80803Y26599D01*
X81076Y26763D01*
X81350Y26981D01*
X81404Y27036D01*
X81459Y27090D01*
X81568Y27254D01*
X81732Y27473D01*
X81950Y28018D01*
X82005Y28346D01*
X82059Y28674D01*
Y41887D01*
Y41941D01*
Y42051D01*
X82005Y42269D01*
X81950Y42487D01*
X81786Y43088D01*
X81568Y43361D01*
X81350Y43634D01*
X81295Y43689D01*
X81240Y43743D01*
X81076Y43852D01*
X80858Y44016D01*
X80312Y44235D01*
X80039Y44289D01*
X79657Y44344D01*
D02*
G37*
G36*
X134093Y-9885D02*
X101770D01*
X101552Y-9939D01*
X101333Y-9994D01*
X100787Y-10212D01*
X100460Y-10376D01*
X100186Y-10649D01*
X100132Y-10704D01*
X100077Y-10758D01*
X99968Y-10922D01*
X99859Y-11141D01*
X99586Y-11687D01*
X99531Y-11960D01*
X99477Y-12342D01*
Y-38495D01*
X134093Y-9885D01*
D02*
G37*
G36*
X134748Y-16109D02*
X100132Y-44665D01*
X132510D01*
X132673Y-44610D01*
X132946Y-44556D01*
X133493Y-44337D01*
X133766Y-44174D01*
X134038Y-43955D01*
X134093Y-43901D01*
X134148Y-43846D01*
X134257Y-43682D01*
X134421Y-43464D01*
X134639Y-42918D01*
X134694Y-42590D01*
X134748Y-42263D01*
Y-16109D01*
D02*
G37*
G36*
X81786Y-9885D02*
X49463D01*
X49245Y-9939D01*
X49026Y-9994D01*
X48480Y-10212D01*
X48153Y-10376D01*
X47880Y-10649D01*
X47825Y-10704D01*
X47770Y-10758D01*
X47661Y-10922D01*
X47552Y-11141D01*
X47279Y-11687D01*
X47224Y-11960D01*
X47170Y-12342D01*
Y-38495D01*
X81786Y-9885D01*
D02*
G37*
G36*
X82442Y-16109D02*
X47825Y-44665D01*
X80203D01*
X80367Y-44610D01*
X80640Y-44556D01*
X81186Y-44337D01*
X81459Y-44174D01*
X81732Y-43955D01*
X81786Y-43901D01*
X81841Y-43846D01*
X81950Y-43682D01*
X82114Y-43464D01*
X82332Y-42918D01*
X82387Y-42590D01*
X82442Y-42263D01*
Y-16109D01*
D02*
G37*
G36*
X153640Y102779D02*
X126504D01*
X126285Y102669D01*
X126121Y102560D01*
X126067Y102506D01*
X126012Y102397D01*
X125958Y102287D01*
X125903Y102069D01*
Y90494D01*
Y90439D01*
X125958Y90330D01*
X126012Y90166D01*
X126121Y90002D01*
X126176Y89948D01*
X126285Y89893D01*
X126449Y89838D01*
X153858D01*
X154077Y89893D01*
X154240Y90002D01*
X154295Y90057D01*
X154350Y90166D01*
X154404Y90330D01*
X154459Y90494D01*
Y102069D01*
Y102124D01*
Y102233D01*
X154350Y102397D01*
X154240Y102560D01*
X154186Y102615D01*
X154077Y102669D01*
X153913Y102724D01*
X153640Y102779D01*
D02*
G37*
G36*
X101606D02*
X74033D01*
X73869Y102615D01*
X73815Y102560D01*
X73760Y102451D01*
X73706Y102287D01*
X73651Y102069D01*
Y89456D01*
X102152D01*
Y102069D01*
Y102124D01*
Y102287D01*
X102043Y102451D01*
X101934Y102615D01*
X101879Y102669D01*
X101770Y102724D01*
X101606Y102779D01*
D02*
G37*
G36*
X-156615Y339264D02*
X-176595D01*
Y319327D01*
X-156615D01*
Y339264D01*
D02*
G37*
G36*
X-115805Y254771D02*
X-135741D01*
Y246166D01*
X-115805D01*
Y254771D01*
D02*
G37*
G36*
X-156615D02*
X-176595D01*
Y234834D01*
X-156615D01*
Y254771D01*
D02*
G37*
G36*
X-197298Y212546D02*
X-217235D01*
Y204196D01*
X-197298D01*
Y212546D01*
D02*
G37*
G36*
X-269750Y339264D02*
X-289730D01*
Y319327D01*
X-269750D01*
Y339264D01*
D02*
G37*
G36*
X-310007Y297038D02*
X-329944D01*
Y288689D01*
X-310007D01*
Y297038D01*
D02*
G37*
G36*
X-269793Y212588D02*
X-289772D01*
Y192651D01*
X-269793D01*
Y212588D01*
D02*
G37*
G36*
X-310433D02*
X-330413D01*
Y192651D01*
X-310433D01*
Y212588D01*
D02*
G37*
G36*
X-399507D02*
X-419486D01*
Y192651D01*
X-399507D01*
Y212588D01*
D02*
G37*
G36*
X31300Y739478D02*
X19889Y730196D01*
X31300D01*
Y739478D01*
D02*
G37*
G36*
X29334Y945500D02*
X5733D01*
X5563Y945457D01*
X5393Y945414D01*
X4967Y945287D01*
X4711Y945116D01*
X4498Y944946D01*
X4455Y944903D01*
X4413Y944861D01*
X4328Y944733D01*
X4242Y944562D01*
X4029Y944136D01*
X3987Y943881D01*
X3944Y943583D01*
Y920110D01*
Y920067D01*
Y919982D01*
X3987Y919855D01*
X4029Y919641D01*
X4200Y919216D01*
X4328Y918960D01*
X4498Y918747D01*
X4541Y918704D01*
X4583Y918662D01*
X4711Y918577D01*
X4881Y918491D01*
X5307Y918278D01*
X5563Y918236D01*
X5861Y918193D01*
X29462D01*
X29589Y918236D01*
X29802Y918278D01*
X30228Y918449D01*
X30441Y918577D01*
X30654Y918747D01*
X30697Y918789D01*
X30740Y918875D01*
X30825Y918960D01*
X30953Y919130D01*
X31166Y919556D01*
X31208Y919812D01*
X31251Y920110D01*
Y943583D01*
Y943625D01*
Y943711D01*
X31208Y943881D01*
X31166Y944051D01*
X30995Y944520D01*
X30867Y944733D01*
X30654Y944946D01*
X30612Y944989D01*
X30569Y945031D01*
X30441Y945116D01*
X30271Y945244D01*
X29845Y945414D01*
X29632Y945457D01*
X29334Y945500D01*
D02*
G37*
G36*
X180210Y-97758D02*
X123615D01*
X123232Y-97853D01*
X122850Y-97949D01*
X121894Y-98332D01*
X121320Y-98618D01*
X120842Y-99096D01*
X120746Y-99192D01*
X120651Y-99287D01*
X120460Y-99574D01*
X120269Y-99957D01*
X119790Y-100913D01*
X119695Y-101391D01*
X119599Y-102060D01*
Y-147852D01*
X180210Y-97758D01*
D02*
G37*
G36*
X181357Y-108656D02*
X120746Y-158655D01*
X177437D01*
X177724Y-158560D01*
X178202Y-158464D01*
X179158Y-158082D01*
X179636Y-157795D01*
X180114Y-157412D01*
X180210Y-157317D01*
X180305Y-157221D01*
X180496Y-156934D01*
X180783Y-156552D01*
X181166Y-155596D01*
X181261Y-155022D01*
X181357Y-154449D01*
Y-108656D01*
D02*
G37*
G36*
X-38906Y-100722D02*
X-82499Y-138292D01*
X-38906D01*
Y-100722D01*
D02*
G37*
G36*
X412780Y333974D02*
X401751D01*
Y308421D01*
X412780D01*
Y333974D01*
D02*
G37*
G36*
Y281613D02*
X387227D01*
Y256005D01*
X412780D01*
Y281613D01*
D02*
G37*
G36*
X312780Y333974D02*
X305245D01*
Y310168D01*
X312780D01*
Y333974D01*
D02*
G37*
G36*
X295472D02*
X287227D01*
Y308367D01*
X295472D01*
Y333974D01*
D02*
G37*
G36*
X312780Y268454D02*
X301751D01*
Y242901D01*
X312780D01*
Y268454D01*
D02*
G37*
%LPD*%
D31*
X-149996Y742519D02*
G03*
X-189366Y781889I-39370J0D01*
G01*
Y381889D02*
G03*
X-149996Y421259I0J39370D01*
G01*
X-420626Y781889D02*
G03*
X-459997Y742519I0J-39370D01*
G01*
Y421259D02*
G03*
X-420626Y381889I39370J0D01*
G01*
X460004Y742519D02*
G03*
X420634Y781889I-39370J0D01*
G01*
Y381889D02*
G03*
X460004Y421259I0J39370D01*
G01*
X-70626Y781889D02*
G03*
X-109996Y742519I0J-39370D01*
G01*
Y421259D02*
G03*
X-70626Y381889I39370J0D01*
G01*
X-420626D02*
X-189366D01*
X-420626Y781889D02*
X-189366D01*
X-149996Y421259D02*
Y742519D01*
X-459997Y421259D02*
Y742519D01*
X-70626Y381889D02*
X420634D01*
X-70626Y781889D02*
X420634D01*
X460004Y421259D02*
Y742519D01*
X-109996Y421259D02*
Y742519D01*
X-147634Y76181D02*
Y78740D01*
X-301177Y76181D02*
Y78740D01*
X-147634D01*
X-301177Y-78740D02*
X-147634D01*
X-301177D02*
Y-76181D01*
X-147634Y-78740D02*
Y-76181D01*
X50474Y901877D02*
X95462Y856889D01*
X180315D01*
X-241778Y133189D02*
X-241778Y101693D01*
X-184996Y856889D02*
X-100144D01*
X-55156Y901877D01*
X-44779Y1039140D02*
Y1054888D01*
X-60527Y1039140D02*
X-44779D01*
X-215274Y1039164D02*
X-199525D01*
X-215274D02*
X-215273Y1054912D01*
X-60519Y1144637D02*
X-44770D01*
Y1128889D02*
Y1144637D01*
X-215206Y1128866D02*
X-215205Y1144614D01*
X-199457D01*
X205221Y1039140D02*
Y1054888D01*
X189473Y1039140D02*
X205221D01*
X34727Y1039164D02*
X50474D01*
X34727D02*
X34727Y1054912D01*
X189482Y1144637D02*
X205230D01*
Y1128889D02*
Y1144637D01*
X34794Y1128866D02*
X34795Y1144614D01*
X50543D01*
X-302583Y355168D02*
Y396985D01*
X397417Y355168D02*
Y396985D01*
X297417Y355168D02*
Y396985D01*
X197417Y355168D02*
Y396985D01*
X97417Y355168D02*
Y396985D01*
X-52583Y355168D02*
Y396985D01*
X-202583Y355168D02*
Y396985D01*
X-402582Y355168D02*
Y396985D01*
X-109996Y581746D02*
X460004D01*
X224334Y-128111D02*
X310004D01*
X370004Y-68111D01*
X-369996D02*
X-309996Y-128111D01*
X-221096D01*
D32*
X-129917Y-78740D02*
G03*
X-129917Y-78740I-1968J0D01*
G01*
X227004Y923889D02*
X260250Y951594D01*
X-260242Y812184D02*
X-226996Y839889D01*
D33*
X417145Y847889D02*
G03*
X417145Y847889I-6142J0D01*
G01*
X-404855Y915889D02*
G03*
X-404855Y915889I-6142J0D01*
G01*
X-459996Y481745D02*
X-149996D01*
X-459996Y581745D02*
X-149996D01*
X-459996Y681745D02*
X-149996D01*
X-250140Y381889D02*
Y781889D01*
X-349853Y381889D02*
Y781889D01*
X150147Y381889D02*
Y781889D01*
X249860Y381889D02*
Y781889D01*
X349860Y381889D02*
Y781889D01*
X-109996Y481746D02*
X460004D01*
X-109996Y681746D02*
X460004D01*
D34*
X355124Y881889D02*
G03*
X355124Y881889I-55120J0D01*
G01*
X-244876D02*
G03*
X-244876Y881889I-55120J0D01*
G01*
X227169Y811889D02*
Y951889D01*
Y811889D02*
X375004D01*
X227169Y951889D02*
X375004D01*
Y811889D02*
Y951889D01*
X-227162Y951889D02*
X-227162Y811889D01*
X-374996Y951889D02*
X-227162Y951889D01*
X-374996Y811889D02*
X-227162Y811889D01*
X-374996Y811889D02*
X-374996Y951889D01*
D35*
X600394Y0D02*
G03*
X600394Y0I-108268J0D01*
G01*
X-383858D02*
G03*
X-383858Y0I-108268J0D01*
G01*
D36*
X-119996Y65000D02*
G03*
X-129996Y55000I0J-10000D01*
G01*
X-49996D02*
G03*
X-59996Y65000I-10000J0D01*
G01*
X-129996Y-55000D02*
G03*
X-119996Y-65000I10000J0D01*
G01*
X-59996D02*
G03*
X-49996Y-55000I0J10000D01*
G01*
X-14996Y431889D02*
G03*
X-14996Y431889I-35000J0D01*
G01*
Y631889D02*
G03*
X-14996Y631889I-35000J0D01*
G01*
Y531889D02*
G03*
X-14996Y531889I-35000J0D01*
G01*
Y731889D02*
G03*
X-14996Y731889I-35000J0D01*
G01*
X435004Y431889D02*
G03*
X435004Y431889I-35000J0D01*
G01*
Y631889D02*
G03*
X435004Y631889I-35000J0D01*
G01*
Y731889D02*
G03*
X435004Y731889I-35000J0D01*
G01*
X235004Y431889D02*
G03*
X235004Y431889I-35000J0D01*
G01*
X335004D02*
G03*
X335004Y431889I-35000J0D01*
G01*
Y631889D02*
G03*
X335004Y631889I-35000J0D01*
G01*
Y531889D02*
G03*
X335004Y531889I-35000J0D01*
G01*
X435004D02*
G03*
X435004Y531889I-35000J0D01*
G01*
X335004Y731889D02*
G03*
X335004Y731889I-35000J0D01*
G01*
X235004D02*
G03*
X235004Y731889I-35000J0D01*
G01*
X135004D02*
G03*
X135004Y731889I-35000J0D01*
G01*
Y431889D02*
G03*
X135004Y431889I-35000J0D01*
G01*
Y631889D02*
G03*
X135004Y631889I-35000J0D01*
G01*
Y531889D02*
G03*
X135004Y531889I-35000J0D01*
G01*
X235004D02*
G03*
X235004Y531889I-35000J0D01*
G01*
Y631889D02*
G03*
X235004Y631889I-35000J0D01*
G01*
X-164996Y431889D02*
G03*
X-164996Y431889I-35000J0D01*
G01*
X-264996Y531889D02*
G03*
X-264996Y531889I-35000J0D01*
G01*
Y431889D02*
G03*
X-264996Y431889I-35000J0D01*
G01*
X-364996D02*
G03*
X-364996Y431889I-35000J0D01*
G01*
Y731889D02*
G03*
X-364996Y731889I-35000J0D01*
G01*
X-264996Y631889D02*
G03*
X-264996Y631889I-35000J0D01*
G01*
X-364996D02*
G03*
X-364996Y631889I-35000J0D01*
G01*
Y531889D02*
G03*
X-364996Y531889I-35000J0D01*
G01*
X-164996Y631889D02*
G03*
X-164996Y631889I-35000J0D01*
G01*
X-264996Y731889D02*
G03*
X-264996Y731889I-35000J0D01*
G01*
X-164996D02*
G03*
X-164996Y731889I-35000J0D01*
G01*
Y531889D02*
G03*
X-164996Y531889I-35000J0D01*
G01*
X-119996Y65000D02*
X-59996D01*
X-49996Y-55000D02*
Y55000D01*
X-119996Y-65000D02*
X-59996D01*
X-129996Y-55000D02*
Y55000D01*
D37*
X-460630Y1310630D02*
G03*
X-500000Y1271260I0J-39370D01*
G01*
X500000D02*
G03*
X460630Y1310630I-39370J0D01*
G01*
X-539370Y189370D02*
G03*
X-500000Y228741I0J39370D01*
G01*
X585630Y-189370D02*
G03*
X625000Y-150000I0J39370D01*
G01*
Y150000D02*
G03*
X585630Y189370I-39370J0D01*
G01*
X500000Y228741D02*
G03*
X539370Y189370I39370J0D01*
G01*
X-585630D02*
G03*
X-625000Y150000I0J-39370D01*
G01*
Y-150000D02*
G03*
X-585630Y-189370I39370J0D01*
G01*
X-460630Y1310630D02*
X460630D01*
X625000Y-150000D02*
Y150000D01*
X-500000Y228741D02*
Y1271259D01*
X-585630Y-189370D02*
X585630D01*
X539370Y189370D02*
X585630D01*
X500000Y228741D02*
Y1271259D01*
X-625000Y-150000D02*
Y150000D01*
X-585630Y189370D02*
X-539370D01*
%TF.MD5,2356774e6c51de67f4ee04dc9a31ba6e*%
M02*
