%TF.GenerationSoftware,Altium Limited,Altium Designer,23.8.1 (32)*%
G04 Layer_Physical_Order=1*
G04 Layer_Color=255*
%FSLAX26Y26*%
%MOIN*%
%TF.SameCoordinates,B48688C3-A13A-492E-84A6-6931980A1D19*%
%TF.FilePolarity,Positive*%
%TF.FileFunction,Copper,L1,Top,Signal*%
%TF.Part,Single*%
G01*
G75*
%TA.AperFunction,SMDPad,CuDef*%
%ADD10R,0.052362X0.020866*%
%ADD11R,0.039370X0.033460*%
%ADD12R,0.023622X0.027559*%
%ADD13R,0.023622X0.031496*%
%ADD14R,0.135039X0.070079*%
%ADD15R,0.027559X0.023622*%
%ADD16R,0.008000X0.025000*%
%ADD17R,0.063000X0.046000*%
%ADD18C,0.050000*%
%TA.AperFunction,Conductor*%
%ADD19C,0.010000*%
%ADD20C,0.016000*%
%ADD21C,0.020000*%
%ADD22C,0.006786*%
%ADD23C,0.006786*%
%ADD24C,0.012000*%
%ADD25C,0.030000*%
%ADD26C,0.006870*%
%TA.AperFunction,ViaPad*%
%ADD27C,0.023622*%
%ADD28C,0.028000*%
%ADD29C,0.118110*%
G36*
X379249Y947569D02*
X379987Y937383D01*
X380326Y935746D01*
X380725Y934471D01*
X381187Y933560D01*
X381709Y933013D01*
X382294Y932829D01*
X349339Y932949D01*
X349219Y951024D01*
X379219D01*
X379249Y947569D01*
D02*
G37*
G36*
X-344474Y932949D02*
X-345834Y931540D01*
X-347971Y929014D01*
X-348748Y927897D01*
X-349331Y926877D01*
X-349720Y925954D01*
X-349914Y925128D01*
Y924399D01*
X-349720Y923768D01*
X-349331Y923233D01*
X-359047Y932949D01*
X-358513Y932560D01*
X-357881Y932366D01*
X-357152D01*
X-356327Y932560D01*
X-355404Y932949D01*
X-354383Y933532D01*
X-353266Y934309D01*
X-352052Y935281D01*
X-349331Y937807D01*
X-344474Y932949D01*
D02*
G37*
G36*
X388669Y931715D02*
X389269Y930612D01*
X390269Y929638D01*
X391669Y928794D01*
X393469Y928080D01*
X395669Y927495D01*
X398269Y927041D01*
X400511Y926798D01*
X409544Y927343D01*
X410544Y927614D01*
X411144Y927921D01*
X411344Y928265D01*
Y904883D01*
X411144Y905182D01*
X410544Y905449D01*
X409544Y905686D01*
X408144Y905890D01*
X404144Y906205D01*
X402791Y906231D01*
X398269Y905851D01*
X395669Y905380D01*
X393469Y904775D01*
X391669Y904035D01*
X390269Y903160D01*
X389269Y902151D01*
X388669Y901007D01*
X388469Y899729D01*
Y906021D01*
X379621Y905843D01*
Y927070D01*
X380038Y926953D01*
X381041Y926849D01*
X384809Y926677D01*
X388469Y926645D01*
Y932949D01*
X388669Y931715D01*
D02*
G37*
G36*
X211539Y909469D02*
X211470Y910122D01*
X211264Y910706D01*
X210920Y911221D01*
X210440Y911667D01*
X209821Y912045D01*
X209065Y912354D01*
X208172Y912595D01*
X207142Y912767D01*
X205974Y912870D01*
X204669Y912904D01*
Y919774D01*
X205974Y919808D01*
X207142Y919911D01*
X208172Y920083D01*
X209065Y920324D01*
X209821Y920633D01*
X210440Y921011D01*
X210920Y921457D01*
X211264Y921972D01*
X211470Y922556D01*
X211539Y923209D01*
Y909469D01*
D02*
G37*
G36*
X-211231Y932643D02*
X-210331Y932369D01*
X-208831Y932128D01*
X-206731Y931919D01*
X-196831Y931484D01*
X-181531Y931339D01*
Y901339D01*
X-211531Y899729D01*
Y932949D01*
X-211231Y932643D01*
D02*
G37*
G36*
X-250661Y899729D02*
X-250958Y900035D01*
X-251848Y900309D01*
X-253331Y900550D01*
X-255407Y900759D01*
X-265194Y901194D01*
X-280320Y901339D01*
Y931339D01*
X-250661Y932949D01*
Y899729D01*
D02*
G37*
G36*
X411464Y865864D02*
X411332Y866405D01*
X410941Y866889D01*
X410291Y867317D01*
X409382Y867687D01*
X408214Y868000D01*
X406788Y868257D01*
X405103Y868456D01*
X400957Y868684D01*
X398495Y868712D01*
Y888712D01*
X411344Y888895D01*
X411464Y865864D01*
D02*
G37*
G36*
X271882Y863854D02*
X267851Y859706D01*
X258305Y848388D01*
X255972Y844991D01*
X254063Y841783D01*
X252578Y838762D01*
X251517Y835930D01*
X250881Y833285D01*
X250669Y830829D01*
X229650Y863929D01*
X230913Y862528D01*
X232524Y861755D01*
X234483Y861611D01*
X236790Y862094D01*
X239444Y863206D01*
X242446Y864947D01*
X245797Y867315D01*
X249495Y870312D01*
X257934Y878191D01*
X271882Y863854D01*
D02*
G37*
G36*
X213422Y859000D02*
X214151Y858673D01*
X215030Y858384D01*
X216058Y858133D01*
X217236Y857921D01*
X220038Y857612D01*
X223437Y857458D01*
X225361Y857439D01*
Y837439D01*
X223437Y837420D01*
X217236Y836957D01*
X216058Y836745D01*
X215030Y836494D01*
X214151Y836205D01*
X213422Y835878D01*
X212842Y835511D01*
Y859367D01*
X213422Y859000D01*
D02*
G37*
G36*
X361890Y830949D02*
X361242Y831190D01*
X360524Y831267D01*
X359738Y831182D01*
X358882Y830935D01*
X357957Y830524D01*
X356962Y829951D01*
X355899Y829215D01*
X354767Y828317D01*
X353565Y827255D01*
X352294Y826031D01*
X344541Y827874D01*
X346027Y829408D01*
X348338Y832092D01*
X349161Y833243D01*
X349763Y834266D01*
X350145Y835162D01*
X350305Y835931D01*
X350244Y836571D01*
X349962Y837085D01*
X349459Y837470D01*
X361890Y830949D01*
D02*
G37*
G36*
X-430139Y842044D02*
X-429172Y826644D01*
X-428912Y826044D01*
X-428620Y825844D01*
X-452002D01*
X-451651Y826044D01*
X-451337Y826644D01*
X-451060Y827644D01*
X-450819Y829044D01*
X-450616Y830844D01*
X-450228Y838644D01*
X-450154Y845844D01*
X-430154D01*
X-430139Y842044D01*
D02*
G37*
G36*
X-237402Y830879D02*
X-237986Y830669D01*
X-238501Y830320D01*
X-238948Y829831D01*
X-239325Y829201D01*
X-239635Y828433D01*
X-239875Y827524D01*
X-240047Y826475D01*
X-240150Y825287D01*
X-240184Y823959D01*
X-247054D01*
X-247089Y825287D01*
X-247192Y826475D01*
X-247363Y827524D01*
X-247604Y828433D01*
X-247913Y829201D01*
X-248291Y829831D01*
X-248737Y830320D01*
X-249253Y830669D01*
X-249837Y830879D01*
X-250489Y830949D01*
X-236749D01*
X-237402Y830879D01*
D02*
G37*
G36*
X-384252Y881232D02*
X-376030Y874443D01*
X-372018Y871686D01*
X-368072Y869352D01*
X-364192Y867443D01*
X-360378Y865958D01*
X-356630Y864897D01*
X-352948Y864261D01*
X-349331Y864049D01*
X-374714Y842500D01*
X-372141Y837699D01*
X-365392Y830949D01*
X-365779Y830892D01*
X-366592Y830373D01*
X-367833Y829394D01*
X-371593Y826050D01*
X-373768Y823931D01*
X-381614Y814815D01*
X-383947Y811554D01*
X-385856Y808512D01*
X-387341Y805688D01*
X-388402Y803082D01*
X-389038Y800694D01*
X-389250Y798525D01*
X-412632Y825844D01*
X-412699Y826162D01*
X-412089Y827116D01*
X-410803Y828707D01*
X-409259Y830414D01*
X-409675Y830829D01*
X-394903Y846803D01*
X-396098Y848551D01*
X-398856Y852150D01*
X-405644Y859898D01*
X-409675Y864049D01*
X-388461Y885262D01*
X-384252Y881232D01*
D02*
G37*
G36*
X-284951Y776377D02*
X-283859Y758930D01*
X-283358Y755718D01*
X-282767Y752966D01*
X-282084Y750674D01*
X-281311Y748843D01*
X-280446Y747471D01*
X-319546D01*
X-318682Y748843D01*
X-317908Y750674D01*
X-317226Y752966D01*
X-316634Y755718D01*
X-316134Y758930D01*
X-315406Y766734D01*
X-315042Y776377D01*
X-314996Y781889D01*
X-284996D01*
X-284951Y776377D01*
D02*
G37*
G36*
X-384951D02*
X-383859Y758930D01*
X-383358Y755718D01*
X-382767Y752966D01*
X-382084Y750674D01*
X-381311Y748843D01*
X-380446Y747471D01*
X-419546D01*
X-418682Y748843D01*
X-417908Y750674D01*
X-417226Y752966D01*
X-416634Y755718D01*
X-416134Y758930D01*
X-415406Y766734D01*
X-415042Y776377D01*
X-414996Y781889D01*
X-384996D01*
X-384951Y776377D01*
D02*
G37*
G36*
X90885Y721266D02*
X89840Y722106D01*
X88764Y722857D01*
X87658Y723520D01*
X86521Y724095D01*
X85353Y724581D01*
X84154Y724979D01*
X82925Y725288D01*
X81665Y725509D01*
X80374Y725642D01*
X79053Y725686D01*
X78129Y735686D01*
X79475Y735737D01*
X80767Y735890D01*
X82007Y736145D01*
X83194Y736503D01*
X84328Y736963D01*
X85408Y737525D01*
X86436Y738189D01*
X87411Y738955D01*
X88332Y739823D01*
X89201Y740793D01*
X90885Y721266D01*
D02*
G37*
G36*
X77599Y720798D02*
X77045Y721727D01*
X76352Y722558D01*
X75519Y723291D01*
X74547Y723926D01*
X73436Y724464D01*
X72185Y724904D01*
X70794Y725246D01*
X69264Y725490D01*
X67595Y725637D01*
X65786Y725686D01*
X65294Y735686D01*
X67101Y735737D01*
X68758Y735889D01*
X70266Y736144D01*
X71624Y736500D01*
X72833Y736958D01*
X73893Y737518D01*
X74803Y738179D01*
X75563Y738943D01*
X76175Y739808D01*
X76636Y740775D01*
X77599Y720798D01*
D02*
G37*
G36*
X199864Y717890D02*
X198539Y717855D01*
X197253Y717722D01*
X196005Y717493D01*
X194796Y717166D01*
X193626Y716743D01*
X192494Y716222D01*
X191401Y715604D01*
X190346Y714889D01*
X189330Y714077D01*
X188353Y713167D01*
X181282Y720238D01*
X182191Y721216D01*
X183004Y722231D01*
X183719Y723286D01*
X184337Y724379D01*
X184857Y725511D01*
X185281Y726681D01*
X185608Y727890D01*
X185837Y729138D01*
X185970Y730424D01*
X186005Y731749D01*
X199864Y717890D01*
D02*
G37*
G36*
X190873Y708616D02*
X189842Y708928D01*
X188779Y709068D01*
X187685Y709034D01*
X186559Y708828D01*
X185402Y708449D01*
X184214Y707897D01*
X182995Y707173D01*
X181744Y706275D01*
X180461Y705205D01*
X179148Y703962D01*
X172077Y711033D01*
X173320Y712347D01*
X174390Y713629D01*
X175287Y714880D01*
X176012Y716100D01*
X176564Y717288D01*
X176943Y718445D01*
X177149Y719570D01*
X177182Y720664D01*
X177043Y721727D01*
X176731Y722758D01*
X190873Y708616D01*
D02*
G37*
G36*
X112874Y637520D02*
X113878Y635951D01*
X114480Y635119D01*
X116686Y632436D01*
X118491Y630490D01*
X119494Y629470D01*
X117199Y617623D01*
X116170Y618574D01*
X115148Y619363D01*
X114133Y619991D01*
X113123Y620459D01*
X112120Y620765D01*
X111123Y620909D01*
X110131Y620893D01*
X109147Y620716D01*
X108168Y620377D01*
X107195Y619877D01*
X112472Y638257D01*
X112874Y637520D01*
D02*
G37*
G36*
X214038Y630424D02*
X214171Y629138D01*
X214400Y627890D01*
X214726Y626681D01*
X215150Y625511D01*
X215671Y624379D01*
X216289Y623286D01*
X217004Y622231D01*
X217816Y621216D01*
X218726Y620238D01*
X211655Y613167D01*
X210677Y614077D01*
X209661Y614889D01*
X208607Y615604D01*
X207514Y616222D01*
X206382Y616743D01*
X205212Y617166D01*
X204003Y617493D01*
X202755Y617722D01*
X201469Y617855D01*
X200144Y617890D01*
X214003Y631749D01*
X214038Y630424D01*
D02*
G37*
G36*
X124889Y628658D02*
X125011Y627574D01*
X125275Y626462D01*
X125680Y625321D01*
X126227Y624151D01*
X126916Y622953D01*
X127747Y621726D01*
X128720Y620470D01*
X129834Y619186D01*
X131091Y617873D01*
X126156Y608665D01*
X124844Y609904D01*
X123584Y610945D01*
X122374Y611788D01*
X121216Y612433D01*
X120109Y612880D01*
X119054Y613130D01*
X118049Y613181D01*
X117096Y613035D01*
X116195Y612691D01*
X115344Y612149D01*
X124909Y629713D01*
X124889Y628658D01*
D02*
G37*
G36*
X222965Y621727D02*
X222825Y620664D01*
X222859Y619570D01*
X223065Y618444D01*
X223444Y617288D01*
X223996Y616099D01*
X224720Y614880D01*
X225618Y613629D01*
X226688Y612347D01*
X227931Y611033D01*
X220860Y603962D01*
X219546Y605205D01*
X218264Y606275D01*
X217013Y607172D01*
X215793Y607897D01*
X214605Y608449D01*
X213448Y608828D01*
X212323Y609034D01*
X211229Y609067D01*
X210166Y608928D01*
X209135Y608616D01*
X223277Y622758D01*
X222965Y621727D01*
D02*
G37*
G36*
X-222006Y453156D02*
X-221127Y452425D01*
X-220286Y451832D01*
X-219484Y451376D01*
X-218719Y451057D01*
X-217993Y450876D01*
X-217306Y450832D01*
X-216656Y450925D01*
X-216045Y451155D01*
X-215472Y451523D01*
X-223510Y440380D01*
X-223329Y441057D01*
X-223266Y441761D01*
X-223320Y442492D01*
X-223492Y443251D01*
X-223781Y444036D01*
X-224187Y444849D01*
X-224711Y445689D01*
X-225352Y446556D01*
X-226111Y447450D01*
X-226987Y448372D01*
X-222924Y454024D01*
X-222006Y453156D01*
D02*
G37*
G36*
X-215306Y446507D02*
X-214324Y445825D01*
X-213276Y445280D01*
X-212164Y444870D01*
X-210986Y444596D01*
X-209744Y444459D01*
X-208437Y444457D01*
X-207065Y444591D01*
X-205628Y444860D01*
X-204126Y445266D01*
X-213453Y428028D01*
X-214008Y429876D01*
X-215749Y434682D01*
X-216355Y436037D01*
X-217606Y438378D01*
X-218251Y439363D01*
X-218909Y440226D01*
X-219580Y440965D01*
X-216224Y447324D01*
X-215306Y446507D01*
D02*
G37*
G36*
X-79079Y180612D02*
X-79775Y179846D01*
X-80396Y179018D01*
X-80943Y178127D01*
X-81415Y177172D01*
X-81812Y176154D01*
X-82135Y175073D01*
X-82382Y173929D01*
X-82556Y172722D01*
X-82654Y171452D01*
X-82678Y170118D01*
X-94370Y181810D01*
X-93037Y181834D01*
X-91766Y181933D01*
X-90559Y182106D01*
X-89415Y182353D01*
X-88334Y182676D01*
X-87316Y183073D01*
X-86361Y183545D01*
X-85470Y184092D01*
X-84642Y184714D01*
X-83877Y185410D01*
X-79079Y180612D01*
D02*
G37*
G36*
X-148218Y150017D02*
X-147153Y134617D01*
X-146865Y134017D01*
X-146544Y133817D01*
X-169926D01*
X-169605Y134017D01*
X-169317Y134617D01*
X-169064Y135617D01*
X-168844Y137017D01*
X-168658Y138817D01*
X-168303Y146617D01*
X-168235Y153817D01*
X-148235D01*
X-148218Y150017D01*
D02*
G37*
G36*
X-227013Y102561D02*
X-227173Y103880D01*
X-227653Y105060D01*
X-228453Y106102D01*
X-229573Y107004D01*
X-231013Y107768D01*
X-232773Y108392D01*
X-234853Y108878D01*
X-237253Y109225D01*
X-239973Y109434D01*
X-240284Y109441D01*
X-240342Y109439D01*
X-245462Y108932D01*
X-247542Y108488D01*
X-249302Y107916D01*
X-250742Y107219D01*
X-251862Y106394D01*
X-252662Y105442D01*
X-253142Y104363D01*
X-253302Y103157D01*
Y130476D01*
X-253142Y129531D01*
X-252662Y128686D01*
X-251862Y127940D01*
X-250742Y127293D01*
X-249302Y126746D01*
X-247542Y126299D01*
X-245462Y125951D01*
X-243062Y125702D01*
X-239860Y125591D01*
X-237220Y125823D01*
X-234805Y126223D01*
X-232711Y126783D01*
X-230938Y127503D01*
X-229487Y128383D01*
X-228357Y129423D01*
X-227548Y130623D01*
X-227060Y131983D01*
X-226893Y133503D01*
X-227013Y102561D01*
D02*
G37*
G36*
X-103656Y109883D02*
X-103856Y110204D01*
X-104456Y110492D01*
X-105456Y110745D01*
X-106856Y110965D01*
X-108656Y111151D01*
X-116456Y111506D01*
X-123656Y111574D01*
Y131574D01*
X-119856Y131591D01*
X-104456Y132656D01*
X-103856Y132944D01*
X-103656Y133265D01*
Y109883D01*
D02*
G37*
G36*
X-305615Y103157D02*
X-306097Y103924D01*
X-306778Y104362D01*
X-307656Y104471D01*
X-308732Y104250D01*
X-310006Y103700D01*
X-311478Y102820D01*
X-313148Y101611D01*
X-315015Y100073D01*
X-319343Y96007D01*
X-330657Y107321D01*
X-327537Y110507D01*
X-320390Y118641D01*
X-318745Y120878D01*
X-317469Y122878D01*
X-316562Y124640D01*
X-316024Y126165D01*
X-315854Y127453D01*
X-316054Y128504D01*
X-305615Y103157D01*
D02*
G37*
G36*
X-146344Y133391D02*
X-145744Y133010D01*
X-144744Y132673D01*
X-143344Y132382D01*
X-141544Y132135D01*
X-136744Y131776D01*
X-126544Y131574D01*
Y111574D01*
X-130344Y111484D01*
X-133744Y111213D01*
X-136744Y110763D01*
X-139344Y110132D01*
X-141544Y109321D01*
X-143344Y108329D01*
X-144744Y107158D01*
X-145744Y105806D01*
X-146344Y104274D01*
X-146544Y102561D01*
Y133817D01*
X-146344Y133391D01*
D02*
G37*
G36*
X-79136Y70393D02*
X-80156Y70033D01*
X-81056Y69433D01*
X-81836Y68593D01*
X-82496Y67513D01*
X-83036Y66193D01*
X-83456Y64633D01*
X-83756Y62833D01*
X-83858Y61681D01*
X-83756Y60517D01*
X-83456Y58699D01*
X-83036Y57123D01*
X-82496Y55790D01*
X-81836Y54699D01*
X-81056Y53851D01*
X-80156Y53245D01*
X-79136Y52881D01*
X-77996Y52760D01*
X-101996D01*
X-100856Y52881D01*
X-99836Y53245D01*
X-98936Y53851D01*
X-98156Y54699D01*
X-97496Y55790D01*
X-96956Y57123D01*
X-96536Y58699D01*
X-96236Y60517D01*
X-96135Y61681D01*
X-96236Y62833D01*
X-96536Y64633D01*
X-96956Y66193D01*
X-97496Y67513D01*
X-98156Y68593D01*
X-98936Y69433D01*
X-99836Y70033D01*
X-100856Y70393D01*
X-101996Y70513D01*
X-77996D01*
X-79136Y70393D01*
D02*
G37*
G36*
X-121376Y7120D02*
X-121487Y8085D01*
X-121820Y8949D01*
X-122374Y9711D01*
X-123151Y10371D01*
X-124149Y10930D01*
X-125369Y11387D01*
X-126811Y11742D01*
X-128474Y11996D01*
X-130050Y12124D01*
X-132173Y9935D01*
X-135877Y5649D01*
X-137227Y3788D01*
X-138243Y2117D01*
X-138924Y634D01*
X-139271Y-661D01*
X-139283Y-1766D01*
X-138962Y-2684D01*
X-138305Y-3412D01*
X-156127Y10313D01*
X-155191Y9864D01*
X-154032Y9784D01*
X-152650Y10073D01*
X-151044Y10732D01*
X-149214Y11760D01*
X-147160Y13158D01*
X-144883Y14925D01*
X-139658Y19567D01*
X-136709Y22442D01*
X-132467Y16234D01*
Y24200D01*
X-130360Y24250D01*
X-128474Y24403D01*
X-126811Y24658D01*
X-125369Y25014D01*
X-124149Y25472D01*
X-123151Y26032D01*
X-122374Y26694D01*
X-121820Y27457D01*
X-121487Y28323D01*
X-121376Y29290D01*
Y7120D01*
D02*
G37*
G36*
X47353Y9687D02*
X46527Y8812D01*
X45794Y7934D01*
X45154Y7051D01*
X44608Y6164D01*
X44154Y5273D01*
X43794Y4377D01*
X43526Y3478D01*
X43352Y2574D01*
X43271Y1667D01*
X43283Y755D01*
X30977Y11800D01*
X31884Y11881D01*
X32787Y12045D01*
X33686Y12292D01*
X34581Y12621D01*
X35471Y13034D01*
X36357Y13529D01*
X37239Y14107D01*
X38117Y14767D01*
X38990Y15510D01*
X39860Y16336D01*
X47353Y9687D01*
D02*
G37*
G36*
X110601Y9042D02*
X109775Y8170D01*
X109037Y7293D01*
X108388Y6412D01*
X107826Y5527D01*
X107351Y4637D01*
X106965Y3742D01*
X106667Y2843D01*
X106456Y1939D01*
X106333Y1031D01*
X106299Y118D01*
X94606Y11810D01*
X95519Y11845D01*
X96427Y11968D01*
X97331Y12178D01*
X98230Y12477D01*
X99125Y12863D01*
X100015Y13337D01*
X100901Y13899D01*
X101782Y14549D01*
X102658Y15287D01*
X103530Y16113D01*
X110601Y9042D01*
D02*
G37*
G36*
X-190308Y-59101D02*
X-190390Y-59078D01*
X-190637Y-59057D01*
X-192368Y-59011D01*
X-198548Y-58981D01*
Y-42981D01*
X-190308Y-42861D01*
Y-59101D01*
D02*
G37*
G36*
X-83855Y-52829D02*
X-84432Y-53036D01*
X-84941Y-53382D01*
X-85382Y-53865D01*
X-85755Y-54486D01*
X-86060Y-55246D01*
X-86298Y-56144D01*
X-86468Y-57180D01*
X-86569Y-58354D01*
X-86603Y-59666D01*
X-93389D01*
X-93423Y-58354D01*
X-93525Y-57180D01*
X-93695Y-56144D01*
X-93932Y-55246D01*
X-94238Y-54486D01*
X-94611Y-53865D01*
X-95052Y-53382D01*
X-95561Y-53036D01*
X-96138Y-52829D01*
X-96782Y-52760D01*
X-83210D01*
X-83855Y-52829D01*
D02*
G37*
G36*
X-168067Y-60361D02*
X-169428Y-60851D01*
X-170627Y-61661D01*
X-171667Y-62791D01*
X-172548Y-64243D01*
X-173268Y-66016D01*
X-173827Y-68109D01*
X-174227Y-70523D01*
X-174468Y-73257D01*
X-174548Y-76313D01*
X-190548D01*
X-190428Y-60313D01*
X-166548Y-60193D01*
X-168067Y-60361D01*
D02*
G37*
G36*
X54822Y-107824D02*
X55699Y-108562D01*
X56580Y-109212D01*
X57465Y-109774D01*
X58355Y-110248D01*
X59250Y-110634D01*
X60149Y-110933D01*
X61053Y-111143D01*
X61961Y-111266D01*
X62874Y-111300D01*
X51182Y-122993D01*
X51147Y-122080D01*
X51024Y-121172D01*
X50814Y-120268D01*
X50515Y-119369D01*
X50129Y-118474D01*
X49655Y-117584D01*
X49093Y-116698D01*
X48443Y-115817D01*
X47705Y-114941D01*
X46879Y-114069D01*
X53950Y-106998D01*
X54822Y-107824D01*
D02*
G37*
G36*
X-109587Y-112499D02*
X-110283Y-113265D01*
X-110904Y-114093D01*
X-111451Y-114984D01*
X-111923Y-115939D01*
X-112320Y-116957D01*
X-112643Y-118038D01*
X-112891Y-119182D01*
X-113064Y-120389D01*
X-113162Y-121659D01*
X-113186Y-122993D01*
X-124878Y-111300D01*
X-123545Y-111277D01*
X-122274Y-111178D01*
X-121067Y-111005D01*
X-119923Y-110757D01*
X-118842Y-110435D01*
X-117824Y-110037D01*
X-116870Y-109566D01*
X-115978Y-109019D01*
X-115150Y-108397D01*
X-114385Y-107701D01*
X-109587Y-112499D01*
D02*
G37*
G36*
X115371Y-109059D02*
X116253Y-109779D01*
X117134Y-110391D01*
X118013Y-110893D01*
X118891Y-111286D01*
X119768Y-111571D01*
X120644Y-111746D01*
X121518Y-111812D01*
X122391Y-111769D01*
X123263Y-111618D01*
X114439Y-125602D01*
X114224Y-124764D01*
X113941Y-123923D01*
X113589Y-123080D01*
X113169Y-122233D01*
X112680Y-121383D01*
X112122Y-120530D01*
X111496Y-119675D01*
X110038Y-117954D01*
X109206Y-117089D01*
X114487Y-108229D01*
X115371Y-109059D01*
D02*
G37*
G36*
X-63110Y-136810D02*
X-63231Y-136860D01*
X-63445Y-137009D01*
X-63752Y-137259D01*
X-65227Y-138609D01*
X-68490Y-141812D01*
X-79804Y-130498D01*
X-74802Y-125118D01*
X-63110Y-136810D01*
D02*
G37*
D10*
X-164366Y-50000D02*
D03*
X-284445D02*
D03*
Y0D02*
D03*
Y50000D02*
D03*
X-164366D02*
D03*
Y0D02*
D03*
D11*
X231104Y916339D02*
D03*
X368904D02*
D03*
X231104Y847439D02*
D03*
X368904D02*
D03*
X-231096Y847439D02*
D03*
X-368896D02*
D03*
X-231096Y916339D02*
D03*
X-368896D02*
D03*
D12*
X-264993Y116817D02*
D03*
X-304363D02*
D03*
X-440311Y812184D02*
D03*
X-400941D02*
D03*
D13*
X-215322Y118189D02*
D03*
X-158235D02*
D03*
D14*
X-129996Y1091889D02*
D03*
X120004D02*
D03*
D15*
X-89996Y121574D02*
D03*
Y82204D02*
D03*
X425004Y877204D02*
D03*
Y916574D02*
D03*
D16*
X-89996Y0D02*
D03*
D17*
Y-30000D02*
D03*
Y30000D02*
D03*
D18*
X-49996Y431889D02*
D03*
Y631889D02*
D03*
Y531889D02*
D03*
Y731889D02*
D03*
X400004Y431889D02*
D03*
Y631889D02*
D03*
Y731889D02*
D03*
X200004Y431889D02*
D03*
X300004D02*
D03*
Y631889D02*
D03*
Y531889D02*
D03*
X400004D02*
D03*
X300004Y731889D02*
D03*
X200004D02*
D03*
X100004D02*
D03*
Y431889D02*
D03*
Y631889D02*
D03*
Y531889D02*
D03*
X200004D02*
D03*
Y631889D02*
D03*
X-199996Y431889D02*
D03*
X-299996Y531889D02*
D03*
Y431889D02*
D03*
X-399996D02*
D03*
Y731889D02*
D03*
X-299996Y631889D02*
D03*
X-399996D02*
D03*
Y531889D02*
D03*
X-199996Y631889D02*
D03*
X-299996Y731889D02*
D03*
X-199996D02*
D03*
Y531889D02*
D03*
D19*
X-9996Y-50123D02*
Y376889D01*
Y-50123D02*
X62992Y-123111D01*
X94488Y0D02*
X150004Y55516D01*
Y591889D01*
X31496Y0D02*
Y901D01*
X50004Y19409D02*
Y661889D01*
X31496Y901D02*
X50004Y19409D01*
X109868Y-110680D02*
X122298Y-123111D01*
X125984D01*
X107569Y-110680D02*
X109868D01*
X100004Y-103115D02*
X107569Y-110680D01*
X100004Y-103115D02*
Y-58891D01*
X214563Y55669D02*
X250004Y91109D01*
Y581889D01*
X200004Y631889D02*
X250004Y581889D01*
X13675Y695560D02*
X48800Y730686D01*
X13675Y400560D02*
Y695560D01*
X48800Y730686D02*
X98801D01*
X-9996Y376889D02*
X13675Y400560D01*
X214563Y55669D02*
X214563D01*
X100004Y-58891D02*
X214563Y55669D01*
X50004Y661889D02*
X70004Y681889D01*
X150004D01*
X110004Y631889D02*
X150004Y591889D01*
X100004Y631889D02*
X110004D01*
X200004Y731889D02*
X200004D01*
X150004Y681889D02*
X200004Y731889D01*
X98801Y730686D02*
X100004Y731889D01*
D20*
X-170762Y-153111D02*
X-91103D01*
X-62992Y-125000D01*
X-181095Y-50981D02*
X-180114Y-50000D01*
X-182548Y-52433D02*
X-181095Y-50981D01*
X-308174Y111037D02*
X-304363Y114848D01*
X-315627Y111037D02*
X-308174D01*
X-304363Y114848D02*
Y116817D01*
X-325000Y-75000D02*
Y101664D01*
X-315627Y111037D01*
X-264993Y116817D02*
X-264306Y117503D01*
X-216008D01*
X-215322Y118189D01*
X-325000Y-75000D02*
X-304370Y-95630D01*
X-243197D01*
X-198548Y-50981D01*
X-181095D01*
X-182548Y-141326D02*
Y-52433D01*
X-180114Y-50000D02*
X-164366D01*
X-182548Y-141326D02*
X-170762Y-153111D01*
D21*
X-171177Y169307D02*
X-158235Y156365D01*
X-188283Y169307D02*
X-171177D01*
X-188976Y170000D02*
X-188283Y169307D01*
X-158235Y118189D02*
Y156365D01*
Y118189D02*
Y119763D01*
X203746Y847439D02*
X225361D01*
X232091Y854169D01*
X-158235Y119763D02*
X-156424Y121574D01*
X-89996D01*
X423495Y878712D02*
X425004Y877204D01*
X273164Y879279D02*
X397929D01*
X248054Y854169D02*
X273164Y879279D01*
X397929D02*
X398495Y878712D01*
X423495D01*
X369021Y916457D02*
X424886D01*
X368904Y916339D02*
X369021Y916457D01*
X424886D02*
X425004Y916574D01*
X232091Y854169D02*
X248054D01*
X98801Y876787D02*
X101183Y879169D01*
X-440154Y812342D02*
Y847281D01*
X-439996Y847439D01*
X-440311Y812184D02*
X-440154Y812342D01*
D22*
X-94488Y170000D02*
X-74996Y189492D01*
Y211889D01*
X-99996Y811889D02*
X333354D01*
X368904Y847439D01*
X-129996Y781889D02*
X-99996Y811889D01*
X-129996Y266889D02*
Y781889D01*
Y266889D02*
X-74996Y211889D01*
D23*
X-89996Y-30000D02*
Y-24220D01*
Y-88111D02*
Y-30000D01*
X-124996Y-123111D02*
X-89996Y-88111D01*
D24*
X-132467Y18200D02*
X-115496D01*
X-103696Y30000D02*
X-89996D01*
X-164397Y0D02*
X-148618D01*
X-144185Y6481D02*
X-132467Y18200D01*
X-144185Y4433D02*
Y6481D01*
X-115496Y18200D02*
X-103696Y30000D01*
X-148618Y0D02*
X-144185Y4433D01*
X-89996Y35780D02*
Y82204D01*
X-93887Y31889D02*
X-89996Y35780D01*
X-199996Y431889D02*
Y436889D01*
D25*
X365831Y916457D02*
X369021D01*
X364219Y918069D02*
X365831Y916457D01*
X364219Y918069D02*
Y951024D01*
X329919Y985324D02*
X364219Y951024D01*
X-386561Y985324D02*
X329919D01*
X128149Y847439D02*
X203746D01*
X98801Y876787D02*
X128149Y847439D01*
X-408581Y963304D02*
X-386561Y985324D01*
X-408581Y884169D02*
Y963304D01*
Y884169D02*
X-371851Y847439D01*
X-368896D01*
X-400941Y812184D02*
X-399996D01*
Y819294D01*
Y731889D02*
Y812184D01*
X59249Y916339D02*
X98801Y876787D01*
X-399996Y819294D02*
X-371851Y847439D01*
X-231096Y916339D02*
X59249D01*
X-280320D02*
X-231096D01*
X-299996Y731889D02*
Y896663D01*
X-280320Y916339D01*
D26*
X121686D02*
X214769D01*
X86136Y951889D02*
X121686Y916339D01*
X-330391Y951889D02*
X86136D01*
X-365941Y916339D02*
X-330391Y951889D01*
X-368896Y916339D02*
X-365941D01*
X-243619Y469861D02*
X-205647Y431889D01*
X-243619Y834916D02*
X-231096Y847439D01*
X-243619Y469861D02*
Y834916D01*
X-205647Y431889D02*
X-199996D01*
D27*
X-62992Y-125000D02*
D03*
X-188976Y170000D02*
D03*
X-94488D02*
D03*
X94488Y0D02*
D03*
X31496D02*
D03*
X125984Y-123111D02*
D03*
X62992D02*
D03*
X-124996D02*
D03*
X-439996Y847439D02*
D03*
D28*
X-399996Y431889D02*
D03*
X-49996Y731889D02*
D03*
Y631889D02*
D03*
Y531889D02*
D03*
Y431889D02*
D03*
X300004Y731889D02*
D03*
X400004D02*
D03*
X100004Y431889D02*
D03*
X200004D02*
D03*
X400004D02*
D03*
X200004Y731889D02*
D03*
X100004Y531889D02*
D03*
X200004D02*
D03*
X100004Y731889D02*
D03*
X300004Y631889D02*
D03*
X400004D02*
D03*
Y531889D02*
D03*
X300004D02*
D03*
X200004Y631889D02*
D03*
X300004Y431889D02*
D03*
X100004Y631889D02*
D03*
X-199996Y431889D02*
D03*
X-299996D02*
D03*
Y531889D02*
D03*
X-399996Y731889D02*
D03*
Y631889D02*
D03*
X-299996D02*
D03*
X-199996D02*
D03*
Y531889D02*
D03*
X-399996D02*
D03*
X-299996Y731889D02*
D03*
X-199996D02*
D03*
D29*
X492126Y0D02*
D03*
X-492126D02*
D03*
%TF.MD5,972c3748ccf03559323e7d426468c1c4*%
M02*
